<?xml version="1.0" encoding="UTF-8"?>
<!--Generator: Apple Native CoreSVG 148-->
<!DOCTYPE svg
PUBLIC "-//W3C//DTD SVG 1.1//EN"
       "http://www.w3.org/Graphics/SVG/1.1/DTD/svg11.dtd">
<svg version="1.1" xmlns="http://www.w3.org/2000/svg" xmlns:xlink="http://www.w3.org/1999/xlink" width="3300" height="2200">
 <!--glyph: "uni10003B.medium", point size: 100.000000, font version: "Version 16.0d11e1", template writer version: "8"-->
 <g id="Notes">
  <rect height="2200" id="artboard" style="fill:white;opacity:1" width="3300" x="0" y="0"/>
  <line id="" style="fill:none;stroke:black;opacity:1;stroke-width:0.5;" x1="263" x2="3036" y1="292" y2="292"/>
  <text style="stroke:none;fill:black;font-family:-apple-system,&quot;SF Pro Display&quot;,&quot;SF Pro Text&quot;,Helvetica,sans-serif;font-weight:bold;" transform="matrix(1 0 0 1 263 322)">Weight/Scale Variations</text>
  <text style="stroke:none;fill:black;font-family:-apple-system,&quot;SF Pro Display&quot;,&quot;SF Pro Text&quot;,Helvetica,sans-serif;text-anchor:middle;" transform="matrix(1 0 0 1 559.711 322)">Ultralight</text>
  <text style="stroke:none;fill:black;font-family:-apple-system,&quot;SF Pro Display&quot;,&quot;SF Pro Text&quot;,Helvetica,sans-serif;text-anchor:middle;" transform="matrix(1 0 0 1 856.422 322)">Thin</text>
  <text style="stroke:none;fill:black;font-family:-apple-system,&quot;SF Pro Display&quot;,&quot;SF Pro Text&quot;,Helvetica,sans-serif;text-anchor:middle;" transform="matrix(1 0 0 1 1153.13 322)">Light</text>
  <text style="stroke:none;fill:black;font-family:-apple-system,&quot;SF Pro Display&quot;,&quot;SF Pro Text&quot;,Helvetica,sans-serif;text-anchor:middle;" transform="matrix(1 0 0 1 1449.84 322)">Regular</text>
  <text style="stroke:none;fill:black;font-family:-apple-system,&quot;SF Pro Display&quot;,&quot;SF Pro Text&quot;,Helvetica,sans-serif;text-anchor:middle;" transform="matrix(1 0 0 1 1746.56 322)">Medium</text>
  <text style="stroke:none;fill:black;font-family:-apple-system,&quot;SF Pro Display&quot;,&quot;SF Pro Text&quot;,Helvetica,sans-serif;text-anchor:middle;" transform="matrix(1 0 0 1 2043.27 322)">Semibold</text>
  <text style="stroke:none;fill:black;font-family:-apple-system,&quot;SF Pro Display&quot;,&quot;SF Pro Text&quot;,Helvetica,sans-serif;text-anchor:middle;" transform="matrix(1 0 0 1 2339.98 322)">Bold</text>
  <text style="stroke:none;fill:black;font-family:-apple-system,&quot;SF Pro Display&quot;,&quot;SF Pro Text&quot;,Helvetica,sans-serif;text-anchor:middle;" transform="matrix(1 0 0 1 2636.69 322)">Heavy</text>
  <text style="stroke:none;fill:black;font-family:-apple-system,&quot;SF Pro Display&quot;,&quot;SF Pro Text&quot;,Helvetica,sans-serif;text-anchor:middle;" transform="matrix(1 0 0 1 2933.4 322)">Black</text>
  <line id="" style="fill:none;stroke:black;opacity:1;stroke-width:0.5;" x1="263" x2="3036" y1="1903" y2="1903"/>
  <g id="" transform="matrix(1 0 0 1 263 1933)">
   <path d="M 9.24805 0.830078 C 13.5547 0.830078 17.1387 -2.74414 17.1387 -7.05078 C 17.1387 -11.3574 13.5449 -14.9316 9.23828 -14.9316 C 4.94141 -14.9316 1.36719 -11.3574 1.36719 -7.05078 C 1.36719 -2.74414 4.95117 0.830078 9.24805 0.830078 Z M 9.24805 -0.654297 C 5.70312 -0.654297 2.87109 -3.49609 2.87109 -7.05078 C 2.87109 -10.6055 5.69336 -13.4473 9.23828 -13.4473 C 12.793 -13.4473 15.6348 -10.6055 15.6445 -7.05078 C 15.6543 -3.49609 12.8027 -0.654297 9.24805 -0.654297 Z M 9.22852 -3.62305 C 9.69727 -3.62305 9.9707 -3.93555 9.9707 -4.45312 L 9.9707 -6.31836 L 12.002 -6.31836 C 12.5 -6.31836 12.832 -6.57227 12.832 -7.04102 C 12.832 -7.51953 12.5195 -7.7832 12.002 -7.7832 L 9.9707 -7.7832 L 9.9707 -9.81445 C 9.9707 -10.332 9.69727 -10.6543 9.22852 -10.6543 C 8.75977 -10.6543 8.50586 -10.3125 8.50586 -9.81445 L 8.50586 -7.7832 L 6.49414 -7.7832 C 5.97656 -7.7832 5.64453 -7.51953 5.64453 -7.04102 C 5.64453 -6.57227 5.99609 -6.31836 6.49414 -6.31836 L 8.50586 -6.31836 L 8.50586 -4.45312 C 8.50586 -3.95508 8.75977 -3.62305 9.22852 -3.62305 Z"/>
  </g>
  <g id="" transform="matrix(1 0 0 1 281.506 1933)">
   <path d="M 11.709 2.91016 C 17.1582 2.91016 21.6699 -1.61133 21.6699 -7.05078 C 21.6699 -12.5 17.1484 -17.0117 11.6992 -17.0117 C 6.25977 -17.0117 1.74805 -12.5 1.74805 -7.05078 C 1.74805 -1.61133 6.26953 2.91016 11.709 2.91016 Z M 11.709 1.25 C 7.09961 1.25 3.41797 -2.44141 3.41797 -7.05078 C 3.41797 -11.6602 7.08984 -15.3516 11.6992 -15.3516 C 16.3086 -15.3516 20 -11.6602 20.0098 -7.05078 C 20.0195 -2.44141 16.3184 1.25 11.709 1.25 Z M 11.6797 -2.66602 C 12.207 -2.66602 12.5098 -3.01758 12.5098 -3.59375 L 12.5098 -6.23047 L 15.3223 -6.23047 C 15.8691 -6.23047 16.25 -6.51367 16.25 -7.03125 C 16.25 -7.55859 15.8887 -7.86133 15.3223 -7.86133 L 12.5098 -7.86133 L 12.5098 -10.6836 C 12.5098 -11.25 12.207 -11.6113 11.6797 -11.6113 C 11.1621 -11.6113 10.8789 -11.2305 10.8789 -10.6836 L 10.8789 -7.86133 L 8.07617 -7.86133 C 7.50977 -7.86133 7.13867 -7.55859 7.13867 -7.03125 C 7.13867 -6.51367 7.5293 -6.23047 8.07617 -6.23047 L 10.8789 -6.23047 L 10.8789 -3.59375 C 10.8789 -3.03711 11.1621 -2.66602 11.6797 -2.66602 Z"/>
  </g>
  <g id="" transform="matrix(1 0 0 1 304.924 1933)">
   <path d="M 14.9707 5.66406 C 21.9336 5.66406 27.6953 -0.0976562 27.6953 -7.05078 C 27.6953 -14.0137 21.9238 -19.7754 14.9609 -19.7754 C 8.00781 -19.7754 2.25586 -14.0137 2.25586 -7.05078 C 2.25586 -0.0976562 8.01758 5.66406 14.9707 5.66406 Z M 14.9707 3.84766 C 8.93555 3.84766 4.08203 -1.01562 4.08203 -7.05078 C 4.08203 -13.0957 8.92578 -17.9492 14.9609 -17.9492 C 21.0059 -17.9492 25.8594 -13.0957 25.8691 -7.05078 C 25.8789 -1.01562 21.0156 3.84766 14.9707 3.84766 Z M 14.9414 -1.38672 C 15.5176 -1.38672 15.8594 -1.77734 15.8594 -2.38281 L 15.8594 -6.13281 L 19.7754 -6.13281 C 20.3711 -6.13281 20.7812 -6.46484 20.7812 -7.02148 C 20.7812 -7.59766 20.3906 -7.93945 19.7754 -7.93945 L 15.8594 -7.93945 L 15.8594 -11.8652 C 15.8594 -12.4805 15.5176 -12.8711 14.9414 -12.8711 C 14.375 -12.8711 14.0527 -12.4609 14.0527 -11.8652 L 14.0527 -7.93945 L 10.1465 -7.93945 C 9.53125 -7.93945 9.13086 -7.59766 9.13086 -7.02148 C 9.13086 -6.46484 9.55078 -6.13281 10.1465 -6.13281 L 14.0527 -6.13281 L 14.0527 -2.38281 C 14.0527 -1.79688 14.375 -1.38672 14.9414 -1.38672 Z"/>
  </g>
  <text style="stroke:none;fill:black;font-family:-apple-system,&quot;SF Pro Display&quot;,&quot;SF Pro Text&quot;,Helvetica,sans-serif;font-weight:bold;" transform="matrix(1 0 0 1 263 1953)">Design Variations</text>
  <text style="stroke:none;fill:black;font-family:-apple-system,&quot;SF Pro Display&quot;,&quot;SF Pro Text&quot;,Helvetica,sans-serif;" transform="matrix(1 0 0 1 263 1971)">Symbols are supported in up to nine weights and three scales.</text>
  <text style="stroke:none;fill:black;font-family:-apple-system,&quot;SF Pro Display&quot;,&quot;SF Pro Text&quot;,Helvetica,sans-serif;" transform="matrix(1 0 0 1 263 1989)">For optimal layout with text and other symbols, vertically align</text>
  <text style="stroke:none;fill:black;font-family:-apple-system,&quot;SF Pro Display&quot;,&quot;SF Pro Text&quot;,Helvetica,sans-serif;" transform="matrix(1 0 0 1 263 2007)">symbols with the adjacent text.</text>
  <line id="" style="fill:none;stroke:#00AEEF;stroke-width:0.5;opacity:1.0;" x1="776" x2="776" y1="1919" y2="1933"/>
  <g id="" transform="matrix(1 0 0 1 776 1933)">
   <path d="M 3.31055 0.126953 C 3.82812 0.126953 4.08203 -0.0683594 4.26758 -0.605469 L 5.52734 -4.0625 L 11.2891 -4.0625 L 12.5488 -0.605469 C 12.7344 -0.0683594 12.9883 0.126953 13.4961 0.126953 C 14.0137 0.126953 14.3457 -0.185547 14.3457 -0.673828 C 14.3457 -0.839844 14.3164 -0.986328 14.2383 -1.20117 L 9.6582 -13.3887 C 9.43359 -13.9941 9.0332 -14.2871 8.4082 -14.2871 C 7.80273 -14.2871 7.39258 -13.9941 7.17773 -13.3984 L 2.59766 -1.19141 C 2.51953 -0.976562 2.49023 -0.830078 2.49023 -0.664062 C 2.49023 -0.175781 2.80273 0.126953 3.31055 0.126953 Z M 6.00586 -5.53711 L 8.37891 -12.1094 L 8.42773 -12.1094 L 10.8008 -5.53711 Z"/>
  </g>
  <line id="" style="fill:none;stroke:#00AEEF;stroke-width:0.5;opacity:1.0;" x1="792.836" x2="792.836" y1="1919" y2="1933"/>
  <text style="stroke:none;fill:black;font-family:-apple-system,&quot;SF Pro Display&quot;,&quot;SF Pro Text&quot;,Helvetica,sans-serif;font-weight:bold;" transform="matrix(1 0 0 1 776 1953)">Margins</text>
  <text style="stroke:none;fill:black;font-family:-apple-system,&quot;SF Pro Display&quot;,&quot;SF Pro Text&quot;,Helvetica,sans-serif;" transform="matrix(1 0 0 1 776 1971)">Leading and trailing margins on the left and right side of each symbol</text>
  <text style="stroke:none;fill:black;font-family:-apple-system,&quot;SF Pro Display&quot;,&quot;SF Pro Text&quot;,Helvetica,sans-serif;" transform="matrix(1 0 0 1 776 1989)">can be adjusted by modifying the x-location of the margin guidelines.</text>
  <text style="stroke:none;fill:black;font-family:-apple-system,&quot;SF Pro Display&quot;,&quot;SF Pro Text&quot;,Helvetica,sans-serif;" transform="matrix(1 0 0 1 776 2007)">Modifications are automatically applied proportionally to all</text>
  <text style="stroke:none;fill:black;font-family:-apple-system,&quot;SF Pro Display&quot;,&quot;SF Pro Text&quot;,Helvetica,sans-serif;" transform="matrix(1 0 0 1 776 2025)">scales and weights.</text>
  <g id="" transform="matrix(1 0 0 1 1289 1933)">
   <path d="M 2.8418 1.86523 L 4.54102 3.57422 C 5.40039 4.44336 6.38672 4.38477 7.31445 3.35938 L 17.4902 -7.85156 C 17.7539 -7.76367 18.0273 -7.7832 18.3398 -7.8418 L 19.4043 -8.03711 L 20.0684 -7.36328 L 20.0293 -6.80664 C 19.9902 -6.30859 20.1172 -5.92773 20.6055 -5.44922 L 21.3672 -4.70703 C 21.8457 -4.22852 22.4609 -4.19922 22.9297 -4.66797 L 25.8398 -7.58789 C 26.3086 -8.05664 26.2891 -8.65234 25.8105 -9.13086 L 25.0391 -9.89258 C 24.5605 -10.3711 24.1895 -10.5273 23.7109 -10.4883 L 23.1348 -10.4395 L 22.4902 -11.0742 L 22.7344 -12.1973 C 22.8613 -12.7637 22.7051 -13.2031 22.1191 -13.7891 L 19.9219 -15.9766 C 16.582 -19.2969 12.1484 -19.2188 9.25781 -16.3281 C 8.83789 -15.918 8.80859 -15.3418 9.04297 -14.9512 C 9.27734 -14.5898 9.73633 -14.3555 10.3809 -14.5215 C 11.8457 -14.8633 13.3691 -14.9219 14.7949 -13.9844 L 14.209 -12.5293 C 14.0137 -12.0508 13.9844 -11.6504 14.1113 -11.2891 L 3.04688 -0.898438 C 2.06055 0.0195312 1.98242 0.996094 2.8418 1.86523 Z M 10.752 -15.957 C 13.1836 -17.7344 16.4746 -17.4316 18.7012 -15.2051 L 21.1328 -12.793 C 21.3672 -12.5586 21.4062 -12.373 21.3379 -12.0312 L 21.0156 -10.5469 L 22.5195 -9.0625 L 23.5059 -9.12109 C 23.7598 -9.13086 23.8379 -9.11133 24.0332 -8.91602 L 24.6094 -8.33984 L 22.168 -5.89844 L 21.5918 -6.47461 C 21.3965 -6.66992 21.3672 -6.74805 21.377 -7.01172 L 21.4453 -7.98828 L 19.9512 -9.47266 L 18.4277 -9.21875 C 18.1055 -9.15039 17.959 -9.17969 17.7148 -9.41406 L 15.7129 -11.416 C 15.459 -11.6504 15.4297 -11.8164 15.5859 -12.1875 L 16.4648 -14.2773 C 14.9023 -15.7324 12.8711 -16.3574 10.8398 -15.7617 C 10.6836 -15.7227 10.625 -15.8496 10.752 -15.957 Z M 5.27344 2.30469 L 4.10156 1.14258 C 3.63281 0.683594 3.74023 0.341797 4.14062 -0.0195312 L 14.9512 -10.1953 L 16.416 -8.71094 L 6.42578 2.27539 C 6.07422 2.67578 5.74219 2.77344 5.27344 2.30469 Z"/>
  </g>
  <text style="stroke:none;fill:black;font-family:-apple-system,&quot;SF Pro Display&quot;,&quot;SF Pro Text&quot;,Helvetica,sans-serif;font-weight:bold;" transform="matrix(1 0 0 1 1289 1953)">Exporting</text>
  <text style="stroke:none;fill:black;font-family:-apple-system,&quot;SF Pro Display&quot;,&quot;SF Pro Text&quot;,Helvetica,sans-serif;" transform="matrix(1 0 0 1 1289 1971)">Symbols should be outlined when exporting to ensure the</text>
  <text style="stroke:none;fill:black;font-family:-apple-system,&quot;SF Pro Display&quot;,&quot;SF Pro Text&quot;,Helvetica,sans-serif;" transform="matrix(1 0 0 1 1289 1989)">design is preserved when submitting to Xcode.</text>
  <text id="template-version" style="stroke:none;fill:black;font-family:-apple-system,&quot;SF Pro Display&quot;,&quot;SF Pro Text&quot;,Helvetica,sans-serif;text-anchor:end;" transform="matrix(1 0 0 1 3036 1933)">Template v.2.0</text>
  <text style="stroke:none;fill:black;font-family:-apple-system,&quot;SF Pro Display&quot;,&quot;SF Pro Text&quot;,Helvetica,sans-serif;text-anchor:end;" transform="matrix(1 0 0 1 3036 1951)">Requires Xcode 12 or greater</text>
  <text style="stroke:none;fill:black;font-family:-apple-system,&quot;SF Pro Display&quot;,&quot;SF Pro Text&quot;,Helvetica,sans-serif;text-anchor:end;" transform="matrix(1 0 0 1 3036 1969)">Generated from 1.circle.fill</text>
  <text style="stroke:none;fill:black;font-family:-apple-system,&quot;SF Pro Display&quot;,&quot;SF Pro Text&quot;,Helvetica,sans-serif;text-anchor:end;" transform="matrix(1 0 0 1 3036 1987)">Typeset at 100 points</text>
  <text style="stroke:none;fill:black;font-family:-apple-system,&quot;SF Pro Display&quot;,&quot;SF Pro Text&quot;,Helvetica,sans-serif;" transform="matrix(1 0 0 1 263 726)">Small</text>
  <text style="stroke:none;fill:black;font-family:-apple-system,&quot;SF Pro Display&quot;,&quot;SF Pro Text&quot;,Helvetica,sans-serif;" transform="matrix(1 0 0 1 263 1156)">Medium</text>
  <text style="stroke:none;fill:black;font-family:-apple-system,&quot;SF Pro Display&quot;,&quot;SF Pro Text&quot;,Helvetica,sans-serif;" transform="matrix(1 0 0 1 263 1586)">Large</text>
 </g>
 <g id="Guides">
  <g id="H-reference" style="fill:#27AAE1;stroke:none;" transform="matrix(1 0 0 1 339 696)">
   <path d="M 0.976562 0 L 3.66211 0 L 12.9883 -24.4629 L 45.7031 -24.4629 L 55.0781 0 L 57.7148 0 L 30.6152 -70.459 L 28.125 -70.459 Z M 29.2969 -67.1387 L 29.3945 -67.1387 L 44.873 -26.709 L 13.8672 -26.709 Z"/>
  </g>
  <line id="Baseline-S" style="fill:none;stroke:#27AAE1;opacity:1;stroke-width:0.5;" x1="263" x2="3036" y1="696" y2="696"/>
  <line id="Capline-S" style="fill:none;stroke:#27AAE1;opacity:1;stroke-width:0.5;" x1="263" x2="3036" y1="625.541" y2="625.541"/>
  <g id="H-reference" style="fill:#27AAE1;stroke:none;" transform="matrix(1 0 0 1 339 1126)">
   <path d="M 0.976562 0 L 3.66211 0 L 12.9883 -24.4629 L 45.7031 -24.4629 L 55.0781 0 L 57.7148 0 L 30.6152 -70.459 L 28.125 -70.459 Z M 29.2969 -67.1387 L 29.3945 -67.1387 L 44.873 -26.709 L 13.8672 -26.709 Z"/>
  </g>
  <line id="Baseline-M" style="fill:none;stroke:#27AAE1;opacity:1;stroke-width:0.5;" x1="263" x2="3036" y1="1126" y2="1126"/>
  <line id="Capline-M" style="fill:none;stroke:#27AAE1;opacity:1;stroke-width:0.5;" x1="263" x2="3036" y1="1055.54" y2="1055.54"/>
  <g id="H-reference" style="fill:#27AAE1;stroke:none;" transform="matrix(1 0 0 1 339 1556)">
   <path d="M 0.976562 0 L 3.66211 0 L 12.9883 -24.4629 L 45.7031 -24.4629 L 55.0781 0 L 57.7148 0 L 30.6152 -70.459 L 28.125 -70.459 Z M 29.2969 -67.1387 L 29.3945 -67.1387 L 44.873 -26.709 L 13.8672 -26.709 Z"/>
  </g>
  <line id="Baseline-L" style="fill:none;stroke:#27AAE1;opacity:1;stroke-width:0.5;" x1="263" x2="3036" y1="1556" y2="1556"/>
  <line id="Capline-L" style="fill:none;stroke:#27AAE1;opacity:1;stroke-width:0.5;" x1="263" x2="3036" y1="1485.54" y2="1485.54"/>
  <line id="left-margin" style="fill:none;stroke:#00AEEF;stroke-width:0.5;opacity:1.0;" x1="1391.3" x2="1391.3" y1="1030.79" y2="1150.12"/>
  <line id="right-margin" style="fill:none;stroke:#00AEEF;stroke-width:0.5;opacity:1.0;" x1="1508.39" x2="1508.39" y1="1030.79" y2="1150.12"/>
 </g>
 <g id="Symbols">
  <g id="Black-L" transform="matrix(1 0 0 1 2854.05 1556)">
   <path d="M 79.3457 32.8613 C 116.748 32.8613 147.412 2.19727 147.412 -35.2051 C 147.412 -72.6074 116.748 -103.271 79.2969 -103.271 C 41.8945 -103.271 11.2793 -72.6074 11.2793 -35.2051 C 11.2793 2.19727 41.9434 32.8613 79.3457 32.8613 Z M 84.0332 -4.58984 C 77.832 -4.58984 73.7793 -7.86133 73.7793 -15.2832 L 73.7793 -46.582 L 73.0957 -46.582 L 67.5293 -42.9199 C 65.2344 -41.3086 64.1602 -41.1133 62.4512 -41.1133 C 58.5938 -41.1133 55.7617 -44.1406 55.7617 -48.0469 C 55.7617 -51.2695 57.2266 -53.3691 60.1074 -55.2734 L 70.1172 -61.8652 C 74.6582 -64.7949 78.125 -65.9668 82.5684 -65.9668 C 89.5508 -65.9668 94.3359 -61.5723 94.3359 -55.2734 L 94.3359 -15.2832 C 94.3359 -7.86133 90.1367 -4.58984 84.0332 -4.58984 Z"/>
  </g>
  <g id="Heavy-L" transform="matrix(1 0 0 1 2558.39 1556)">
   <path d="M 78.2715 31.7871 C 115.088 31.7871 145.312 1.5625 145.312 -35.2051 C 145.312 -72.0215 115.039 -102.246 78.2715 -102.246 C 41.4551 -102.246 11.2793 -72.0215 11.2793 -35.2051 C 11.2793 1.5625 41.5039 31.7871 78.2715 31.7871 Z M 82.6172 -4.93164 C 77.1973 -4.93164 73.7305 -7.86133 73.7305 -14.2578 L 73.7305 -48.5352 L 73.1445 -48.5352 L 66.6504 -44.2871 C 64.5996 -42.8711 63.6719 -42.6758 62.1094 -42.6758 C 58.7402 -42.6758 56.2988 -45.3613 56.2988 -48.7793 C 56.2988 -51.5625 57.4707 -53.3691 60.0098 -55.0293 L 70.5078 -62.0117 C 74.5605 -64.6484 77.5391 -65.625 81.3965 -65.625 C 87.4512 -65.625 91.5527 -61.8652 91.5527 -56.2988 L 91.5527 -14.2578 C 91.5527 -7.86133 87.9395 -4.93164 82.6172 -4.93164 Z"/>
  </g>
  <g id="Bold-L" transform="matrix(1 0 0 1 2262.88 1556)">
   <path d="M 77.0996 30.5664 C 113.232 30.5664 142.92 0.878906 142.92 -35.2539 C 142.92 -71.3379 113.184 -101.074 77.0508 -101.074 C 40.9668 -101.074 11.2793 -71.3379 11.2793 -35.2539 C 11.2793 0.878906 41.0156 30.5664 77.0996 30.5664 Z M 81.0059 -5.32227 C 76.5137 -5.32227 73.6816 -7.86133 73.6816 -13.1348 L 73.6816 -50.7324 L 73.1445 -50.7324 L 65.6738 -45.8008 C 63.8672 -44.5801 63.0859 -44.4336 61.7676 -44.4336 C 58.9355 -44.4336 56.8359 -46.7773 56.8359 -49.6094 C 56.8359 -51.9043 57.8125 -53.418 59.8633 -54.7852 L 70.9473 -62.1582 C 74.4141 -64.4531 76.9043 -65.2832 80.127 -65.2832 C 85.1074 -65.2832 88.4277 -62.207 88.4277 -57.4707 L 88.4277 -13.1348 C 88.4277 -7.86133 85.498 -5.32227 81.0059 -5.32227 Z"/>
  </g>
  <g id="Semibold-L" transform="matrix(1 0 0 1 1966.97 1556)">
   <path d="M 76.2695 29.7363 C 111.914 29.7363 141.309 0.390625 141.309 -35.2539 C 141.309 -70.8984 111.865 -100.244 76.2695 -100.244 C 40.625 -100.244 11.2793 -70.8984 11.2793 -35.2539 C 11.2793 0.390625 40.6738 29.7363 76.2695 29.7363 Z M 79.8828 -5.56641 C 76.0742 -5.56641 73.6328 -7.91016 73.6328 -12.3535 L 73.6328 -52.1973 L 73.1445 -52.1973 L 64.9902 -46.875 C 63.4277 -45.8008 62.6953 -45.6543 61.5234 -45.6543 C 59.082 -45.6543 57.2266 -47.7051 57.2266 -50.1465 C 57.2266 -52.1484 58.0078 -53.4668 59.8145 -54.6387 L 71.2402 -62.2559 C 74.3164 -64.3555 76.416 -65.0879 79.248 -65.0879 C 83.5449 -65.0879 86.2305 -62.4512 86.2305 -58.252 L 86.2305 -12.3535 C 86.2305 -7.91016 83.7891 -5.56641 79.8828 -5.56641 Z"/>
  </g>
  <g id="Medium-L" transform="matrix(1 0 0 1 1670.87 1556)">
   <path d="M 75.6836 29.1504 C 110.938 29.1504 140.088 0 140.088 -35.2539 C 140.088 -70.5078 110.889 -99.6582 75.6348 -99.6582 C 40.3809 -99.6582 11.2793 -70.5078 11.2793 -35.2539 C 11.2793 0 40.3809 29.1504 75.6836 29.1504 Z M 79.0527 -5.76172 C 75.6836 -5.76172 73.6328 -7.91016 73.6328 -11.7676 L 73.6328 -53.3691 L 73.1445 -53.3691 L 64.4531 -47.6562 C 63.0371 -46.6797 62.3535 -46.5332 61.377 -46.5332 C 59.1797 -46.5332 57.5195 -48.4375 57.5195 -50.5859 C 57.5195 -52.3438 58.2031 -53.4668 59.7168 -54.4922 L 71.4844 -62.3535 C 74.2188 -64.2578 76.0742 -64.8926 78.5645 -64.8926 C 82.3242 -64.8926 84.6191 -62.5977 84.6191 -58.8379 L 84.6191 -11.7676 C 84.6191 -7.91016 82.5195 -5.76172 79.0527 -5.76172 Z"/>
  </g>
  <g id="Regular-L" transform="matrix(1 0 0 1 1374.97 1556)">
   <path d="M 74.8535 28.3203 C 109.668 28.3203 138.477 -0.488281 138.477 -35.2539 C 138.477 -70.0684 109.619 -98.877 74.8047 -98.877 C 40.0391 -98.877 11.2793 -70.0684 11.2793 -35.2539 C 11.2793 -0.488281 40.0879 28.3203 74.8535 28.3203 Z M 77.9785 -6.05469 C 75.2441 -6.05469 73.584 -7.91016 73.584 -10.9863 L 73.584 -54.834 L 73.1445 -54.834 L 63.8184 -48.7305 C 62.5488 -47.8516 61.9629 -47.7539 61.1328 -47.7539 C 59.2773 -47.7539 57.8613 -49.3652 57.8613 -51.123 C 57.8613 -52.5391 58.3984 -53.4668 59.668 -54.3457 L 71.7773 -62.4512 C 74.1211 -64.1113 75.6348 -64.6484 77.7344 -64.6484 C 80.7129 -64.6484 82.4707 -62.8418 82.4707 -59.668 L 82.4707 -10.9863 C 82.4707 -7.91016 80.8594 -6.05469 77.9785 -6.05469 Z"/>
  </g>
  <g id="Light-L" transform="matrix(1 0 0 1 1079.18 1556)">
   <path d="M 73.9258 27.3926 C 108.301 27.3926 136.621 -0.927734 136.621 -35.2539 C 136.621 -69.6289 108.252 -97.9492 73.9258 -97.9492 C 39.5508 -97.9492 11.2793 -69.6289 11.2793 -35.2539 C 11.2793 -0.927734 39.5996 27.3926 73.9258 27.3926 Z M 76.8066 -6.44531 C 74.7559 -6.44531 73.4375 -7.86133 73.4375 -10.1562 L 73.4375 -56.5918 L 73.0469 -56.5918 L 62.3535 -49.6582 C 61.5234 -49.0723 61.0352 -48.9258 60.4004 -48.9258 C 58.9355 -48.9258 57.7637 -50.2441 57.7637 -51.6602 C 57.7637 -52.7832 58.2031 -53.5645 59.2285 -54.248 L 71.875 -62.5977 C 73.7305 -63.916 74.9023 -64.3555 76.5137 -64.3555 C 78.8086 -64.3555 80.2734 -62.9395 80.2734 -60.498 L 80.2734 -10.1562 C 80.2734 -7.86133 79.0039 -6.44531 76.8066 -6.44531 Z"/>
  </g>
  <g id="Thin-L" transform="matrix(1 0 0 1 783.693 1556)">
   <path d="M 72.7051 26.1719 C 106.494 26.1719 134.18 -1.51367 134.18 -35.2539 C 134.18 -69.043 106.494 -96.7285 72.7051 -96.7285 C 38.9648 -96.7285 11.2793 -69.043 11.2793 -35.2539 C 11.2793 -1.51367 38.9648 26.1719 72.7051 26.1719 Z M 75.293 -6.98242 C 74.0723 -6.98242 73.2422 -7.86133 73.2422 -9.08203 L 73.2422 -58.8867 L 72.9004 -58.8867 L 60.498 -50.8789 C 60.1074 -50.6348 59.8145 -50.5371 59.4238 -50.5371 C 58.4473 -50.5371 57.6172 -51.3672 57.6172 -52.3926 C 57.6172 -53.125 57.9102 -53.6621 58.6426 -54.1016 L 72.0215 -62.793 C 73.2422 -63.6719 73.9746 -63.916 74.9512 -63.916 C 76.3184 -63.916 77.3438 -63.0859 77.3438 -61.6699 L 77.3438 -9.08203 C 77.3438 -7.86133 76.5625 -6.98242 75.293 -6.98242 Z"/>
  </g>
  <g id="Ultralight-L" transform="matrix(1 0 0 1 487.616 1556)">
   <path d="M 72.1191 25.5371 C 105.566 25.5371 132.91 -1.80664 132.91 -35.2539 C 132.91 -68.75 105.566 -96.0938 72.1191 -96.0938 C 38.623 -96.0938 11.2793 -68.75 11.2793 -35.2539 C 11.2793 -1.80664 38.623 25.5371 72.1191 25.5371 Z M 74.5117 -7.27539 C 73.7305 -7.27539 73.1445 -7.86133 73.1445 -8.54492 L 73.1445 -60.0586 L 72.8027 -60.0586 L 59.5215 -51.5137 C 59.4238 -51.416 59.2285 -51.3672 58.9355 -51.3672 C 58.2031 -51.3672 57.5684 -51.9531 57.5684 -52.7344 C 57.5684 -53.2715 57.7637 -53.7109 58.3008 -54.0527 L 72.0703 -62.8906 C 72.998 -63.5254 73.5352 -63.7207 74.1699 -63.7207 C 75.0488 -63.7207 75.8301 -63.1348 75.8301 -62.2559 L 75.8301 -8.54492 C 75.8301 -7.86133 75.293 -7.27539 74.5117 -7.27539 Z"/>
  </g>
  <g id="Black-M" transform="matrix(1 0 0 1 2870.97 1126)">
   <path d="M 62.4023 18.457 C 91.9922 18.457 116.113 -5.61523 116.113 -35.2051 C 116.113 -64.7949 91.9922 -88.8672 62.4023 -88.8672 C 32.8125 -88.8672 8.74023 -64.7949 8.74023 -35.2051 C 8.74023 -5.61523 32.8125 18.457 62.4023 18.457 Z M 66.4062 -11.2305 C 60.8887 -11.2305 57.1289 -14.0137 57.1289 -20.7031 L 57.1289 -42.334 L 56.5918 -42.334 L 52.7832 -39.8438 C 50.8301 -38.5254 49.9512 -38.3301 48.4375 -38.3301 C 44.9707 -38.3301 42.5293 -40.9668 42.5293 -44.4824 C 42.5293 -47.4121 43.8477 -49.2676 46.4844 -50.9766 L 53.8574 -55.7617 C 57.8125 -58.252 60.9863 -59.2773 64.8926 -59.2773 C 71.1914 -59.2773 75.6836 -55.3223 75.6836 -49.8535 L 75.6836 -20.7031 C 75.6836 -14.0137 71.8262 -11.2305 66.4062 -11.2305 Z"/>
  </g>
  <g id="Heavy-M" transform="matrix(1 0 0 1 2575.19 1126)">
   <path d="M 61.5234 17.5293 C 90.5273 17.5293 114.258 -6.20117 114.258 -35.2051 C 114.258 -64.2578 90.5273 -87.9883 61.4746 -87.9883 C 32.4707 -87.9883 8.74023 -64.2578 8.74023 -35.2051 C 8.74023 -6.20117 32.4707 17.5293 61.5234 17.5293 Z M 65.1855 -11.5234 C 60.3516 -11.5234 57.1289 -14.0137 57.1289 -19.7754 L 57.1289 -44.043 L 56.6406 -44.043 L 52.1484 -41.0645 C 50.3906 -39.8926 49.6094 -39.6973 48.291 -39.6973 C 45.2637 -39.6973 43.0664 -42.0898 43.0664 -45.1172 C 43.0664 -47.6562 44.1895 -49.3164 46.4844 -50.7812 L 54.248 -55.8594 C 57.8125 -58.1543 60.498 -59.0332 63.9648 -59.0332 C 69.4336 -59.0332 73.1934 -55.6152 73.1934 -50.7324 L 73.1934 -19.7754 C 73.1934 -14.0137 69.9219 -11.5234 65.1855 -11.5234 Z"/>
  </g>
  <g id="Bold-M" transform="matrix(1 0 0 1 2279.5 1126)">
   <path d="M 60.498 16.5039 C 88.8672 16.5039 112.207 -6.83594 112.207 -35.2051 C 112.207 -63.623 88.8672 -86.9629 60.4492 -86.9629 C 32.0312 -86.9629 8.74023 -63.623 8.74023 -35.2051 C 8.74023 -6.83594 32.0801 16.5039 60.498 16.5039 Z M 63.7695 -11.8164 C 59.7168 -11.8164 57.1289 -14.0137 57.1289 -18.7988 L 57.1289 -45.8984 L 56.6895 -45.8984 L 51.5137 -42.4805 C 49.9512 -41.4062 49.2676 -41.2598 48.0957 -41.2598 C 45.5566 -41.2598 43.7012 -43.3105 43.7012 -45.8496 C 43.7012 -47.9492 44.6289 -49.3164 46.4844 -50.5371 L 54.6875 -56.0059 C 57.7637 -58.0078 60.0098 -58.7402 62.8906 -58.7402 C 67.4316 -58.7402 70.459 -55.957 70.459 -51.7578 L 70.459 -18.7988 C 70.459 -14.0137 67.7734 -11.8164 63.7695 -11.8164 Z"/>
  </g>
  <g id="Semibold-M" transform="matrix(1 0 0 1 1983.5 1126)">
   <path d="M 59.7656 15.8203 C 87.7441 15.8203 110.791 -7.27539 110.791 -35.2539 C 110.791 -63.2324 87.6953 -86.2793 59.7656 -86.2793 C 31.7871 -86.2793 8.74023 -63.2324 8.74023 -35.2539 C 8.74023 -7.27539 31.7871 15.8203 59.7656 15.8203 Z M 62.793 -12.0117 C 59.3262 -12.0117 57.1289 -14.0625 57.1289 -18.1152 L 57.1289 -47.168 L 56.6895 -47.168 L 51.0254 -43.457 C 49.6582 -42.4805 48.9746 -42.334 47.998 -42.334 C 45.8008 -42.334 44.1406 -44.1895 44.1406 -46.3867 C 44.1406 -48.1445 44.9219 -49.3164 46.4844 -50.3906 L 55.0293 -56.1035 C 57.7148 -57.9102 59.6191 -58.5449 62.1582 -58.5449 C 66.0156 -58.5449 68.5059 -56.1523 68.5059 -52.4414 L 68.5059 -18.1152 C 68.5059 -14.0625 66.3086 -12.0117 62.793 -12.0117 Z"/>
  </g>
  <g id="Medium-M" transform="matrix(1 0 0 1 1687.3 1126)">
   <path d="M 59.2285 15.2344 C 86.9141 15.2344 109.766 -7.61719 109.766 -35.2539 C 109.766 -62.8906 86.8652 -85.7422 59.1797 -85.7422 C 31.543 -85.7422 8.74023 -62.8906 8.74023 -35.2539 C 8.74023 -7.61719 31.5918 15.2344 59.2285 15.2344 Z M 62.0605 -12.1582 C 58.9844 -12.1582 57.1289 -14.0625 57.1289 -17.5781 L 57.1289 -48.1445 L 56.7383 -48.1445 L 50.6836 -44.1895 C 49.4141 -43.3105 48.8281 -43.1641 47.9004 -43.1641 C 45.9473 -43.1641 44.4824 -44.8242 44.4824 -46.7285 C 44.4824 -48.3398 45.1172 -49.3164 46.4844 -50.2441 L 55.2246 -56.1523 C 57.7148 -57.8125 59.375 -58.3984 61.6211 -58.3984 C 64.9902 -58.3984 67.0898 -56.3477 67.0898 -52.9785 L 67.0898 -17.5781 C 67.0898 -14.0625 65.1855 -12.1582 62.0605 -12.1582 Z"/>
  </g>
  <g id="Regular-M" transform="matrix(1 0 0 1 1391.3 1126)">
   <path d="M 58.5449 14.5508 C 85.791 14.5508 108.35 -8.05664 108.35 -35.2539 C 108.35 -62.5 85.7422 -85.0586 58.4961 -85.0586 C 31.2988 -85.0586 8.74023 -62.5 8.74023 -35.2539 C 8.74023 -8.05664 31.3477 14.5508 58.5449 14.5508 Z M 61.084 -12.3535 C 58.5938 -12.3535 57.1289 -14.0625 57.1289 -16.8945 L 57.1289 -49.4141 L 56.7383 -49.4141 L 50.2441 -45.166 C 49.0723 -44.3359 48.584 -44.2383 47.7539 -44.2383 C 46.1426 -44.2383 44.9219 -45.7031 44.9219 -47.2656 C 44.9219 -48.5352 45.4102 -49.3164 46.4844 -50.0977 L 55.5664 -56.25 C 57.666 -57.7148 58.9844 -58.2031 60.8887 -58.2031 C 63.623 -58.2031 65.1855 -56.5918 65.1855 -53.6621 L 65.1855 -16.8945 C 65.1855 -14.0625 63.7207 -12.3535 61.084 -12.3535 Z"/>
  </g>
  <g id="Light-M" transform="matrix(1 0 0 1 1095.42 1126)">
   <path d="M 57.7148 13.7207 C 84.5215 13.7207 106.689 -8.44727 106.689 -35.2539 C 106.689 -62.1094 84.5215 -84.2285 57.666 -84.2285 C 30.8594 -84.2285 8.74023 -62.1094 8.74023 -35.2539 C 8.74023 -8.44727 30.9082 13.7207 57.7148 13.7207 Z M 60.0586 -12.7441 C 58.1543 -12.7441 56.9824 -14.0625 56.9824 -16.1621 L 56.9824 -50.9766 L 56.6406 -50.9766 L 48.9746 -45.9961 C 48.1445 -45.4102 47.7539 -45.3125 47.1191 -45.3125 C 45.8496 -45.3125 44.8242 -46.4844 44.8242 -47.7051 C 44.8242 -48.7305 45.2148 -49.4141 46.0938 -50 L 55.6641 -56.3965 C 57.3242 -57.5684 58.3984 -57.9102 59.8145 -57.9102 C 61.9141 -57.9102 63.1836 -56.6406 63.1836 -54.4434 L 63.1836 -16.1621 C 63.1836 -14.0625 62.0605 -12.7441 60.0586 -12.7441 Z"/>
  </g>
  <g id="Thin-M" transform="matrix(1 0 0 1 799.806 1126)">
   <path d="M 56.6406 12.5977 C 82.9102 12.5977 104.492 -8.98438 104.492 -35.2539 C 104.492 -61.5723 82.9102 -83.1543 56.5918 -83.1543 C 30.3223 -83.1543 8.74023 -61.5723 8.74023 -35.2539 C 8.74023 -8.98438 30.3223 12.5977 56.6406 12.5977 Z M 58.6914 -13.2324 C 57.5684 -13.2324 56.7871 -14.0137 56.7871 -15.1855 L 56.7871 -53.0273 L 56.543 -53.0273 L 47.2656 -47.0703 C 46.875 -46.8262 46.6309 -46.7285 46.2891 -46.7285 C 45.4102 -46.7285 44.6777 -47.5098 44.6777 -48.3398 C 44.6777 -49.0234 44.9219 -49.5117 45.5566 -49.9023 L 55.7617 -56.543 C 56.8848 -57.3242 57.5195 -57.5684 58.4473 -57.5684 C 59.7168 -57.5684 60.5469 -56.7871 60.5469 -55.4688 L 60.5469 -15.1855 C 60.5469 -14.0137 59.8633 -13.2324 58.6914 -13.2324 Z"/>
  </g>
  <g id="Ultralight-M" transform="matrix(1 0 0 1 503.656 1126)">
   <path d="M 56.0547 12.0605 C 82.0801 12.0605 103.369 -9.22852 103.369 -35.2539 C 103.369 -61.2793 82.0801 -82.5684 56.0547 -82.5684 C 30.0293 -82.5684 8.74023 -61.2793 8.74023 -35.2539 C 8.74023 -9.22852 30.0293 12.0605 56.0547 12.0605 Z M 57.959 -13.4766 C 57.2754 -13.4766 56.6895 -14.0137 56.6895 -14.6973 L 56.6895 -54.1016 L 56.4453 -54.1016 L 46.4355 -47.6562 C 46.2402 -47.5586 46.0938 -47.4609 45.8496 -47.4609 C 45.166 -47.4609 44.6289 -47.998 44.6289 -48.6816 C 44.6289 -49.1699 44.8242 -49.5605 45.2637 -49.8535 L 55.8594 -56.6406 C 56.6406 -57.1777 57.1289 -57.373 57.7148 -57.373 C 58.5449 -57.373 59.2285 -56.8359 59.2285 -56.0059 L 59.2285 -14.6973 C 59.2285 -14.0137 58.7402 -13.4766 57.959 -13.4766 Z"/>
  </g>
  <g id="Black-S" transform="matrix(1 0 0 1 2884.57 696)">
   <path d="M 48.8281 6.78711 C 71.9727 6.78711 90.8203 -12.0605 90.8203 -35.2051 C 90.8203 -58.3496 71.9727 -77.1973 48.8281 -77.1973 C 25.6836 -77.1973 6.83594 -58.3496 6.83594 -35.2051 C 6.83594 -12.0605 25.6836 6.78711 48.8281 6.78711 Z M 51.9531 -16.4551 C 47.6562 -16.4551 44.7754 -18.6035 44.7754 -23.7793 L 44.7754 -40.918 L 44.3359 -40.918 L 41.3086 -38.916 C 39.7949 -37.8906 39.1113 -37.7441 37.9395 -37.7441 C 35.2539 -37.7441 33.3496 -39.7949 33.3496 -42.5293 C 33.3496 -44.7754 34.375 -46.2402 36.4258 -47.5586 L 42.2363 -51.3184 C 45.3125 -53.2715 47.7539 -54.0527 50.7812 -54.0527 C 55.6641 -54.0527 59.1309 -50.9766 59.1309 -46.7285 L 59.1309 -23.7793 C 59.1309 -18.6035 56.1523 -16.4551 51.9531 -16.4551 Z"/>
  </g>
  <g id="Heavy-S" transform="matrix(1 0 0 1 2588.47 696)">
   <path d="M 48.2422 6.15234 C 70.9961 6.15234 89.5996 -12.4512 89.5996 -35.2051 C 89.5996 -57.959 70.9961 -76.6113 48.1934 -76.6113 C 25.4395 -76.6113 6.83594 -57.959 6.83594 -35.2051 C 6.83594 -12.4512 25.4395 6.15234 48.2422 6.15234 Z M 51.123 -16.6016 C 47.3145 -16.6016 44.7754 -18.6035 44.7754 -23.1934 L 44.7754 -42.041 L 44.3848 -42.041 L 41.0156 -39.7949 C 39.5996 -38.8184 38.9648 -38.6719 37.8906 -38.6719 C 35.498 -38.6719 33.7891 -40.5762 33.7891 -42.9688 C 33.7891 -44.9707 34.668 -46.2402 36.4746 -47.4121 L 42.5293 -51.416 C 45.3125 -53.1738 47.4609 -53.9062 50.1953 -53.9062 C 54.4922 -53.9062 57.4707 -51.2207 57.4707 -47.3145 L 57.4707 -23.1934 C 57.4707 -18.6035 54.8828 -16.6016 51.123 -16.6016 Z"/>
  </g>
  <g id="Bold-S" transform="matrix(1 0 0 1 2292.44 696)">
   <path d="M 47.5586 5.46875 C 69.873 5.46875 88.2324 -12.8906 88.2324 -35.2539 C 88.2324 -57.5684 69.873 -75.9277 47.5098 -75.9277 C 25.1953 -75.9277 6.83594 -57.5684 6.83594 -35.2539 C 6.83594 -12.8906 25.1953 5.46875 47.5586 5.46875 Z M 50.1465 -16.7969 C 46.875 -16.7969 44.7754 -18.6035 44.7754 -22.5098 L 44.7754 -43.2617 L 44.4336 -43.2617 L 40.625 -40.7715 C 39.3555 -39.8926 38.7695 -39.7461 37.8418 -39.7461 C 35.791 -39.7461 34.2773 -41.4062 34.2773 -43.457 C 34.2773 -45.166 35.0098 -46.2402 36.5234 -47.2168 L 42.8711 -51.4648 C 45.3125 -53.125 47.168 -53.7109 49.5117 -53.7109 C 53.1738 -53.7109 55.5664 -51.4648 55.5664 -47.998 L 55.5664 -22.5098 C 55.5664 -18.6035 53.418 -16.7969 50.1465 -16.7969 Z"/>
  </g>
  <g id="Semibold-S" transform="matrix(1 0 0 1 1996.2 696)">
   <path d="M 47.0703 4.98047 C 69.0918 4.98047 87.3047 -13.1836 87.3047 -35.2539 C 87.3047 -57.2754 69.0918 -75.4883 47.0215 -75.4883 C 25 -75.4883 6.83594 -57.2754 6.83594 -35.2539 C 6.83594 -13.1836 25.0488 4.98047 47.0703 4.98047 Z M 49.5117 -16.9434 C 46.6309 -16.9434 44.7754 -18.6523 44.7754 -22.0215 L 44.7754 -44.0918 L 44.4824 -44.0918 L 40.4297 -41.4551 C 39.209 -40.5762 38.6719 -40.4785 37.793 -40.4785 C 35.9863 -40.4785 34.6191 -41.9922 34.6191 -43.7988 C 34.6191 -45.3125 35.2539 -46.2402 36.5723 -47.1191 L 43.0664 -51.5137 C 45.3613 -53.0762 46.9238 -53.6133 49.0234 -53.6133 C 52.2461 -53.6133 54.2969 -51.6113 54.2969 -48.4863 L 54.2969 -22.0215 C 54.2969 -18.6523 52.4414 -16.9434 49.5117 -16.9434 Z"/>
  </g>
  <g id="Medium-S" transform="matrix(1 0 0 1 1699.83 696)">
   <path d="M 46.7285 4.63867 C 68.5547 4.63867 86.6211 -13.4277 86.6211 -35.2539 C 86.6211 -57.0801 68.5059 -75.1465 46.6797 -75.1465 C 24.8535 -75.1465 6.83594 -57.0801 6.83594 -35.2539 C 6.83594 -13.4277 24.9023 4.63867 46.7285 4.63867 Z M 49.0234 -17.041 C 46.3867 -17.041 44.7754 -18.6523 44.7754 -21.6797 L 44.7754 -44.7754 L 44.4824 -44.7754 L 40.2344 -41.9434 C 39.0625 -41.1621 38.5742 -41.0645 37.793 -41.0645 C 36.1328 -41.0645 34.9121 -42.4805 34.9121 -44.0918 C 34.9121 -45.4102 35.4492 -46.2402 36.5723 -47.0215 L 43.2617 -51.5625 C 45.3613 -53.0273 46.7773 -53.5156 48.6816 -53.5156 C 51.5625 -53.5156 53.3203 -51.7578 53.3203 -48.8281 L 53.3203 -21.6797 C 53.3203 -18.6523 51.709 -17.041 49.0234 -17.041 Z"/>
  </g>
  <g id="Regular-S" transform="matrix(1 0 0 1 1403.58 696)">
   <path d="M 46.2402 4.15039 C 67.7734 4.15039 85.6934 -13.7207 85.6934 -35.2539 C 85.6934 -56.7871 67.7246 -74.6582 46.1914 -74.6582 C 24.707 -74.6582 6.83594 -56.7871 6.83594 -35.2539 C 6.83594 -13.7207 24.7559 4.15039 46.2402 4.15039 Z M 48.3887 -17.1387 C 46.1426 -17.1387 44.8242 -18.6523 44.8242 -21.2402 L 44.8242 -45.6055 L 44.5312 -45.6055 L 39.9902 -42.627 C 38.916 -41.8457 38.4277 -41.748 37.7441 -41.748 C 36.3281 -41.748 35.2539 -43.0176 35.2539 -44.4336 C 35.2539 -45.5566 35.6445 -46.2402 36.6211 -46.9238 L 43.457 -51.6113 C 45.3613 -52.9297 46.5332 -53.3691 48.2422 -53.3691 C 50.6836 -53.3691 52.0508 -51.9043 52.0508 -49.2676 L 52.0508 -21.2402 C 52.0508 -18.6523 50.7324 -17.1387 48.3887 -17.1387 Z"/>
  </g>
  <g id="Light-S" transform="matrix(1 0 0 1 1107.6 696)">
   <path d="M 45.5078 3.41797 C 66.6992 3.41797 84.2285 -14.0625 84.2285 -35.2539 C 84.2285 -56.4453 66.6504 -73.9258 45.5078 -73.9258 C 24.3164 -73.9258 6.83594 -56.4453 6.83594 -35.2539 C 6.83594 -14.0625 24.3652 3.41797 45.5078 3.41797 Z M 47.4609 -17.4805 C 45.7031 -17.4805 44.6777 -18.6523 44.6777 -20.5566 L 44.6777 -46.9727 L 44.4336 -46.9727 L 38.8672 -43.3594 C 38.0859 -42.8223 37.6953 -42.7246 37.1582 -42.7246 C 36.0352 -42.7246 35.1562 -43.75 35.1562 -44.8242 C 35.1562 -45.752 35.498 -46.2891 36.2793 -46.8262 L 43.5547 -51.7578 C 45.0684 -52.7832 45.9961 -53.125 47.2656 -53.125 C 49.1699 -53.125 50.293 -52.002 50.293 -50 L 50.293 -20.5566 C 50.293 -18.6523 49.2676 -17.4805 47.4609 -17.4805 Z"/>
  </g>
  <g id="Thin-S" transform="matrix(1 0 0 1 811.867 696)">
   <path d="M 44.5801 2.49023 C 65.2832 2.49023 82.2754 -14.5508 82.2754 -35.2539 C 82.2754 -55.957 65.2344 -72.998 44.5312 -72.998 C 23.8281 -72.998 6.83594 -55.957 6.83594 -35.2539 C 6.83594 -14.5508 23.877 2.49023 44.5801 2.49023 Z M 46.2402 -17.8711 C 45.2148 -17.8711 44.5312 -18.6035 44.5312 -19.7266 L 44.5312 -48.7793 L 44.3359 -48.7793 L 37.3535 -44.2871 C 36.9629 -44.043 36.7676 -43.9941 36.4258 -43.9941 C 35.6445 -43.9941 35.0586 -44.6289 35.0586 -45.4102 C 35.0586 -45.9961 35.2539 -46.3867 35.791 -46.7285 L 43.6523 -51.9043 C 44.6289 -52.5879 45.2637 -52.7832 46.0449 -52.7832 C 47.2168 -52.7832 47.9492 -52.0996 47.9492 -50.8789 L 47.9492 -19.7266 C 47.9492 -18.6035 47.3145 -17.8711 46.2402 -17.8711 Z"/>
  </g>
  <g id="Ultralight-S" transform="matrix(1 0 0 1 515.644 696)">
   <path d="M 44.043 1.95312 C 64.502 1.95312 81.2988 -14.7949 81.2988 -35.2539 C 81.2988 -55.7129 64.502 -72.4609 44.043 -72.4609 C 23.584 -72.4609 6.83594 -55.7129 6.83594 -35.2539 C 6.83594 -14.7949 23.584 1.95312 44.043 1.95312 Z M 45.6055 -18.1152 C 44.9219 -18.1152 44.4336 -18.6035 44.4336 -19.2871 L 44.4336 -49.7559 L 44.2383 -49.7559 L 36.6211 -44.8242 C 36.4258 -44.6777 36.2305 -44.6289 36.0352 -44.6289 C 35.4492 -44.6289 34.9609 -45.1172 34.9609 -45.7031 C 34.9609 -46.0938 35.1562 -46.4355 35.5469 -46.6797 L 43.75 -52.002 C 44.4336 -52.4902 44.873 -52.6367 45.4102 -52.6367 C 46.1914 -52.6367 46.7773 -52.1484 46.7773 -51.3672 L 46.7773 -19.2871 C 46.7773 -18.6035 46.3379 -18.1152 45.6055 -18.1152 Z"/>
  </g>
 </g>
</svg>
