<?xml version="1.0" encoding="UTF-8"?>
<!--Generator: Apple Native CoreSVG 148-->
<!DOCTYPE svg
PUBLIC "-//W3C//DTD SVG 1.1//EN"
       "http://www.w3.org/Graphics/SVG/1.1/DTD/svg11.dtd">
<svg version="1.1" xmlns="http://www.w3.org/2000/svg" xmlns:xlink="http://www.w3.org/1999/xlink" width="3300" height="2200">
 <!--glyph: "uni10077C.medium", point size: 100.000000, font version: "Version 16.0d11e1", template writer version: "8"-->
 <g id="Notes">
  <rect height="2200" id="artboard" style="fill:white;opacity:1" width="3300" x="0" y="0"/>
  <line id="" style="fill:none;stroke:black;opacity:1;stroke-width:0.5;" x1="263" x2="3036" y1="292" y2="292"/>
  <text style="stroke:none;fill:black;font-family:-apple-system,&quot;SF Pro Display&quot;,&quot;SF Pro Text&quot;,Helvetica,sans-serif;font-weight:bold;" transform="matrix(1 0 0 1 263 322)">Weight/Scale Variations</text>
  <text style="stroke:none;fill:black;font-family:-apple-system,&quot;SF Pro Display&quot;,&quot;SF Pro Text&quot;,Helvetica,sans-serif;text-anchor:middle;" transform="matrix(1 0 0 1 559.711 322)">Ultralight</text>
  <text style="stroke:none;fill:black;font-family:-apple-system,&quot;SF Pro Display&quot;,&quot;SF Pro Text&quot;,Helvetica,sans-serif;text-anchor:middle;" transform="matrix(1 0 0 1 856.422 322)">Thin</text>
  <text style="stroke:none;fill:black;font-family:-apple-system,&quot;SF Pro Display&quot;,&quot;SF Pro Text&quot;,Helvetica,sans-serif;text-anchor:middle;" transform="matrix(1 0 0 1 1153.13 322)">Light</text>
  <text style="stroke:none;fill:black;font-family:-apple-system,&quot;SF Pro Display&quot;,&quot;SF Pro Text&quot;,Helvetica,sans-serif;text-anchor:middle;" transform="matrix(1 0 0 1 1449.84 322)">Regular</text>
  <text style="stroke:none;fill:black;font-family:-apple-system,&quot;SF Pro Display&quot;,&quot;SF Pro Text&quot;,Helvetica,sans-serif;text-anchor:middle;" transform="matrix(1 0 0 1 1746.56 322)">Medium</text>
  <text style="stroke:none;fill:black;font-family:-apple-system,&quot;SF Pro Display&quot;,&quot;SF Pro Text&quot;,Helvetica,sans-serif;text-anchor:middle;" transform="matrix(1 0 0 1 2043.27 322)">Semibold</text>
  <text style="stroke:none;fill:black;font-family:-apple-system,&quot;SF Pro Display&quot;,&quot;SF Pro Text&quot;,Helvetica,sans-serif;text-anchor:middle;" transform="matrix(1 0 0 1 2339.98 322)">Bold</text>
  <text style="stroke:none;fill:black;font-family:-apple-system,&quot;SF Pro Display&quot;,&quot;SF Pro Text&quot;,Helvetica,sans-serif;text-anchor:middle;" transform="matrix(1 0 0 1 2636.69 322)">Heavy</text>
  <text style="stroke:none;fill:black;font-family:-apple-system,&quot;SF Pro Display&quot;,&quot;SF Pro Text&quot;,Helvetica,sans-serif;text-anchor:middle;" transform="matrix(1 0 0 1 2933.4 322)">Black</text>
  <line id="" style="fill:none;stroke:black;opacity:1;stroke-width:0.5;" x1="263" x2="3036" y1="1903" y2="1903"/>
  <g id="" transform="matrix(1 0 0 1 263 1933)">
   <path d="M 9.24805 0.830078 C 13.5547 0.830078 17.1387 -2.74414 17.1387 -7.05078 C 17.1387 -11.3574 13.5449 -14.9316 9.23828 -14.9316 C 4.94141 -14.9316 1.36719 -11.3574 1.36719 -7.05078 C 1.36719 -2.74414 4.95117 0.830078 9.24805 0.830078 Z M 9.24805 -0.654297 C 5.70312 -0.654297 2.87109 -3.49609 2.87109 -7.05078 C 2.87109 -10.6055 5.69336 -13.4473 9.23828 -13.4473 C 12.793 -13.4473 15.6348 -10.6055 15.6445 -7.05078 C 15.6543 -3.49609 12.8027 -0.654297 9.24805 -0.654297 Z M 9.22852 -3.62305 C 9.69727 -3.62305 9.9707 -3.93555 9.9707 -4.45312 L 9.9707 -6.31836 L 12.002 -6.31836 C 12.5 -6.31836 12.832 -6.57227 12.832 -7.04102 C 12.832 -7.51953 12.5195 -7.7832 12.002 -7.7832 L 9.9707 -7.7832 L 9.9707 -9.81445 C 9.9707 -10.332 9.69727 -10.6543 9.22852 -10.6543 C 8.75977 -10.6543 8.50586 -10.3125 8.50586 -9.81445 L 8.50586 -7.7832 L 6.49414 -7.7832 C 5.97656 -7.7832 5.64453 -7.51953 5.64453 -7.04102 C 5.64453 -6.57227 5.99609 -6.31836 6.49414 -6.31836 L 8.50586 -6.31836 L 8.50586 -4.45312 C 8.50586 -3.95508 8.75977 -3.62305 9.22852 -3.62305 Z"/>
  </g>
  <g id="" transform="matrix(1 0 0 1 281.506 1933)">
   <path d="M 11.709 2.91016 C 17.1582 2.91016 21.6699 -1.61133 21.6699 -7.05078 C 21.6699 -12.5 17.1484 -17.0117 11.6992 -17.0117 C 6.25977 -17.0117 1.74805 -12.5 1.74805 -7.05078 C 1.74805 -1.61133 6.26953 2.91016 11.709 2.91016 Z M 11.709 1.25 C 7.09961 1.25 3.41797 -2.44141 3.41797 -7.05078 C 3.41797 -11.6602 7.08984 -15.3516 11.6992 -15.3516 C 16.3086 -15.3516 20 -11.6602 20.0098 -7.05078 C 20.0195 -2.44141 16.3184 1.25 11.709 1.25 Z M 11.6797 -2.66602 C 12.207 -2.66602 12.5098 -3.01758 12.5098 -3.59375 L 12.5098 -6.23047 L 15.3223 -6.23047 C 15.8691 -6.23047 16.25 -6.51367 16.25 -7.03125 C 16.25 -7.55859 15.8887 -7.86133 15.3223 -7.86133 L 12.5098 -7.86133 L 12.5098 -10.6836 C 12.5098 -11.25 12.207 -11.6113 11.6797 -11.6113 C 11.1621 -11.6113 10.8789 -11.2305 10.8789 -10.6836 L 10.8789 -7.86133 L 8.07617 -7.86133 C 7.50977 -7.86133 7.13867 -7.55859 7.13867 -7.03125 C 7.13867 -6.51367 7.5293 -6.23047 8.07617 -6.23047 L 10.8789 -6.23047 L 10.8789 -3.59375 C 10.8789 -3.03711 11.1621 -2.66602 11.6797 -2.66602 Z"/>
  </g>
  <g id="" transform="matrix(1 0 0 1 304.924 1933)">
   <path d="M 14.9707 5.66406 C 21.9336 5.66406 27.6953 -0.0976562 27.6953 -7.05078 C 27.6953 -14.0137 21.9238 -19.7754 14.9609 -19.7754 C 8.00781 -19.7754 2.25586 -14.0137 2.25586 -7.05078 C 2.25586 -0.0976562 8.01758 5.66406 14.9707 5.66406 Z M 14.9707 3.84766 C 8.93555 3.84766 4.08203 -1.01562 4.08203 -7.05078 C 4.08203 -13.0957 8.92578 -17.9492 14.9609 -17.9492 C 21.0059 -17.9492 25.8594 -13.0957 25.8691 -7.05078 C 25.8789 -1.01562 21.0156 3.84766 14.9707 3.84766 Z M 14.9414 -1.38672 C 15.5176 -1.38672 15.8594 -1.77734 15.8594 -2.38281 L 15.8594 -6.13281 L 19.7754 -6.13281 C 20.3711 -6.13281 20.7812 -6.46484 20.7812 -7.02148 C 20.7812 -7.59766 20.3906 -7.93945 19.7754 -7.93945 L 15.8594 -7.93945 L 15.8594 -11.8652 C 15.8594 -12.4805 15.5176 -12.8711 14.9414 -12.8711 C 14.375 -12.8711 14.0527 -12.4609 14.0527 -11.8652 L 14.0527 -7.93945 L 10.1465 -7.93945 C 9.53125 -7.93945 9.13086 -7.59766 9.13086 -7.02148 C 9.13086 -6.46484 9.55078 -6.13281 10.1465 -6.13281 L 14.0527 -6.13281 L 14.0527 -2.38281 C 14.0527 -1.79688 14.375 -1.38672 14.9414 -1.38672 Z"/>
  </g>
  <text style="stroke:none;fill:black;font-family:-apple-system,&quot;SF Pro Display&quot;,&quot;SF Pro Text&quot;,Helvetica,sans-serif;font-weight:bold;" transform="matrix(1 0 0 1 263 1953)">Design Variations</text>
  <text style="stroke:none;fill:black;font-family:-apple-system,&quot;SF Pro Display&quot;,&quot;SF Pro Text&quot;,Helvetica,sans-serif;" transform="matrix(1 0 0 1 263 1971)">Symbols are supported in up to nine weights and three scales.</text>
  <text style="stroke:none;fill:black;font-family:-apple-system,&quot;SF Pro Display&quot;,&quot;SF Pro Text&quot;,Helvetica,sans-serif;" transform="matrix(1 0 0 1 263 1989)">For optimal layout with text and other symbols, vertically align</text>
  <text style="stroke:none;fill:black;font-family:-apple-system,&quot;SF Pro Display&quot;,&quot;SF Pro Text&quot;,Helvetica,sans-serif;" transform="matrix(1 0 0 1 263 2007)">symbols with the adjacent text.</text>
  <line id="" style="fill:none;stroke:#00AEEF;stroke-width:0.5;opacity:1.0;" x1="776" x2="776" y1="1919" y2="1933"/>
  <g id="" transform="matrix(1 0 0 1 776 1933)">
   <path d="M 3.31055 0.126953 C 3.82812 0.126953 4.08203 -0.0683594 4.26758 -0.605469 L 5.52734 -4.0625 L 11.2891 -4.0625 L 12.5488 -0.605469 C 12.7344 -0.0683594 12.9883 0.126953 13.4961 0.126953 C 14.0137 0.126953 14.3457 -0.185547 14.3457 -0.673828 C 14.3457 -0.839844 14.3164 -0.986328 14.2383 -1.20117 L 9.6582 -13.3887 C 9.43359 -13.9941 9.0332 -14.2871 8.4082 -14.2871 C 7.80273 -14.2871 7.39258 -13.9941 7.17773 -13.3984 L 2.59766 -1.19141 C 2.51953 -0.976562 2.49023 -0.830078 2.49023 -0.664062 C 2.49023 -0.175781 2.80273 0.126953 3.31055 0.126953 Z M 6.00586 -5.53711 L 8.37891 -12.1094 L 8.42773 -12.1094 L 10.8008 -5.53711 Z"/>
  </g>
  <line id="" style="fill:none;stroke:#00AEEF;stroke-width:0.5;opacity:1.0;" x1="792.836" x2="792.836" y1="1919" y2="1933"/>
  <text style="stroke:none;fill:black;font-family:-apple-system,&quot;SF Pro Display&quot;,&quot;SF Pro Text&quot;,Helvetica,sans-serif;font-weight:bold;" transform="matrix(1 0 0 1 776 1953)">Margins</text>
  <text style="stroke:none;fill:black;font-family:-apple-system,&quot;SF Pro Display&quot;,&quot;SF Pro Text&quot;,Helvetica,sans-serif;" transform="matrix(1 0 0 1 776 1971)">Leading and trailing margins on the left and right side of each symbol</text>
  <text style="stroke:none;fill:black;font-family:-apple-system,&quot;SF Pro Display&quot;,&quot;SF Pro Text&quot;,Helvetica,sans-serif;" transform="matrix(1 0 0 1 776 1989)">can be adjusted by modifying the x-location of the margin guidelines.</text>
  <text style="stroke:none;fill:black;font-family:-apple-system,&quot;SF Pro Display&quot;,&quot;SF Pro Text&quot;,Helvetica,sans-serif;" transform="matrix(1 0 0 1 776 2007)">Modifications are automatically applied proportionally to all</text>
  <text style="stroke:none;fill:black;font-family:-apple-system,&quot;SF Pro Display&quot;,&quot;SF Pro Text&quot;,Helvetica,sans-serif;" transform="matrix(1 0 0 1 776 2025)">scales and weights.</text>
  <g id="" transform="matrix(1 0 0 1 1289 1933)">
   <path d="M 2.8418 1.86523 L 4.54102 3.57422 C 5.40039 4.44336 6.38672 4.38477 7.31445 3.35938 L 17.4902 -7.85156 C 17.7539 -7.76367 18.0273 -7.7832 18.3398 -7.8418 L 19.4043 -8.03711 L 20.0684 -7.36328 L 20.0293 -6.80664 C 19.9902 -6.30859 20.1172 -5.92773 20.6055 -5.44922 L 21.3672 -4.70703 C 21.8457 -4.22852 22.4609 -4.19922 22.9297 -4.66797 L 25.8398 -7.58789 C 26.3086 -8.05664 26.2891 -8.65234 25.8105 -9.13086 L 25.0391 -9.89258 C 24.5605 -10.3711 24.1895 -10.5273 23.7109 -10.4883 L 23.1348 -10.4395 L 22.4902 -11.0742 L 22.7344 -12.1973 C 22.8613 -12.7637 22.7051 -13.2031 22.1191 -13.7891 L 19.9219 -15.9766 C 16.582 -19.2969 12.1484 -19.2188 9.25781 -16.3281 C 8.83789 -15.918 8.80859 -15.3418 9.04297 -14.9512 C 9.27734 -14.5898 9.73633 -14.3555 10.3809 -14.5215 C 11.8457 -14.8633 13.3691 -14.9219 14.7949 -13.9844 L 14.209 -12.5293 C 14.0137 -12.0508 13.9844 -11.6504 14.1113 -11.2891 L 3.04688 -0.898438 C 2.06055 0.0195312 1.98242 0.996094 2.8418 1.86523 Z M 10.752 -15.957 C 13.1836 -17.7344 16.4746 -17.4316 18.7012 -15.2051 L 21.1328 -12.793 C 21.3672 -12.5586 21.4062 -12.373 21.3379 -12.0312 L 21.0156 -10.5469 L 22.5195 -9.0625 L 23.5059 -9.12109 C 23.7598 -9.13086 23.8379 -9.11133 24.0332 -8.91602 L 24.6094 -8.33984 L 22.168 -5.89844 L 21.5918 -6.47461 C 21.3965 -6.66992 21.3672 -6.74805 21.377 -7.01172 L 21.4453 -7.98828 L 19.9512 -9.47266 L 18.4277 -9.21875 C 18.1055 -9.15039 17.959 -9.17969 17.7148 -9.41406 L 15.7129 -11.416 C 15.459 -11.6504 15.4297 -11.8164 15.5859 -12.1875 L 16.4648 -14.2773 C 14.9023 -15.7324 12.8711 -16.3574 10.8398 -15.7617 C 10.6836 -15.7227 10.625 -15.8496 10.752 -15.957 Z M 5.27344 2.30469 L 4.10156 1.14258 C 3.63281 0.683594 3.74023 0.341797 4.14062 -0.0195312 L 14.9512 -10.1953 L 16.416 -8.71094 L 6.42578 2.27539 C 6.07422 2.67578 5.74219 2.77344 5.27344 2.30469 Z"/>
  </g>
  <text style="stroke:none;fill:black;font-family:-apple-system,&quot;SF Pro Display&quot;,&quot;SF Pro Text&quot;,Helvetica,sans-serif;font-weight:bold;" transform="matrix(1 0 0 1 1289 1953)">Exporting</text>
  <text style="stroke:none;fill:black;font-family:-apple-system,&quot;SF Pro Display&quot;,&quot;SF Pro Text&quot;,Helvetica,sans-serif;" transform="matrix(1 0 0 1 1289 1971)">Symbols should be outlined when exporting to ensure the</text>
  <text style="stroke:none;fill:black;font-family:-apple-system,&quot;SF Pro Display&quot;,&quot;SF Pro Text&quot;,Helvetica,sans-serif;" transform="matrix(1 0 0 1 1289 1989)">design is preserved when submitting to Xcode.</text>
  <text id="template-version" style="stroke:none;fill:black;font-family:-apple-system,&quot;SF Pro Display&quot;,&quot;SF Pro Text&quot;,Helvetica,sans-serif;text-anchor:end;" transform="matrix(1 0 0 1 3036 1933)">Template v.2.0</text>
  <text style="stroke:none;fill:black;font-family:-apple-system,&quot;SF Pro Display&quot;,&quot;SF Pro Text&quot;,Helvetica,sans-serif;text-anchor:end;" transform="matrix(1 0 0 1 3036 1951)">Requires Xcode 12 or greater</text>
  <text style="stroke:none;fill:black;font-family:-apple-system,&quot;SF Pro Display&quot;,&quot;SF Pro Text&quot;,Helvetica,sans-serif;text-anchor:end;" transform="matrix(1 0 0 1 3036 1969)">Generated from figure.wave.circle</text>
  <text style="stroke:none;fill:black;font-family:-apple-system,&quot;SF Pro Display&quot;,&quot;SF Pro Text&quot;,Helvetica,sans-serif;text-anchor:end;" transform="matrix(1 0 0 1 3036 1987)">Typeset at 100 points</text>
  <text style="stroke:none;fill:black;font-family:-apple-system,&quot;SF Pro Display&quot;,&quot;SF Pro Text&quot;,Helvetica,sans-serif;" transform="matrix(1 0 0 1 263 726)">Small</text>
  <text style="stroke:none;fill:black;font-family:-apple-system,&quot;SF Pro Display&quot;,&quot;SF Pro Text&quot;,Helvetica,sans-serif;" transform="matrix(1 0 0 1 263 1156)">Medium</text>
  <text style="stroke:none;fill:black;font-family:-apple-system,&quot;SF Pro Display&quot;,&quot;SF Pro Text&quot;,Helvetica,sans-serif;" transform="matrix(1 0 0 1 263 1586)">Large</text>
 </g>
 <g id="Guides">
  <g id="H-reference" style="fill:#27AAE1;stroke:none;" transform="matrix(1 0 0 1 339 696)">
   <path d="M 0.976562 0 L 3.66211 0 L 12.9883 -24.4629 L 45.7031 -24.4629 L 55.0781 0 L 57.7148 0 L 30.6152 -70.459 L 28.125 -70.459 Z M 29.2969 -67.1387 L 29.3945 -67.1387 L 44.873 -26.709 L 13.8672 -26.709 Z"/>
  </g>
  <line id="Baseline-S" style="fill:none;stroke:#27AAE1;opacity:1;stroke-width:0.5;" x1="263" x2="3036" y1="696" y2="696"/>
  <line id="Capline-S" style="fill:none;stroke:#27AAE1;opacity:1;stroke-width:0.5;" x1="263" x2="3036" y1="625.541" y2="625.541"/>
  <g id="H-reference" style="fill:#27AAE1;stroke:none;" transform="matrix(1 0 0 1 339 1126)">
   <path d="M 0.976562 0 L 3.66211 0 L 12.9883 -24.4629 L 45.7031 -24.4629 L 55.0781 0 L 57.7148 0 L 30.6152 -70.459 L 28.125 -70.459 Z M 29.2969 -67.1387 L 29.3945 -67.1387 L 44.873 -26.709 L 13.8672 -26.709 Z"/>
  </g>
  <line id="Baseline-M" style="fill:none;stroke:#27AAE1;opacity:1;stroke-width:0.5;" x1="263" x2="3036" y1="1126" y2="1126"/>
  <line id="Capline-M" style="fill:none;stroke:#27AAE1;opacity:1;stroke-width:0.5;" x1="263" x2="3036" y1="1055.54" y2="1055.54"/>
  <g id="H-reference" style="fill:#27AAE1;stroke:none;" transform="matrix(1 0 0 1 339 1556)">
   <path d="M 0.976562 0 L 3.66211 0 L 12.9883 -24.4629 L 45.7031 -24.4629 L 55.0781 0 L 57.7148 0 L 30.6152 -70.459 L 28.125 -70.459 Z M 29.2969 -67.1387 L 29.3945 -67.1387 L 44.873 -26.709 L 13.8672 -26.709 Z"/>
  </g>
  <line id="Baseline-L" style="fill:none;stroke:#27AAE1;opacity:1;stroke-width:0.5;" x1="263" x2="3036" y1="1556" y2="1556"/>
  <line id="Capline-L" style="fill:none;stroke:#27AAE1;opacity:1;stroke-width:0.5;" x1="263" x2="3036" y1="1485.54" y2="1485.54"/>
  <line id="left-margin" style="fill:none;stroke:#00AEEF;stroke-width:0.5;opacity:1.0;" x1="1391.3" x2="1391.3" y1="1030.79" y2="1150.12"/>
  <line id="right-margin" style="fill:none;stroke:#00AEEF;stroke-width:0.5;opacity:1.0;" x1="1508.39" x2="1508.39" y1="1030.79" y2="1150.12"/>
 </g>
 <g id="Symbols">
  <g id="Black-L" transform="matrix(1 0 0 1 2854.05 1556)">
   <path d="M 79.3457 32.8613 C 116.748 32.8613 147.412 2.19727 147.412 -35.2051 C 147.412 -72.6074 116.748 -103.271 79.2969 -103.271 C 41.8945 -103.271 11.2793 -72.6074 11.2793 -35.2051 C 11.2793 2.19727 41.9434 32.8613 79.3457 32.8613 Z M 79.3457 12.4023 C 52.9785 12.4023 31.7383 -8.83789 31.7383 -35.2051 C 31.7383 -61.5723 52.9297 -82.8125 79.2969 -82.8125 C 105.664 -82.8125 126.953 -61.5723 126.953 -35.2051 C 127.002 -8.83789 105.713 12.4023 79.3457 12.4023 Z M 73.584 5.07812 C 76.123 5.07812 77.7832 3.41797 77.7832 0.439453 L 77.7832 -22.168 C 77.7832 -23.3887 78.3691 -24.1211 79.3457 -24.1211 C 80.1758 -24.1211 80.8594 -23.3887 80.8594 -22.168 L 80.8594 0.439453 C 80.8594 3.36914 82.5195 5.07812 85.0098 5.07812 C 87.5977 5.07812 89.209 3.41797 89.209 0.439453 L 89.209 -38.7207 C 89.209 -39.7949 89.7949 -40.5762 90.6738 -40.5762 C 91.4551 -40.5762 92.0898 -39.7949 92.0898 -38.7207 L 92.0898 -23.7305 C 92.0898 -21.0938 93.7012 -19.5312 95.9473 -19.5312 C 98.291 -19.5312 99.8535 -21.0938 99.8535 -23.7305 L 99.8535 -38.2812 C 99.8535 -48.7305 93.9941 -52.1973 79.3945 -52.1973 L 74.4141 -52.1973 C 72.0215 -52.1973 70.8984 -52.4414 69.1406 -53.8574 L 64.209 -57.8613 L 63.4766 -69.2871 C 63.3301 -71.9727 61.5234 -73.4375 59.2285 -73.291 C 56.8359 -73.1934 55.2246 -71.4844 55.3711 -68.75 L 56.2012 -56.9336 C 56.3477 -54.541 57.4707 -53.0762 59.375 -51.4648 L 67.9199 -44.4336 C 68.9453 -43.5547 69.4336 -42.7246 69.4336 -41.4062 L 69.4336 0.439453 C 69.4336 3.36914 71.1426 5.07812 73.584 5.07812 Z M 79.3945 -55.4199 C 83.7402 -55.4199 87.4023 -59.082 87.4023 -63.2812 C 87.4023 -67.6758 83.7402 -71.3379 79.3945 -71.3379 C 75 -71.3379 71.5332 -67.6758 71.5332 -63.2812 C 71.5332 -59.0332 75 -55.4199 79.3945 -55.4199 Z"/>
  </g>
  <g id="Heavy-L" transform="matrix(1 0 0 1 2558.39 1556)">
   <path d="M 78.2715 31.7871 C 115.088 31.7871 145.312 1.5625 145.312 -35.2051 C 145.312 -72.0215 115.039 -102.246 78.2715 -102.246 C 41.4551 -102.246 11.2793 -72.0215 11.2793 -35.2051 C 11.2793 1.5625 41.5039 31.7871 78.2715 31.7871 Z M 78.2715 14.0137 C 51.0254 14.0137 29.0527 -7.95898 29.0527 -35.2051 C 29.0527 -62.5 50.9766 -84.4727 78.2715 -84.4727 C 105.518 -84.4727 127.49 -62.5 127.539 -35.2051 C 127.539 -7.95898 105.566 14.0137 78.2715 14.0137 Z M 72.5586 5.61523 C 75.0977 5.61523 76.709 4.00391 76.709 1.07422 L 76.709 -22.4121 C 76.709 -23.6328 77.2949 -24.3652 78.2715 -24.3652 C 79.1504 -24.3652 79.7852 -23.6328 79.7852 -22.4121 L 79.7852 1.07422 C 79.7852 3.95508 81.4453 5.61523 83.9355 5.61523 C 86.4258 5.61523 88.0371 4.00391 88.0371 1.07422 L 88.0371 -39.5996 C 88.0371 -40.7227 88.623 -41.4551 89.502 -41.4551 C 90.2832 -41.4551 90.918 -40.7227 90.918 -39.5996 L 90.918 -23.7305 C 90.918 -21.1426 92.4805 -19.5801 94.7266 -19.5801 C 97.0215 -19.5801 98.5352 -21.1426 98.5352 -23.7305 L 98.5352 -39.0625 C 98.5352 -49.6582 92.627 -53.0273 78.3203 -53.0273 L 73.291 -53.0273 C 70.8984 -53.0273 69.7754 -53.3203 67.9688 -54.7363 L 62.9395 -58.6914 L 62.1582 -70.3613 C 62.0117 -72.998 60.3027 -74.4629 58.0078 -74.3164 C 55.7129 -74.1699 54.1504 -72.5586 54.2969 -69.873 L 55.127 -57.9102 C 55.2734 -55.4688 56.3965 -53.9551 58.252 -52.4414 L 66.8945 -45.5078 C 67.9688 -44.6777 68.457 -43.75 68.457 -42.4316 L 68.457 1.07422 C 68.457 3.95508 70.166 5.61523 72.5586 5.61523 Z M 78.3203 -56.3477 C 82.7148 -56.3477 86.377 -60.0586 86.377 -64.2578 C 86.377 -68.7012 82.7148 -72.3633 78.3203 -72.3633 C 73.9258 -72.3633 70.4102 -68.7012 70.4102 -64.2578 C 70.4102 -60.0098 73.9258 -56.3477 78.3203 -56.3477 Z"/>
  </g>
  <g id="Bold-L" transform="matrix(1 0 0 1 2262.88 1556)">
   <path d="M 77.0996 30.5664 C 113.232 30.5664 142.92 0.878906 142.92 -35.2539 C 142.92 -71.3379 113.184 -101.074 77.0508 -101.074 C 40.9668 -101.074 11.2793 -71.3379 11.2793 -35.2539 C 11.2793 0.878906 41.0156 30.5664 77.0996 30.5664 Z M 77.0996 15.8203 C 48.8281 15.8203 26.0742 -6.98242 26.0742 -35.2539 C 26.0742 -63.5254 48.7793 -86.2793 77.0508 -86.2793 C 105.371 -86.2793 128.125 -63.5254 128.174 -35.2539 C 128.174 -6.98242 105.371 15.8203 77.0996 15.8203 Z M 71.4355 6.20117 C 73.9258 6.20117 75.5371 4.63867 75.5371 1.75781 L 75.5371 -22.6562 C 75.5371 -23.9258 76.0742 -24.6582 77.0996 -24.6582 C 77.9785 -24.6582 78.5645 -23.9258 78.5645 -22.6562 L 78.5645 1.75781 C 78.5645 4.58984 80.2734 6.20117 82.7148 6.20117 C 85.1562 6.20117 86.7676 4.63867 86.7676 1.75781 L 86.7676 -40.625 C 86.7676 -41.6992 87.3535 -42.4316 88.1836 -42.4316 C 89.0137 -42.4316 89.5508 -41.6992 89.5508 -40.625 L 89.5508 -23.6816 C 89.5508 -21.1426 91.1133 -19.6777 93.3594 -19.6777 C 95.5566 -19.6777 97.0215 -21.1426 97.0215 -23.6816 L 97.0215 -39.9902 C 97.0215 -50.6348 91.1133 -53.9551 77.1484 -53.9551 L 72.0703 -53.9551 C 69.6289 -53.9551 68.5547 -54.3457 66.6992 -55.7129 L 61.5234 -59.5703 L 60.6934 -71.5332 C 60.5469 -74.1699 58.8867 -75.5371 56.6895 -75.3906 C 54.4434 -75.293 52.9297 -73.7305 53.125 -71.0938 L 53.9062 -58.9844 C 54.0527 -56.4941 55.2246 -54.9316 57.0312 -53.5156 L 65.7715 -46.7285 C 66.8945 -45.8496 67.334 -44.9219 67.334 -43.5547 L 67.334 1.75781 C 67.334 4.58984 69.043 6.20117 71.4355 6.20117 Z M 77.1484 -57.4219 C 81.5918 -57.4219 85.2539 -61.1328 85.2539 -65.3809 C 85.2539 -69.8242 81.5918 -73.4863 77.1484 -73.4863 C 72.7051 -73.4863 69.1895 -69.8242 69.1895 -65.3809 C 69.1895 -61.1328 72.7051 -57.4219 77.1484 -57.4219 Z"/>
  </g>
  <g id="Semibold-L" transform="matrix(1 0 0 1 1966.97 1556)">
   <path d="M 76.2695 29.7363 C 111.914 29.7363 141.309 0.390625 141.309 -35.2539 C 141.309 -70.8984 111.865 -100.244 76.2695 -100.244 C 40.625 -100.244 11.2793 -70.8984 11.2793 -35.2539 C 11.2793 0.390625 40.6738 29.7363 76.2695 29.7363 Z M 76.2695 17.041 C 47.3145 17.041 24.0234 -6.25 24.0234 -35.2539 C 24.0234 -64.209 47.2656 -87.5488 76.2695 -87.5488 C 105.225 -87.5488 128.564 -64.209 128.613 -35.2539 C 128.662 -6.25 105.273 17.041 76.2695 17.041 Z M 70.6543 6.5918 C 73.0957 6.5918 74.707 5.07812 74.707 2.19727 L 74.707 -22.8516 C 74.707 -24.1211 75.2441 -24.8535 76.2695 -24.8535 C 77.1973 -24.8535 77.7832 -24.1699 77.7832 -22.8516 L 77.7832 2.19727 C 77.7832 5.0293 79.4434 6.5918 81.8848 6.5918 C 84.2773 6.5918 85.8398 5.07812 85.8398 2.19727 L 85.8398 -41.3086 C 85.8398 -42.3828 86.4258 -43.0664 87.2559 -43.0664 C 88.0859 -43.0664 88.6719 -42.3828 88.6719 -41.3086 L 88.6719 -23.6816 C 88.6719 -21.1914 90.1855 -19.7266 92.3828 -19.7266 C 94.5312 -19.7266 95.9961 -21.1914 95.9961 -23.6816 L 95.9961 -40.625 C 95.9961 -51.3184 90.0879 -54.5898 76.3672 -54.5898 L 71.2402 -54.5898 C 68.75 -54.5898 67.6758 -55.0293 65.8203 -56.3477 L 60.5469 -60.2051 L 59.7168 -72.3633 C 59.5703 -74.9512 57.959 -76.3184 55.7617 -76.1719 C 53.5645 -76.0254 52.0996 -74.5117 52.2949 -71.9238 L 53.0762 -59.7656 C 53.2227 -57.1777 54.3945 -55.6152 56.2012 -54.248 L 64.9902 -47.5586 C 66.1133 -46.6797 66.6016 -45.7031 66.6016 -44.2871 L 66.6016 2.19727 C 66.6016 5.0293 68.3105 6.5918 70.6543 6.5918 Z M 76.3672 -58.1543 C 80.8105 -58.1543 84.4238 -61.8652 84.4238 -66.1133 C 84.4238 -70.6543 80.8105 -74.2676 76.3672 -74.2676 C 71.875 -74.2676 68.3594 -70.6543 68.3594 -66.1133 C 68.3594 -61.8652 71.875 -58.1543 76.3672 -58.1543 Z"/>
  </g>
  <g id="Medium-L" transform="matrix(1 0 0 1 1670.87 1556)">
   <path d="M 75.6836 29.1504 C 110.938 29.1504 140.088 0 140.088 -35.2539 C 140.088 -70.5078 110.889 -99.6582 75.6348 -99.6582 C 40.3809 -99.6582 11.2793 -70.5078 11.2793 -35.2539 C 11.2793 0 40.3809 29.1504 75.6836 29.1504 Z M 75.6836 18.0176 C 46.1426 18.0176 22.4609 -5.76172 22.4609 -35.2539 C 22.4609 -64.7461 46.1426 -88.5254 75.6348 -88.5254 C 105.127 -88.5254 128.906 -64.7461 128.906 -35.2539 C 128.955 -5.76172 105.176 18.0176 75.6836 18.0176 Z M 70.0684 6.88477 C 72.5098 6.88477 74.0723 5.37109 74.0723 2.58789 L 74.0723 -22.998 C 74.0723 -24.2676 74.6094 -25 75.6348 -25 C 76.5625 -25 77.1484 -24.3164 77.1484 -22.998 L 77.1484 2.58789 C 77.1484 5.37109 78.8086 6.88477 81.25 6.88477 C 83.5938 6.88477 85.1562 5.37109 85.1562 2.58789 L 85.1562 -41.8457 C 85.1562 -42.8711 85.791 -43.6035 86.5723 -43.6035 C 87.4023 -43.6035 87.9395 -42.9199 87.9395 -41.8457 L 87.9395 -23.6816 C 87.9395 -21.1914 89.502 -19.7754 91.6504 -19.7754 C 93.7988 -19.7754 95.2637 -21.1914 95.2637 -23.6816 L 95.2637 -41.1133 C 95.2637 -51.8555 89.3066 -55.0781 75.7324 -55.0781 L 70.5566 -55.0781 C 68.0664 -55.0781 66.9922 -55.5664 65.1367 -56.8848 L 59.8145 -60.6934 L 58.9355 -72.998 C 58.7891 -75.5859 57.2266 -76.9043 55.0781 -76.7578 C 52.8809 -76.6113 51.5137 -75.1465 51.6602 -72.5586 L 52.4414 -60.3027 C 52.6367 -57.7148 53.7598 -56.1035 55.5664 -54.7852 L 64.3555 -48.1934 C 65.5273 -47.3145 66.0156 -46.3379 66.0156 -44.873 L 66.0156 2.58789 C 66.0156 5.37109 67.7246 6.88477 70.0684 6.88477 Z M 75.7324 -58.7402 C 80.2246 -58.7402 83.8379 -62.4023 83.8379 -66.6992 C 83.8379 -71.2402 80.2246 -74.8535 75.7324 -74.8535 C 71.2402 -74.8535 67.7246 -71.2402 67.7246 -66.6992 C 67.7246 -62.4512 71.2402 -58.7402 75.7324 -58.7402 Z"/>
  </g>
  <g id="Regular-L" transform="matrix(1 0 0 1 1374.97 1556)">
   <path d="M 74.8535 28.3203 C 109.668 28.3203 138.477 -0.488281 138.477 -35.2539 C 138.477 -70.0684 109.619 -98.877 74.8047 -98.877 C 40.0391 -98.877 11.2793 -70.0684 11.2793 -35.2539 C 11.2793 -0.488281 40.0879 28.3203 74.8535 28.3203 Z M 74.8535 19.2383 C 44.6777 19.2383 20.4102 -5.07812 20.4102 -35.2539 C 20.4102 -65.4785 44.6289 -89.7461 74.8047 -89.7461 C 105.029 -89.7461 129.297 -65.4785 129.346 -35.2539 C 129.395 -5.07812 105.078 19.2383 74.8535 19.2383 Z M 69.3359 7.27539 C 71.6797 7.27539 73.2422 5.81055 73.2422 3.02734 L 73.2422 -23.1934 C 73.2422 -24.4629 73.7793 -25.1953 74.8535 -25.1953 C 75.7812 -25.1953 76.3184 -24.5117 76.3184 -23.1934 L 76.3184 3.02734 C 76.3184 5.81055 78.0273 7.27539 80.4199 7.27539 C 82.7637 7.27539 84.2773 5.81055 84.2773 3.02734 L 84.2773 -42.5293 C 84.2773 -43.5547 84.8633 -44.2383 85.6934 -44.2383 C 86.5234 -44.2383 87.0605 -43.6035 87.0605 -42.5293 L 87.0605 -23.6816 C 87.0605 -21.2402 88.5742 -19.8242 90.7227 -19.8242 C 92.8223 -19.8242 94.2383 -21.2402 94.2383 -23.6816 L 94.2383 -41.6992 C 94.2383 -52.5391 88.2812 -55.7617 74.9512 -55.7617 L 69.7266 -55.7617 C 67.2363 -55.7617 66.1621 -56.2012 64.2578 -57.5195 L 58.8379 -61.2793 L 57.959 -73.8281 C 57.8125 -76.3672 56.2988 -77.6367 54.1504 -77.5391 C 52.0508 -77.3438 50.6836 -75.9277 50.8301 -73.3887 L 51.6602 -61.0352 C 51.8066 -58.4473 52.9297 -56.7871 54.7363 -55.5176 L 63.5742 -49.0234 C 64.7949 -48.1445 65.2832 -47.1191 65.2832 -45.6543 L 65.2832 3.02734 C 65.2832 5.81055 66.9922 7.27539 69.3359 7.27539 Z M 74.9512 -59.4238 C 79.4434 -59.4238 83.0566 -63.1348 83.0566 -67.4805 C 83.0566 -72.0215 79.4434 -75.5859 74.9512 -75.5859 C 70.4102 -75.5859 66.8945 -72.0215 66.8945 -67.4805 C 66.8945 -63.1836 70.4102 -59.4238 74.9512 -59.4238 Z"/>
  </g>
  <g id="Light-L" transform="matrix(1 0 0 1 1079.18 1556)">
   <path d="M 73.9258 27.3926 C 108.301 27.3926 136.621 -0.927734 136.621 -35.2539 C 136.621 -69.6289 108.252 -97.9492 73.9258 -97.9492 C 39.5508 -97.9492 11.2793 -69.6289 11.2793 -35.2539 C 11.2793 -0.927734 39.5996 27.3926 73.9258 27.3926 Z M 73.9258 20.5078 C 43.1152 20.5078 18.2129 -4.44336 18.2129 -35.2539 C 18.2129 -66.1133 43.0664 -91.0156 73.9258 -91.0156 C 104.736 -91.0156 129.688 -66.1133 129.736 -35.2539 C 129.736 -4.44336 104.785 20.5078 73.9258 20.5078 Z M 68.75 7.03125 C 70.9961 7.03125 72.4121 5.56641 72.4121 2.97852 L 72.4121 -23.7793 C 72.4121 -25 72.9492 -25.7324 73.9258 -25.7324 C 74.8535 -25.7324 75.3418 -25.0488 75.3418 -23.7793 L 75.3418 2.97852 C 75.3418 5.51758 76.9531 7.03125 79.1992 7.03125 C 81.3965 7.03125 82.8125 5.56641 82.8125 2.97852 L 82.8125 -43.3105 C 82.8125 -44.3359 83.4473 -45.0195 84.2285 -45.0195 C 85.1074 -45.0195 85.5957 -44.3848 85.5957 -43.3105 L 85.5957 -23.877 C 85.5957 -21.582 86.9629 -20.2637 89.0137 -20.2637 C 90.918 -20.2637 92.2363 -21.582 92.2363 -23.877 L 92.2363 -42.7246 C 92.2363 -52.9785 86.8164 -56.2988 74.0723 -56.2988 L 68.9941 -56.2988 C 66.6016 -56.2988 65.6738 -56.7871 63.916 -57.959 L 58.4961 -61.6699 L 57.6172 -74.1699 C 57.4219 -76.5137 56.0547 -77.7344 54.1016 -77.6367 C 52.0996 -77.4414 50.8301 -76.0742 50.9766 -73.7305 L 51.8066 -61.7676 C 51.9531 -59.2285 52.9785 -57.5684 54.7363 -56.3477 L 63.2812 -50.1465 C 64.4531 -49.3164 64.9414 -48.1934 64.9414 -46.6797 L 64.9414 2.97852 C 64.9414 5.51758 66.5039 7.03125 68.75 7.03125 Z M 74.0723 -60.0098 C 78.5156 -60.0098 82.0312 -63.623 82.0312 -67.9199 C 82.0312 -72.3633 78.5645 -75.9277 74.0723 -75.9277 C 69.6777 -75.9277 66.1133 -72.3633 66.1133 -67.9199 C 66.1133 -63.6719 69.6777 -60.0098 74.0723 -60.0098 Z"/>
  </g>
  <g id="Thin-L" transform="matrix(1 0 0 1 783.693 1556)">
   <path d="M 72.7051 26.1719 C 106.494 26.1719 134.18 -1.51367 134.18 -35.2539 C 134.18 -69.043 106.494 -96.7285 72.7051 -96.7285 C 38.9648 -96.7285 11.2793 -69.043 11.2793 -35.2539 C 11.2793 -1.51367 38.9648 26.1719 72.7051 26.1719 Z M 72.7051 22.168 C 41.0156 22.168 15.2832 -3.56445 15.2832 -35.2539 C 15.2832 -66.9922 41.0156 -92.7246 72.7051 -92.7246 C 104.395 -92.7246 130.176 -66.9922 130.176 -35.2539 C 130.176 -3.56445 104.443 22.168 72.7051 22.168 Z M 68.0176 6.64062 C 70.0684 6.64062 71.2891 5.27344 71.2891 2.92969 L 71.2891 -24.6094 C 71.2891 -25.6836 71.875 -26.416 72.7051 -26.416 C 73.584 -26.416 74.0723 -25.7324 74.0723 -24.6094 L 74.0723 2.92969 C 74.0723 5.17578 75.4883 6.64062 77.6367 6.64062 C 79.5898 6.64062 80.9082 5.27344 80.9082 2.92969 L 80.9082 -44.3359 C 80.9082 -45.3613 81.4941 -46.0938 82.2754 -46.0938 C 83.1543 -46.0938 83.6426 -45.459 83.6426 -44.3359 L 83.6426 -24.1211 C 83.6426 -22.0215 84.8633 -20.8008 86.7188 -20.8008 C 88.4766 -20.8008 89.6484 -22.0215 89.6484 -24.1211 L 89.6484 -44.0918 C 89.6484 -53.5156 84.8633 -57.0312 72.9004 -57.0312 L 67.9688 -57.0312 C 65.7715 -57.0312 64.9902 -57.5195 63.4277 -58.5938 L 58.1055 -62.1582 L 57.1289 -74.5605 C 56.9824 -76.709 55.8105 -77.8809 54.0039 -77.7832 C 52.1973 -77.5879 51.0254 -76.3184 51.1719 -74.2188 L 52.002 -62.6953 C 52.1484 -60.3027 52.9785 -58.6426 54.7363 -57.4219 L 62.8906 -51.6113 C 63.9648 -50.8789 64.4531 -49.6582 64.4531 -48.0957 L 64.4531 2.92969 C 64.4531 5.17578 65.8691 6.64062 68.0176 6.64062 Z M 72.9004 -60.7422 C 77.2949 -60.7422 80.7129 -64.209 80.7129 -68.5059 C 80.7129 -72.8516 77.3438 -76.3184 72.9004 -76.3184 C 68.6523 -76.3184 65.1367 -72.8516 65.1367 -68.5059 C 65.1367 -64.3066 68.6523 -60.7422 72.9004 -60.7422 Z"/>
  </g>
  <g id="Ultralight-L" transform="matrix(1 0 0 1 487.616 1556)">
   <path d="M 72.1191 25.5371 C 105.566 25.5371 132.91 -1.80664 132.91 -35.2539 C 132.91 -68.75 105.566 -96.0938 72.1191 -96.0938 C 38.623 -96.0938 11.2793 -68.75 11.2793 -35.2539 C 11.2793 -1.80664 38.623 25.5371 72.1191 25.5371 Z M 72.1191 23.0469 C 39.9414 23.0469 13.7695 -3.125 13.7695 -35.2539 C 13.7695 -67.4316 39.9414 -93.6035 72.1191 -93.6035 C 104.248 -93.6035 130.42 -67.4316 130.42 -35.2539 C 130.42 -3.125 104.248 23.0469 72.1191 23.0469 Z M 67.627 6.44531 C 69.5801 6.44531 70.752 5.12695 70.752 2.92969 L 70.752 -25 C 70.752 -26.0254 71.2891 -26.7578 72.0703 -26.7578 C 72.9492 -26.7578 73.4375 -26.123 73.4375 -25 L 73.4375 2.92969 C 73.4375 5.0293 74.7559 6.44531 76.8066 6.44531 C 78.7109 6.44531 79.9316 5.12695 79.9316 2.92969 L 79.9316 -44.873 C 79.9316 -45.8984 80.5176 -46.6309 81.2988 -46.6309 C 82.1777 -46.6309 82.666 -45.9961 82.666 -44.873 L 82.666 -24.2188 C 82.666 -22.2656 83.7402 -21.0938 85.5469 -21.0938 C 87.207 -21.0938 88.2812 -22.2656 88.2812 -24.2188 L 88.2812 -44.7754 C 88.2812 -53.8086 83.8867 -57.4219 72.3145 -57.4219 L 67.4805 -57.4219 C 65.332 -57.4219 64.6484 -57.9102 63.1836 -58.8867 L 57.8613 -62.4023 L 56.8848 -74.7559 C 56.7383 -76.8066 55.6641 -77.9297 53.9551 -77.832 C 52.1973 -77.6855 51.123 -76.416 51.2695 -74.4629 L 52.0996 -63.1836 C 52.2461 -60.8887 52.9785 -59.1797 54.7852 -57.959 L 62.6953 -52.3438 C 63.7207 -51.6602 64.209 -50.4395 64.209 -48.7793 L 64.209 2.92969 C 64.209 5.0293 65.5273 6.44531 67.627 6.44531 Z M 72.3145 -61.084 C 76.6602 -61.084 80.0293 -64.5508 80.0293 -68.7988 C 80.0293 -73.0957 76.7578 -76.5625 72.3145 -76.5625 C 68.1152 -76.5625 64.6484 -73.0957 64.6484 -68.7988 C 64.6484 -64.5996 68.1152 -61.084 72.3145 -61.084 Z"/>
  </g>
  <g id="Black-M" transform="matrix(1 0 0 1 2870.97 1126)">
   <path d="M 62.4023 18.457 C 91.9922 18.457 116.113 -5.61523 116.113 -35.2051 C 116.113 -64.7949 91.9922 -88.8672 62.4023 -88.8672 C 32.8125 -88.8672 8.74023 -64.7949 8.74023 -35.2051 C 8.74023 -5.61523 32.8125 18.457 62.4023 18.457 Z M 62.4023 0.195312 C 42.8711 0.195312 27.002 -15.625 27.002 -35.2051 C 27.002 -54.7363 42.8711 -70.6055 62.4023 -70.6055 C 81.9824 -70.6055 97.8027 -54.7363 97.8027 -35.2051 C 97.8027 -15.625 81.9824 0.195312 62.4023 0.195312 Z M 58.0566 -4.83398 C 60.0098 -4.83398 61.2793 -6.15234 61.2793 -8.39844 L 61.2793 -25.0977 C 61.2793 -25.9766 61.7188 -26.5137 62.4023 -26.5137 C 62.9883 -26.5137 63.5742 -25.9766 63.5742 -25.0977 L 63.5742 -8.39844 C 63.5742 -6.25 64.7461 -4.83398 66.6992 -4.83398 C 68.6523 -4.83398 69.9219 -6.15234 69.9219 -8.39844 L 69.9219 -37.1094 C 69.9219 -37.9883 70.3613 -38.623 71.0449 -38.623 C 71.6797 -38.623 72.168 -37.9883 72.168 -37.1094 L 72.168 -26.416 C 72.168 -24.4141 73.3398 -23.1934 75.0977 -23.1934 C 76.9043 -23.1934 78.0762 -24.4141 78.0762 -26.416 L 78.0762 -37.0117 C 78.0762 -44.7266 73.877 -47.5098 62.4512 -47.5098 L 58.7402 -47.5098 C 56.9824 -47.5098 56.2012 -47.6562 54.8828 -48.7793 L 51.2695 -51.9043 L 50.7324 -60.3516 C 50.5859 -62.4023 49.2188 -63.5742 47.4121 -63.4277 C 45.5566 -63.3789 44.2871 -62.0117 44.4336 -59.9609 L 45.0684 -51.123 C 45.166 -49.4141 45.9961 -48.291 47.4609 -46.9727 L 53.8086 -41.5039 C 54.541 -40.8691 54.9316 -40.2344 54.9316 -39.2578 L 54.9316 -8.39844 C 54.9316 -6.25 56.1523 -4.83398 58.0566 -4.83398 Z M 62.4512 -49.9023 C 65.7715 -49.9023 68.5547 -52.6855 68.5547 -55.8594 C 68.5547 -59.2285 65.7715 -62.0117 62.4512 -62.0117 C 59.1797 -62.0117 56.4941 -59.2285 56.4941 -55.8594 C 56.4941 -52.6367 59.1797 -49.9023 62.4512 -49.9023 Z"/>
  </g>
  <g id="Heavy-M" transform="matrix(1 0 0 1 2575.19 1126)">
   <path d="M 61.5234 17.5293 C 90.5273 17.5293 114.258 -6.20117 114.258 -35.2051 C 114.258 -64.2578 90.5273 -87.9883 61.4746 -87.9883 C 32.4707 -87.9883 8.74023 -64.2578 8.74023 -35.2051 C 8.74023 -6.20117 32.4707 17.5293 61.5234 17.5293 Z M 61.5234 1.61133 C 41.1133 1.61133 24.6582 -14.8438 24.6582 -35.2051 C 24.6582 -55.6152 41.1133 -72.0703 61.4746 -72.0703 C 81.8848 -72.0703 98.3398 -55.6152 98.3398 -35.2051 C 98.3398 -14.8438 81.8848 1.61133 61.5234 1.61133 Z M 57.0801 -4.19922 C 59.082 -4.19922 60.3027 -5.46875 60.3027 -7.71484 L 60.3027 -25.1953 C 60.3027 -26.123 60.7422 -26.6602 61.4746 -26.6602 C 62.1094 -26.6602 62.6465 -26.123 62.6465 -25.1953 L 62.6465 -7.71484 C 62.6465 -5.51758 63.8672 -4.19922 65.8203 -4.19922 C 67.7734 -4.19922 69.043 -5.46875 69.043 -7.71484 L 69.043 -37.8906 C 69.043 -38.7695 69.4824 -39.3555 70.1172 -39.3555 C 70.752 -39.3555 71.2402 -38.7695 71.2402 -37.8906 L 71.2402 -26.3672 C 71.2402 -24.3652 72.4609 -23.1445 74.1699 -23.1445 C 75.9766 -23.1445 77.1484 -24.3652 77.1484 -26.3672 L 77.1484 -37.6465 C 77.1484 -45.6055 72.7539 -48.291 61.5234 -48.291 L 57.7148 -48.291 C 55.9082 -48.291 55.0781 -48.4863 53.7109 -49.6094 L 50 -52.6855 L 49.4141 -61.4258 C 49.2676 -63.4766 47.9492 -64.6484 46.1426 -64.502 C 44.2871 -64.4531 43.0664 -63.1348 43.2129 -61.0352 L 43.8477 -52.002 C 43.9453 -50.1953 44.8242 -49.0234 46.2891 -47.8027 L 52.7832 -42.3828 C 53.5645 -41.748 53.9551 -41.0645 53.9551 -40.0391 L 53.9551 -7.71484 C 53.9551 -5.51758 55.2246 -4.19922 57.0801 -4.19922 Z M 61.5234 -50.7812 C 64.8926 -50.7812 67.6758 -53.6133 67.6758 -56.8359 C 67.6758 -60.2539 64.8926 -63.0371 61.5234 -63.0371 C 58.1543 -63.0371 55.4688 -60.2539 55.4688 -56.8359 C 55.4688 -53.5645 58.1543 -50.7812 61.5234 -50.7812 Z"/>
  </g>
  <g id="Bold-M" transform="matrix(1 0 0 1 2279.5 1126)">
   <path d="M 60.498 16.5039 C 88.8672 16.5039 112.207 -6.83594 112.207 -35.2051 C 112.207 -63.623 88.8672 -86.9629 60.4492 -86.9629 C 32.0312 -86.9629 8.74023 -63.623 8.74023 -35.2051 C 8.74023 -6.83594 32.0801 16.5039 60.498 16.5039 Z M 60.498 3.22266 C 39.1602 3.22266 22.0703 -13.916 22.0703 -35.2051 C 22.0703 -56.543 39.1602 -73.6816 60.4492 -73.6816 C 81.7383 -73.6816 98.9258 -56.543 98.9258 -35.2051 C 98.9746 -13.916 81.7871 3.22266 60.498 3.22266 Z M 56.0547 -3.4668 C 57.959 -3.4668 59.2285 -4.73633 59.2285 -6.98242 L 59.2285 -25.3418 C 59.2285 -26.2695 59.668 -26.8555 60.4492 -26.8555 C 61.1328 -26.8555 61.6211 -26.2695 61.6211 -25.3418 L 61.6211 -6.98242 C 61.6211 -4.73633 62.8906 -3.4668 64.8438 -3.4668 C 66.748 -3.4668 68.0176 -4.73633 68.0176 -6.98242 L 68.0176 -38.7695 C 68.0176 -39.6484 68.457 -40.1855 69.1406 -40.1855 C 69.7754 -40.1855 70.2148 -39.6484 70.2148 -38.7695 L 70.2148 -26.3184 C 70.2148 -24.3164 71.4355 -23.0957 73.1934 -23.0957 C 74.9512 -23.0957 76.123 -24.3164 76.123 -26.3184 L 76.123 -38.3301 C 76.123 -46.582 71.5332 -49.1699 60.498 -49.1699 L 56.5918 -49.1699 C 54.6875 -49.1699 53.8574 -49.4141 52.4414 -50.4883 L 48.5352 -53.5645 L 47.9004 -62.6465 C 47.8027 -64.6973 46.4844 -65.8203 44.7266 -65.6738 C 42.9199 -65.625 41.748 -64.3555 41.8457 -62.2559 L 42.4805 -52.9785 C 42.627 -51.0742 43.5059 -49.9023 44.9219 -48.7305 L 51.6113 -43.4082 C 52.4902 -42.7246 52.832 -42.041 52.832 -40.9668 L 52.832 -6.98242 C 52.832 -4.73633 54.1504 -3.4668 56.0547 -3.4668 Z M 60.498 -51.8066 C 63.916 -51.8066 66.748 -54.6387 66.748 -57.9102 C 66.748 -61.377 63.916 -64.1602 60.498 -64.1602 C 57.0801 -64.1602 54.3457 -61.377 54.3457 -57.9102 C 54.3457 -54.6387 57.0801 -51.8066 60.498 -51.8066 Z"/>
  </g>
  <g id="Semibold-M" transform="matrix(1 0 0 1 1983.5 1126)">
   <path d="M 59.7656 15.8203 C 87.7441 15.8203 110.791 -7.27539 110.791 -35.2539 C 110.791 -63.2324 87.6953 -86.2793 59.7656 -86.2793 C 31.7871 -86.2793 8.74023 -63.2324 8.74023 -35.2539 C 8.74023 -7.27539 31.7871 15.8203 59.7656 15.8203 Z M 59.7656 4.3457 C 37.8418 4.3457 20.2637 -13.3301 20.2637 -35.2539 C 20.2637 -57.1777 37.793 -74.8047 59.7656 -74.8047 C 81.6895 -74.8047 99.3164 -57.1777 99.3652 -35.2539 C 99.3652 -13.3301 81.6895 4.3457 59.7656 4.3457 Z M 55.3223 -2.97852 C 57.2266 -2.97852 58.4961 -4.19922 58.4961 -6.44531 L 58.4961 -25.3906 C 58.4961 -26.416 58.9355 -26.9531 59.7656 -26.9531 C 60.4492 -26.9531 60.8887 -26.416 60.8887 -25.3906 L 60.8887 -6.44531 C 60.8887 -4.24805 62.2559 -2.97852 64.1602 -2.97852 C 66.0645 -2.97852 67.334 -4.19922 67.334 -6.44531 L 67.334 -39.4043 C 67.334 -40.2344 67.7734 -40.7715 68.457 -40.7715 C 69.043 -40.7715 69.5312 -40.2344 69.5312 -39.4043 L 69.5312 -26.2695 C 69.5312 -24.2676 70.752 -23.0957 72.4609 -23.0957 C 74.2188 -23.0957 75.3906 -24.2676 75.3906 -26.2695 L 75.3906 -38.8184 C 75.3906 -47.2168 70.7031 -49.7559 59.8145 -49.7559 L 55.8105 -49.7559 C 53.8574 -49.7559 53.0273 -50.0488 51.5625 -51.123 L 47.5098 -54.1504 L 46.875 -63.4766 C 46.7773 -65.5762 45.459 -66.6504 43.7012 -66.5039 C 41.9434 -66.4062 40.8203 -65.1855 40.918 -63.0859 L 41.5527 -53.6621 C 41.6504 -51.6602 42.5781 -50.4883 43.9941 -49.3652 L 50.8301 -44.0918 C 51.709 -43.4082 52.0996 -42.6758 52.0996 -41.6016 L 52.0996 -6.44531 C 52.0996 -4.24805 53.418 -2.97852 55.3223 -2.97852 Z M 59.8145 -52.4902 C 63.2324 -52.4902 66.0645 -55.3711 66.0645 -58.6426 C 66.0645 -62.1582 63.2324 -64.9902 59.8145 -64.9902 C 56.3477 -64.9902 53.5645 -62.1582 53.5645 -58.6426 C 53.5645 -55.3223 56.3477 -52.4902 59.8145 -52.4902 Z"/>
  </g>
  <g id="Medium-M" transform="matrix(1 0 0 1 1687.3 1126)">
   <path d="M 59.2285 15.2344 C 86.9141 15.2344 109.766 -7.61719 109.766 -35.2539 C 109.766 -62.8906 86.8652 -85.7422 59.1797 -85.7422 C 31.543 -85.7422 8.74023 -62.8906 8.74023 -35.2539 C 8.74023 -7.61719 31.5918 15.2344 59.2285 15.2344 Z M 59.2285 5.17578 C 36.8164 5.17578 18.8965 -12.8418 18.8965 -35.2539 C 18.8965 -57.666 36.8164 -75.6348 59.1797 -75.6348 C 81.5918 -75.6348 99.6094 -57.666 99.6582 -35.2539 C 99.707 -12.8418 81.6406 5.17578 59.2285 5.17578 Z M 54.7363 -2.58789 C 56.6895 -2.58789 57.959 -3.80859 57.959 -6.05469 L 57.959 -25.4883 C 57.959 -26.4648 58.3984 -27.0508 59.2285 -27.0508 C 59.9121 -27.0508 60.3516 -26.5137 60.3516 -25.4883 L 60.3516 -6.05469 C 60.3516 -3.80859 61.7188 -2.58789 63.623 -2.58789 C 65.5762 -2.58789 66.7969 -3.80859 66.7969 -6.05469 L 66.7969 -39.8438 C 66.7969 -40.6738 67.2852 -41.2109 67.9199 -41.2109 C 68.5547 -41.2109 68.9941 -40.6738 68.9941 -39.8438 L 68.9941 -26.2207 C 68.9941 -24.2188 70.2148 -23.0469 71.9727 -23.0469 C 73.6816 -23.0469 74.8535 -24.2188 74.8535 -26.2207 L 74.8535 -39.209 C 74.8535 -47.7539 70.0684 -50.2441 59.2773 -50.2441 L 55.2246 -50.2441 C 53.2715 -50.2441 52.3438 -50.5371 50.8789 -51.6113 L 46.7285 -54.6387 L 46.0938 -64.1113 C 45.9961 -66.2109 44.6777 -67.2363 42.9688 -67.1387 C 41.2109 -67.041 40.0879 -65.8203 40.2344 -63.7207 L 40.8203 -54.1992 C 40.9668 -52.1484 41.8945 -50.9277 43.3105 -49.8535 L 50.2441 -44.6289 C 51.123 -43.8965 51.5137 -43.1641 51.5137 -42.0898 L 51.5137 -6.05469 C 51.5137 -3.80859 52.8809 -2.58789 54.7363 -2.58789 Z M 59.2773 -52.9785 C 62.7441 -52.9785 65.5762 -55.9082 65.5762 -59.2285 C 65.5762 -62.7441 62.7441 -65.5762 59.2773 -65.5762 C 55.7617 -65.5762 52.9785 -62.7441 52.9785 -59.2285 C 52.9785 -55.9082 55.7617 -52.9785 59.2773 -52.9785 Z"/>
  </g>
  <g id="Regular-M" transform="matrix(1 0 0 1 1391.3 1126)">
   <path d="M 58.5449 14.5508 C 85.791 14.5508 108.35 -8.05664 108.35 -35.2539 C 108.35 -62.5 85.7422 -85.0586 58.4961 -85.0586 C 31.2988 -85.0586 8.74023 -62.5 8.74023 -35.2539 C 8.74023 -8.05664 31.3477 14.5508 58.5449 14.5508 Z M 58.5449 6.25 C 35.498 6.25 17.0898 -12.207 17.0898 -35.2539 C 17.0898 -58.3008 35.4492 -76.7578 58.4961 -76.7578 C 81.543 -76.7578 100 -58.3008 100.049 -35.2539 C 100.098 -12.207 81.5918 6.25 58.5449 6.25 Z M 54.0527 -2.09961 C 55.9082 -2.09961 57.2266 -3.27148 57.2266 -5.56641 L 57.2266 -25.5371 C 57.2266 -26.6113 57.666 -27.1484 58.4961 -27.1484 C 59.2285 -27.1484 59.668 -26.6113 59.668 -25.5371 L 59.668 -5.56641 C 59.668 -3.27148 61.084 -2.09961 62.9883 -2.09961 C 64.8438 -2.09961 66.1133 -3.27148 66.1133 -5.56641 L 66.1133 -40.4297 C 66.1133 -41.2598 66.6016 -41.748 67.2363 -41.748 C 67.8711 -41.748 68.2617 -41.2598 68.2617 -40.4297 L 68.2617 -26.1719 C 68.2617 -24.1699 69.5312 -23.0469 71.2891 -23.0469 C 72.9492 -23.0469 74.1211 -24.1699 74.1211 -26.1719 L 74.1211 -39.6973 C 74.1211 -48.3887 69.1895 -50.8301 58.5449 -50.8301 L 54.4434 -50.8301 C 52.4414 -50.8301 51.5137 -51.1719 50 -52.2461 L 45.752 -55.2246 L 45.1172 -64.9902 C 44.9707 -67.041 43.7012 -68.0664 41.9922 -67.9199 C 40.2832 -67.8223 39.1602 -66.6504 39.3066 -64.5508 L 39.8926 -54.834 C 40.0391 -52.7344 41.0156 -51.4648 42.3828 -50.4883 L 49.4141 -45.3125 C 50.3906 -44.5801 50.7812 -43.7988 50.7812 -42.7246 L 50.7812 -5.56641 C 50.7812 -3.27148 52.1484 -2.09961 54.0527 -2.09961 Z M 58.5449 -53.6621 C 62.0605 -53.6621 64.9414 -56.5918 64.9414 -59.9609 C 64.9414 -63.5254 62.0605 -66.3574 58.5449 -66.3574 C 54.9805 -66.3574 52.2461 -63.5254 52.2461 -59.9609 C 52.2461 -56.5918 54.9805 -53.6621 58.5449 -53.6621 Z"/>
  </g>
  <g id="Light-M" transform="matrix(1 0 0 1 1095.42 1126)">
   <path d="M 57.7148 13.7207 C 84.5215 13.7207 106.689 -8.44727 106.689 -35.2539 C 106.689 -62.1094 84.5215 -84.2285 57.666 -84.2285 C 30.8594 -84.2285 8.74023 -62.1094 8.74023 -35.2539 C 8.74023 -8.44727 30.9082 13.7207 57.7148 13.7207 Z M 57.7148 7.37305 C 34.082 7.37305 15.0879 -11.6699 15.0879 -35.2539 C 15.0879 -58.8867 34.082 -77.9297 57.666 -77.9297 C 81.2988 -77.9297 100.342 -58.8867 100.391 -35.2539 C 100.391 -11.6699 81.3477 7.37305 57.7148 7.37305 Z M 53.5156 -2.39258 C 55.3223 -2.39258 56.4453 -3.51562 56.4453 -5.61523 L 56.4453 -26.0742 C 56.4453 -27.0508 56.8848 -27.6367 57.666 -27.6367 C 58.3984 -27.6367 58.7891 -27.0996 58.7891 -26.0742 L 58.7891 -5.61523 C 58.7891 -3.51562 60.1074 -2.39258 61.9141 -2.39258 C 63.6719 -2.39258 64.8438 -3.51562 64.8438 -5.61523 L 64.8438 -41.1133 C 64.8438 -41.9434 65.2832 -42.4805 65.918 -42.4805 C 66.5527 -42.4805 66.9922 -41.9922 66.9922 -41.1133 L 66.9922 -26.3184 C 66.9922 -24.5117 68.1152 -23.4375 69.7266 -23.4375 C 71.2891 -23.4375 72.3633 -24.5117 72.3633 -26.3184 L 72.3633 -40.5762 C 72.3633 -48.7793 67.9199 -51.3184 57.7637 -51.3184 L 53.7598 -51.3184 C 51.8555 -51.3184 51.0742 -51.6602 49.6582 -52.6367 L 45.459 -55.5664 L 44.7754 -65.2344 C 44.6777 -67.1387 43.5059 -68.1152 41.9434 -68.0176 C 40.332 -67.9199 39.3066 -66.7969 39.4043 -64.8926 L 40.0391 -55.4688 C 40.1855 -53.4668 41.0156 -52.1973 42.3828 -51.2207 L 49.1699 -46.2891 C 50.0977 -45.6543 50.4395 -44.7754 50.4395 -43.6523 L 50.4395 -5.61523 C 50.4395 -3.51562 51.7578 -2.39258 53.5156 -2.39258 Z M 57.7637 -54.1992 C 61.2305 -54.1992 64.0137 -57.0312 64.0137 -60.3516 C 64.0137 -63.8672 61.2793 -66.6016 57.7637 -66.6016 C 54.2969 -66.6016 51.5625 -63.8672 51.5625 -60.3516 C 51.5625 -57.0312 54.2969 -54.1992 57.7637 -54.1992 Z"/>
  </g>
  <g id="Thin-M" transform="matrix(1 0 0 1 799.806 1126)">
   <path d="M 56.6406 12.5977 C 82.9102 12.5977 104.492 -8.98438 104.492 -35.2539 C 104.492 -61.5723 82.9102 -83.1543 56.5918 -83.1543 C 30.3223 -83.1543 8.74023 -61.5723 8.74023 -35.2539 C 8.74023 -8.98438 30.3223 12.5977 56.6406 12.5977 Z M 56.6406 8.88672 C 32.2266 8.88672 12.4512 -10.8887 12.4512 -35.2539 C 12.4512 -59.6191 32.2266 -79.4434 56.5918 -79.4434 C 81.0059 -79.4434 100.781 -59.6191 100.781 -35.2539 C 100.781 -10.8887 81.0059 8.88672 56.6406 8.88672 Z M 52.832 -2.68555 C 54.4922 -2.68555 55.4688 -3.75977 55.4688 -5.61523 L 55.4688 -26.8066 C 55.4688 -27.6855 55.9082 -28.2227 56.5918 -28.2227 C 57.2754 -28.2227 57.666 -27.7344 57.666 -26.8066 L 57.666 -5.61523 C 57.666 -3.80859 58.7891 -2.68555 60.498 -2.68555 C 62.0605 -2.68555 63.1348 -3.75977 63.1348 -5.61523 L 63.1348 -42.041 C 63.1348 -42.8711 63.5742 -43.4082 64.209 -43.4082 C 64.8438 -43.4082 65.2344 -42.9199 65.2344 -42.041 L 65.2344 -26.5625 C 65.2344 -24.9023 66.2109 -23.9258 67.7246 -23.9258 C 69.0918 -23.9258 70.0195 -24.9023 70.0195 -26.5625 L 70.0195 -41.7969 C 70.0195 -49.3164 66.2109 -51.9531 56.7383 -51.9531 L 52.8809 -51.9531 C 51.123 -51.9531 50.4883 -52.3438 49.2676 -53.2227 L 45.1172 -56.0059 L 44.3848 -65.625 C 44.2383 -67.334 43.3105 -68.2617 41.8457 -68.1641 C 40.4297 -68.0664 39.502 -66.9922 39.5996 -65.332 L 40.2344 -56.2988 C 40.3809 -54.4434 41.0645 -53.125 42.4316 -52.1973 L 48.8281 -47.6074 C 49.6582 -47.0215 50.0488 -46.0938 50.0488 -44.873 L 50.0488 -5.61523 C 50.0488 -3.80859 51.1719 -2.68555 52.832 -2.68555 Z M 56.7383 -54.834 C 60.1562 -54.834 62.8418 -57.5684 62.8418 -60.8887 C 62.8418 -64.3066 60.2051 -66.9922 56.7383 -66.9922 C 53.418 -66.9922 50.6836 -64.3066 50.6836 -60.8887 C 50.6836 -57.6172 53.418 -54.834 56.7383 -54.834 Z"/>
  </g>
  <g id="Ultralight-M" transform="matrix(1 0 0 1 503.656 1126)">
   <path d="M 56.0547 12.0605 C 82.0801 12.0605 103.369 -9.22852 103.369 -35.2539 C 103.369 -61.2793 82.0801 -82.5684 56.0547 -82.5684 C 30.0293 -82.5684 8.74023 -61.2793 8.74023 -35.2539 C 8.74023 -9.22852 30.0293 12.0605 56.0547 12.0605 Z M 56.0547 9.66797 C 31.2988 9.66797 11.1328 -10.498 11.1328 -35.2539 C 11.1328 -60.0586 31.2988 -80.1758 56.0547 -80.1758 C 80.8594 -80.1758 100.977 -60.0586 100.977 -35.2539 C 100.977 -10.498 80.8594 9.66797 56.0547 9.66797 Z M 52.4902 -2.88086 C 54.0527 -2.88086 54.9805 -3.90625 54.9805 -5.66406 L 54.9805 -27.1973 C 54.9805 -27.9785 55.4199 -28.5645 56.0547 -28.5645 C 56.7383 -28.5645 57.0801 -28.0762 57.0801 -27.1973 L 57.0801 -5.66406 C 57.0801 -4.00391 58.1543 -2.88086 59.7656 -2.88086 C 61.2793 -2.88086 62.2559 -3.90625 62.2559 -5.66406 L 62.2559 -42.5293 C 62.2559 -43.3594 62.6953 -43.8965 63.3301 -43.8965 C 64.0137 -43.8965 64.3555 -43.4082 64.3555 -42.5293 L 64.3555 -26.6602 C 64.3555 -25.0977 65.2344 -24.1699 66.6504 -24.1699 C 67.9688 -24.1699 68.8477 -25.0977 68.8477 -26.6602 L 68.8477 -42.4316 C 68.8477 -49.5605 65.2832 -52.2949 56.25 -52.2949 L 52.4414 -52.2949 C 50.7812 -52.2949 50.1953 -52.6855 49.0234 -53.4668 L 44.9219 -56.2012 L 44.1895 -65.8203 C 44.043 -67.4316 43.1641 -68.3105 41.7969 -68.2129 C 40.4297 -68.1152 39.5996 -67.1387 39.6973 -65.5762 L 40.332 -56.7383 C 40.4785 -54.9316 41.0645 -53.6133 42.4316 -52.6855 L 48.6816 -48.291 C 49.4629 -47.7051 49.8535 -46.7773 49.8535 -45.5566 L 49.8535 -5.66406 C 49.8535 -4.00391 50.8789 -2.88086 52.4902 -2.88086 Z M 56.25 -55.1758 C 59.6191 -55.1758 62.207 -57.8613 62.207 -61.1328 C 62.207 -64.502 59.668 -67.1875 56.25 -67.1875 C 52.9297 -67.1875 50.2441 -64.502 50.2441 -61.1328 C 50.2441 -57.9102 52.9297 -55.1758 56.25 -55.1758 Z"/>
  </g>
  <g id="Black-S" transform="matrix(1 0 0 1 2884.57 696)">
   <path d="M 48.8281 6.78711 C 71.9727 6.78711 90.8203 -12.0605 90.8203 -35.2051 C 90.8203 -58.3496 71.9727 -77.1973 48.8281 -77.1973 C 25.6836 -77.1973 6.83594 -58.3496 6.83594 -35.2051 C 6.83594 -12.0605 25.6836 6.78711 48.8281 6.78711 Z M 48.8281 -7.37305 C 33.4473 -7.37305 20.9961 -19.8242 20.9961 -35.2051 C 20.9961 -50.5859 33.4473 -63.0371 48.8281 -63.0371 C 64.209 -63.0371 76.6602 -50.5859 76.6602 -35.2051 C 76.6602 -19.8242 64.209 -7.37305 48.8281 -7.37305 Z M 45.4102 -11.377 C 46.9727 -11.377 47.9492 -12.4023 47.9492 -14.1602 L 47.9492 -27.2949 C 47.9492 -27.9785 48.291 -28.418 48.8281 -28.418 C 49.3164 -28.418 49.7559 -27.9785 49.7559 -27.2949 L 49.7559 -14.1602 C 49.7559 -12.4512 50.6836 -11.377 52.1973 -11.377 C 53.7598 -11.377 54.7363 -12.4023 54.7363 -14.1602 L 54.7363 -36.7676 C 54.7363 -37.4512 55.0781 -37.9395 55.6152 -37.9395 C 56.1035 -37.9395 56.4941 -37.4512 56.4941 -36.7676 L 56.4941 -28.3203 C 56.4941 -26.7578 57.4219 -25.7812 58.7891 -25.7812 C 60.2051 -25.7812 61.1328 -26.7578 61.1328 -28.3203 L 61.1328 -36.6699 C 61.1328 -42.7246 57.8125 -44.9219 48.877 -44.9219 L 45.9473 -44.9219 C 44.5801 -44.9219 43.9453 -45.0195 42.9199 -45.8984 L 40.0879 -48.3398 L 39.6484 -54.9805 C 39.5508 -56.5918 38.4766 -57.5195 37.0605 -57.4219 C 35.5957 -57.373 34.6191 -56.2988 34.7168 -54.6875 L 35.2051 -47.7539 C 35.3027 -46.3867 35.9375 -45.5078 37.1094 -44.4824 L 42.0898 -40.1855 C 42.6758 -39.6973 42.9688 -39.209 42.9688 -38.4277 L 42.9688 -14.1602 C 42.9688 -12.4512 43.9453 -11.377 45.4102 -11.377 Z M 48.877 -46.7773 C 51.4648 -46.7773 53.6621 -48.9746 53.6621 -51.4648 C 53.6621 -54.1016 51.4648 -56.2988 48.877 -56.2988 C 46.2891 -56.2988 44.1895 -54.1016 44.1895 -51.4648 C 44.1895 -48.9258 46.2891 -46.7773 48.877 -46.7773 Z"/>
  </g>
  <g id="Heavy-S" transform="matrix(1 0 0 1 2588.47 696)">
   <path d="M 48.2422 6.15234 C 70.9961 6.15234 89.5996 -12.4512 89.5996 -35.2051 C 89.5996 -57.959 70.9961 -76.6113 48.1934 -76.6113 C 25.4395 -76.6113 6.83594 -57.959 6.83594 -35.2051 C 6.83594 -12.4512 25.4395 6.15234 48.2422 6.15234 Z M 48.2422 -6.39648 C 32.2754 -6.39648 19.4336 -19.2871 19.4336 -35.2051 C 19.4336 -51.1719 32.2754 -64.0137 48.1934 -64.0137 C 64.1602 -64.0137 77.002 -51.1719 77.0508 -35.2051 C 77.0508 -19.2871 64.1602 -6.39648 48.2422 -6.39648 Z M 44.7754 -10.8398 C 46.2891 -10.8398 47.3145 -11.8652 47.3145 -13.623 L 47.3145 -27.2949 C 47.3145 -28.0273 47.6562 -28.4668 48.2422 -28.4668 C 48.7305 -28.4668 49.1699 -28.0273 49.1699 -27.2949 L 49.1699 -13.623 C 49.1699 -11.9141 50.1465 -10.8398 51.6602 -10.8398 C 53.2227 -10.8398 54.1992 -11.8652 54.1992 -13.623 L 54.1992 -37.3047 C 54.1992 -37.9395 54.541 -38.4277 55.0781 -38.4277 C 55.5664 -38.4277 55.957 -37.9395 55.957 -37.3047 L 55.957 -28.2715 C 55.957 -26.6602 56.8848 -25.7324 58.3008 -25.7324 C 59.668 -25.7324 60.6445 -26.6602 60.6445 -28.2715 L 60.6445 -37.0605 C 60.6445 -43.3594 57.1289 -45.459 48.291 -45.459 L 45.2637 -45.459 C 43.8477 -45.459 43.1641 -45.6055 42.0898 -46.4844 L 39.1113 -48.9258 L 38.6719 -55.7617 C 38.5742 -57.4219 37.5 -58.3008 36.084 -58.2031 C 34.668 -58.1543 33.6914 -57.1289 33.7891 -55.4688 L 34.2773 -48.3398 C 34.375 -46.9238 35.0586 -45.9961 36.1816 -45.0195 L 41.3574 -40.7715 C 41.9922 -40.2344 42.2852 -39.7461 42.2852 -38.9648 L 42.2852 -13.623 C 42.2852 -11.9141 43.2617 -10.8398 44.7754 -10.8398 Z M 48.291 -47.4121 C 50.8789 -47.4121 53.125 -49.6582 53.125 -52.1484 C 53.125 -54.834 50.8789 -57.0312 48.291 -57.0312 C 45.6055 -57.0312 43.5059 -54.834 43.5059 -52.1484 C 43.5059 -49.6094 45.6055 -47.4121 48.291 -47.4121 Z"/>
  </g>
  <g id="Bold-S" transform="matrix(1 0 0 1 2292.44 696)">
   <path d="M 47.5586 5.46875 C 69.873 5.46875 88.2324 -12.8906 88.2324 -35.2539 C 88.2324 -57.5684 69.873 -75.9277 47.5098 -75.9277 C 25.1953 -75.9277 6.83594 -57.5684 6.83594 -35.2539 C 6.83594 -12.8906 25.1953 5.46875 47.5586 5.46875 Z M 47.5586 -5.32227 C 30.957 -5.32227 17.6758 -18.6523 17.6758 -35.2539 C 17.6758 -51.8066 30.957 -65.1367 47.5098 -65.1367 C 64.1113 -65.1367 77.4414 -51.8066 77.4414 -35.2539 C 77.4414 -18.6523 64.1113 -5.32227 47.5586 -5.32227 Z M 43.9941 -10.2539 C 45.5566 -10.2539 46.582 -11.2305 46.582 -13.0859 L 46.582 -27.3438 C 46.582 -28.125 46.9238 -28.5645 47.5586 -28.5645 C 48.0957 -28.5645 48.4863 -28.125 48.4863 -27.3438 L 48.4863 -13.0859 C 48.4863 -11.2793 49.5117 -10.2539 51.0254 -10.2539 C 52.5879 -10.2539 53.6133 -11.2305 53.6133 -13.0859 L 53.6133 -37.8906 C 53.6133 -38.5254 53.9551 -38.9648 54.4922 -38.9648 C 54.9805 -38.9648 55.3223 -38.5254 55.3223 -37.8906 L 55.3223 -28.1738 C 55.3223 -26.6113 56.2988 -25.6348 57.7148 -25.6348 C 59.082 -25.6348 60.0586 -26.6113 60.0586 -28.1738 L 60.0586 -37.4512 C 60.0586 -44.043 56.3477 -46.0449 47.5586 -46.0449 L 44.4824 -46.0449 C 42.9688 -46.0449 42.2852 -46.2402 41.1621 -47.1191 L 38.0371 -49.5605 L 37.5977 -56.6895 C 37.5 -58.3496 36.4258 -59.2285 35.0098 -59.1309 C 33.5938 -59.0332 32.6172 -58.0566 32.7148 -56.3965 L 33.2031 -49.0234 C 33.3008 -47.5098 34.0332 -46.582 35.1562 -45.6543 L 40.4785 -41.4062 C 41.1621 -40.8691 41.4551 -40.332 41.4551 -39.5508 L 41.4551 -13.0859 C 41.4551 -11.2793 42.5293 -10.2539 43.9941 -10.2539 Z M 47.5586 -48.0957 C 50.2441 -48.0957 52.4902 -50.3906 52.4902 -52.9297 C 52.4902 -55.6641 50.2441 -57.8613 47.5586 -57.8613 C 44.873 -57.8613 42.7246 -55.6641 42.7246 -52.9297 C 42.7246 -50.3418 44.873 -48.0957 47.5586 -48.0957 Z"/>
  </g>
  <g id="Semibold-S" transform="matrix(1 0 0 1 1996.2 696)">
   <path d="M 47.0703 4.98047 C 69.0918 4.98047 87.3047 -13.1836 87.3047 -35.2539 C 87.3047 -57.2754 69.0918 -75.4883 47.0215 -75.4883 C 25 -75.4883 6.83594 -57.2754 6.83594 -35.2539 C 6.83594 -13.1836 25.0488 4.98047 47.0703 4.98047 Z M 47.0703 -4.58984 C 30.0781 -4.58984 16.4551 -18.2129 16.4551 -35.2539 C 16.4551 -52.2461 30.0293 -65.8691 47.0215 -65.8691 C 64.0625 -65.8691 77.6855 -52.2461 77.7344 -35.2539 C 77.7344 -18.2129 64.0625 -4.58984 47.0703 -4.58984 Z M 43.5059 -9.86328 C 45.0684 -9.86328 46.0938 -10.8398 46.0938 -12.6465 L 46.0938 -27.3438 C 46.0938 -28.1738 46.4355 -28.6133 47.0703 -28.6133 C 47.6562 -28.6133 47.998 -28.1738 47.998 -27.3438 L 47.998 -12.6465 C 47.998 -10.8398 49.0723 -9.86328 50.6348 -9.86328 C 52.1973 -9.86328 53.1738 -10.8398 53.1738 -12.6465 L 53.1738 -38.2812 C 53.1738 -38.916 53.5645 -39.3555 54.0527 -39.3555 C 54.541 -39.3555 54.8828 -38.916 54.8828 -38.2812 L 54.8828 -28.125 C 54.8828 -26.5137 55.9082 -25.5859 57.3242 -25.5859 C 58.6914 -25.5859 59.668 -26.5137 59.668 -28.125 L 59.668 -37.7441 C 59.668 -44.5312 55.8105 -46.4844 47.1191 -46.4844 L 43.9453 -46.4844 C 42.3828 -46.4844 41.6504 -46.6797 40.4785 -47.5586 L 37.3047 -49.9512 L 36.8164 -57.3242 C 36.7188 -58.9844 35.6445 -59.8145 34.2773 -59.7168 C 32.8613 -59.668 31.9336 -58.6914 32.0312 -56.9824 L 32.5195 -49.4629 C 32.6172 -47.9004 33.3496 -46.9727 34.4727 -46.0938 L 39.8926 -41.8457 C 40.625 -41.3086 40.918 -40.7227 40.918 -39.9414 L 40.918 -12.6465 C 40.918 -10.8398 41.9922 -9.86328 43.5059 -9.86328 Z M 47.1191 -48.584 C 49.8047 -48.584 52.0508 -50.8789 52.0508 -53.4668 C 52.0508 -56.25 49.8047 -58.4473 47.1191 -58.4473 C 44.3359 -58.4473 42.1875 -56.25 42.1875 -53.4668 C 42.1875 -50.8789 44.3359 -48.584 47.1191 -48.584 Z"/>
  </g>
  <g id="Medium-S" transform="matrix(1 0 0 1 1699.83 696)">
   <path d="M 46.7285 4.63867 C 68.5547 4.63867 86.6211 -13.4277 86.6211 -35.2539 C 86.6211 -57.0801 68.5059 -75.1465 46.6797 -75.1465 C 24.8535 -75.1465 6.83594 -57.0801 6.83594 -35.2539 C 6.83594 -13.4277 24.9023 4.63867 46.7285 4.63867 Z M 46.7285 -4.00391 C 29.3945 -4.00391 15.5273 -17.9199 15.5273 -35.2539 C 15.5273 -52.5879 29.3457 -66.4551 46.6797 -66.4551 C 64.0137 -66.4551 77.8809 -52.5879 77.9297 -35.2539 C 77.9785 -17.9199 64.0625 -4.00391 46.7285 -4.00391 Z M 43.1152 -9.57031 C 44.6777 -9.57031 45.7031 -10.498 45.7031 -12.3535 L 45.7031 -27.3438 C 45.7031 -28.1738 46.0449 -28.6133 46.7285 -28.6133 C 47.3145 -28.6133 47.6562 -28.2227 47.6562 -27.3438 L 47.6562 -12.3535 C 47.6562 -10.498 48.7793 -9.57031 50.293 -9.57031 C 51.8555 -9.57031 52.8809 -10.498 52.8809 -12.3535 L 52.8809 -38.5742 C 52.8809 -39.209 53.2227 -39.6484 53.7109 -39.6484 C 54.248 -39.6484 54.5898 -39.209 54.5898 -38.5742 L 54.5898 -28.125 C 54.5898 -26.4648 55.6152 -25.5371 56.9824 -25.5371 C 58.3984 -25.5371 59.375 -26.4648 59.375 -28.125 L 59.375 -37.9883 C 59.375 -44.873 55.4199 -46.7773 46.7285 -46.7773 L 43.5547 -46.7773 C 41.9434 -46.7773 41.2109 -47.0215 39.9902 -47.9004 L 36.7188 -50.293 L 36.2305 -57.7637 C 36.1328 -59.4727 35.1074 -60.3027 33.6914 -60.2051 C 32.2754 -60.1074 31.3477 -59.1797 31.4453 -57.4707 L 31.9336 -49.8535 C 32.0312 -48.1934 32.8125 -47.2168 33.9355 -46.4355 L 39.4531 -42.1875 C 40.1855 -41.6504 40.4785 -41.0645 40.4785 -40.2344 L 40.4785 -12.3535 C 40.4785 -10.498 41.6016 -9.57031 43.1152 -9.57031 Z M 46.7285 -48.9746 C 49.4629 -48.9746 51.7578 -51.2695 51.7578 -53.8574 C 51.7578 -56.6895 49.4629 -58.8867 46.7285 -58.8867 C 43.9453 -58.8867 41.7969 -56.6895 41.7969 -53.8574 C 41.7969 -51.2695 43.9453 -48.9746 46.7285 -48.9746 Z"/>
  </g>
  <g id="Regular-S" transform="matrix(1 0 0 1 1403.58 696)">
   <path d="M 46.2402 4.15039 C 67.7734 4.15039 85.6934 -13.7207 85.6934 -35.2539 C 85.6934 -56.7871 67.7246 -74.6582 46.1914 -74.6582 C 24.707 -74.6582 6.83594 -56.7871 6.83594 -35.2539 C 6.83594 -13.7207 24.7559 4.15039 46.2402 4.15039 Z M 46.2402 -3.27148 C 28.5156 -3.27148 14.3555 -17.4805 14.3555 -35.2539 C 14.3555 -53.0273 28.4668 -67.2363 46.1914 -67.2363 C 63.9648 -67.2363 78.1738 -53.0273 78.2227 -35.2539 C 78.2715 -17.4805 64.0137 -3.27148 46.2402 -3.27148 Z M 42.627 -9.17969 C 44.1406 -9.17969 45.2148 -10.1074 45.2148 -11.9629 L 45.2148 -27.3926 C 45.2148 -28.2227 45.5566 -28.6621 46.2891 -28.6621 C 46.8262 -28.6621 47.168 -28.2715 47.168 -27.3926 L 47.168 -11.9629 C 47.168 -10.1074 48.3398 -9.17969 49.9023 -9.17969 C 51.416 -9.17969 52.4414 -10.1074 52.4414 -11.9629 L 52.4414 -38.9648 C 52.4414 -39.5996 52.832 -39.9902 53.3203 -39.9902 C 53.8086 -39.9902 54.1504 -39.5996 54.1504 -38.9648 L 54.1504 -28.0762 C 54.1504 -26.416 55.2246 -25.4883 56.5918 -25.4883 C 58.0078 -25.4883 58.9844 -26.416 58.9844 -28.0762 L 58.9844 -38.2812 C 58.9844 -45.3613 54.8828 -47.2168 46.2891 -47.2168 L 43.0176 -47.2168 C 41.3574 -47.2168 40.625 -47.5098 39.3555 -48.3398 L 35.9863 -50.7324 L 35.498 -58.3984 C 35.4004 -60.0586 34.375 -60.8887 32.959 -60.791 C 31.543 -60.6934 30.6641 -59.7656 30.7617 -58.0566 L 31.25 -50.293 C 31.3477 -48.584 32.1289 -47.6074 33.2031 -46.8262 L 38.8672 -42.627 C 39.6484 -42.041 39.9414 -41.4551 39.9414 -40.625 L 39.9414 -11.9629 C 39.9414 -10.1074 41.1133 -9.17969 42.627 -9.17969 Z M 46.2891 -49.4629 C 49.0723 -49.4629 51.3184 -51.7578 51.3184 -54.3945 C 51.3184 -57.2266 49.0723 -59.4727 46.2891 -59.4727 C 43.457 -59.4727 41.2598 -57.2266 41.2598 -54.3945 C 41.2598 -51.7578 43.457 -49.4629 46.2891 -49.4629 Z"/>
  </g>
  <g id="Light-S" transform="matrix(1 0 0 1 1107.6 696)">
   <path d="M 45.5078 3.41797 C 66.6992 3.41797 84.2285 -14.0625 84.2285 -35.2539 C 84.2285 -56.4453 66.6504 -73.9258 45.5078 -73.9258 C 24.3164 -73.9258 6.83594 -56.4453 6.83594 -35.2539 C 6.83594 -14.0625 24.3652 3.41797 45.5078 3.41797 Z M 45.5078 -2.29492 C 27.2461 -2.29492 12.5977 -16.9922 12.5977 -35.2539 C 12.5977 -53.5156 27.1973 -68.2129 45.5078 -68.2129 C 63.7695 -68.2129 78.4668 -53.5156 78.5156 -35.2539 C 78.5156 -16.9922 63.8184 -2.29492 45.5078 -2.29492 Z M 42.1387 -9.375 C 43.6035 -9.375 44.5312 -10.3027 44.5312 -12.0117 L 44.5312 -27.8809 C 44.5312 -28.6621 44.873 -29.1016 45.5078 -29.1016 C 46.0938 -29.1016 46.4355 -28.6621 46.4355 -27.8809 L 46.4355 -12.0117 C 46.4355 -10.3027 47.4609 -9.375 48.9258 -9.375 C 50.3418 -9.375 51.3184 -10.3027 51.3184 -12.0117 L 51.3184 -39.5996 C 51.3184 -40.2344 51.6602 -40.625 52.1484 -40.625 C 52.6855 -40.625 52.9785 -40.2344 52.9785 -39.5996 L 52.9785 -28.2227 C 52.9785 -26.709 53.9062 -25.8301 55.2246 -25.8301 C 56.4941 -25.8301 57.373 -26.709 57.373 -28.2227 L 57.373 -39.0625 C 57.373 -45.7031 53.7109 -47.6562 45.6055 -47.6562 L 42.4316 -47.6562 C 40.8691 -47.6562 40.2344 -47.9492 39.0625 -48.7305 L 35.7422 -51.0254 L 35.2051 -58.6426 C 35.1074 -60.2051 34.1797 -60.9863 32.9102 -60.8887 C 31.5918 -60.791 30.7617 -59.9121 30.8594 -58.3496 L 31.3477 -50.8301 C 31.4453 -49.2676 32.1289 -48.2422 33.2031 -47.5098 L 38.623 -43.5059 C 39.3555 -42.9688 39.6484 -42.334 39.6484 -41.4551 L 39.6484 -12.0117 C 39.6484 -10.3027 40.7227 -9.375 42.1387 -9.375 Z M 45.6055 -49.9023 C 48.291 -49.9023 50.5371 -52.1484 50.5371 -54.7363 C 50.5371 -57.5195 48.3398 -59.7168 45.6055 -59.7168 C 42.8223 -59.7168 40.6738 -57.5195 40.6738 -54.7363 C 40.6738 -52.1484 42.8223 -49.9023 45.6055 -49.9023 Z"/>
  </g>
  <g id="Thin-S" transform="matrix(1 0 0 1 811.867 696)">
   <path d="M 44.5801 2.49023 C 65.2832 2.49023 82.2754 -14.5508 82.2754 -35.2539 C 82.2754 -55.957 65.2344 -72.998 44.5312 -72.998 C 23.8281 -72.998 6.83594 -55.957 6.83594 -35.2539 C 6.83594 -14.5508 23.877 2.49023 44.5801 2.49023 Z M 44.5801 -0.927734 C 25.5859 -0.927734 10.2539 -16.3086 10.2539 -35.2539 C 10.2539 -54.1992 25.5859 -69.5801 44.5312 -69.5801 C 63.5254 -69.5801 78.8574 -54.1992 78.8574 -35.2539 C 78.8574 -16.3086 63.5254 -0.927734 44.5801 -0.927734 Z M 41.5527 -9.66797 C 42.8711 -9.66797 43.6523 -10.5469 43.6523 -12.0117 L 43.6523 -28.5156 C 43.6523 -29.1992 43.9941 -29.6387 44.5801 -29.6387 C 45.1172 -29.6387 45.4102 -29.248 45.4102 -28.5156 L 45.4102 -12.0117 C 45.4102 -10.5469 46.3379 -9.66797 47.6562 -9.66797 C 48.9258 -9.66797 49.8047 -10.5469 49.8047 -12.0117 L 49.8047 -40.3809 C 49.8047 -41.0156 50.1465 -41.4551 50.6348 -41.4551 C 51.1719 -41.4551 51.4648 -41.0645 51.4648 -40.3809 L 51.4648 -28.3691 C 51.4648 -27.0508 52.2461 -26.2695 53.418 -26.2695 C 54.541 -26.2695 55.3223 -27.0508 55.3223 -28.3691 L 55.3223 -40.1367 C 55.3223 -46.1426 52.1973 -48.1934 44.6777 -48.1934 L 41.6016 -48.1934 C 40.2344 -48.1934 39.6973 -48.4863 38.6719 -49.2188 L 35.4004 -51.416 L 34.8633 -58.9844 C 34.7656 -60.3516 33.9844 -61.084 32.8125 -60.9863 C 31.6406 -60.8887 30.9082 -60.1074 31.0059 -58.7402 L 31.4941 -51.5625 C 31.5918 -50.0977 32.1777 -49.0723 33.252 -48.3398 L 38.3301 -44.6777 C 39.0137 -44.1895 39.3066 -43.5059 39.3066 -42.5781 L 39.3066 -12.0117 C 39.3066 -10.5469 40.2344 -9.66797 41.5527 -9.66797 Z M 44.6777 -50.4395 C 47.3633 -50.4395 49.4629 -52.6367 49.4629 -55.2246 C 49.4629 -57.9102 47.3633 -60.0586 44.6777 -60.0586 C 42.041 -60.0586 39.8926 -57.9102 39.8926 -55.2246 C 39.8926 -52.6367 42.041 -50.4395 44.6777 -50.4395 Z"/>
  </g>
  <g id="Ultralight-S" transform="matrix(1 0 0 1 515.644 696)">
   <path d="M 44.043 1.95312 C 64.502 1.95312 81.2988 -14.7949 81.2988 -35.2539 C 81.2988 -55.7129 64.502 -72.4609 44.043 -72.4609 C 23.584 -72.4609 6.83594 -55.7129 6.83594 -35.2539 C 6.83594 -14.7949 23.584 1.95312 44.043 1.95312 Z M 44.043 -0.244141 C 24.7559 -0.244141 9.08203 -15.9668 9.08203 -35.2539 C 9.08203 -54.541 24.7559 -70.2637 44.043 -70.2637 C 63.3789 -70.2637 79.0527 -54.541 79.0527 -35.2539 C 79.0527 -15.9668 63.3789 -0.244141 44.043 -0.244141 Z M 41.2109 -9.81445 C 42.4805 -9.81445 43.2129 -10.6445 43.2129 -12.0605 L 43.2129 -28.8086 C 43.2129 -29.4922 43.5547 -29.9316 44.043 -29.9316 C 44.5801 -29.9316 44.873 -29.541 44.873 -28.8086 L 44.873 -12.0605 C 44.873 -10.6934 45.752 -9.81445 47.0215 -9.81445 C 48.1934 -9.81445 49.0234 -10.6445 49.0234 -12.0605 L 49.0234 -40.8203 C 49.0234 -41.4551 49.3652 -41.8945 49.8535 -41.8945 C 50.3906 -41.8945 50.6836 -41.5039 50.6836 -40.8203 L 50.6836 -28.5156 C 50.6836 -27.2461 51.3672 -26.5137 52.4902 -26.5137 C 53.5645 -26.5137 54.248 -27.2461 54.248 -28.5156 L 54.248 -40.6738 C 54.248 -46.3867 51.416 -48.5352 44.1895 -48.5352 L 41.2109 -48.5352 C 39.8926 -48.5352 39.4043 -48.8281 38.4766 -49.4629 L 35.2539 -51.6113 L 34.668 -59.1309 C 34.5703 -60.4492 33.8867 -61.1328 32.7637 -61.084 C 31.6895 -60.9863 31.0059 -60.2051 31.1035 -58.9355 L 31.5918 -51.9531 C 31.6895 -50.5371 32.1777 -49.5117 33.252 -48.7793 L 38.1836 -45.2637 C 38.8184 -44.8242 39.1113 -44.0918 39.1113 -43.1152 L 39.1113 -12.0605 C 39.1113 -10.6934 39.9414 -9.81445 41.2109 -9.81445 Z M 44.1895 -50.7812 C 46.8262 -50.7812 48.9258 -52.8809 48.9258 -55.4688 C 48.9258 -58.1055 46.875 -60.2051 44.1895 -60.2051 C 41.6016 -60.2051 39.502 -58.1055 39.502 -55.4688 C 39.502 -52.9297 41.6016 -50.7812 44.1895 -50.7812 Z"/>
  </g>
 </g>
</svg>
