<?xml version="1.0" encoding="UTF-8"?>
<!--Generator: Apple Native CoreSVG 148-->
<!DOCTYPE svg
PUBLIC "-//W3C//DTD SVG 1.1//EN"
       "http://www.w3.org/Graphics/SVG/1.1/DTD/svg11.dtd">
<svg version="1.1" xmlns="http://www.w3.org/2000/svg" xmlns:xlink="http://www.w3.org/1999/xlink" width="3300" height="2200">
 <!--glyph: "uni10003C.medium", point size: 100.000000, font version: "Version 16.0d11e1", template writer version: "8"-->
 <g id="Notes">
  <rect height="2200" id="artboard" style="fill:white;opacity:1" width="3300" x="0" y="0"/>
  <line id="" style="fill:none;stroke:black;opacity:1;stroke-width:0.5;" x1="263" x2="3036" y1="292" y2="292"/>
  <text style="stroke:none;fill:black;font-family:-apple-system,&quot;SF Pro Display&quot;,&quot;SF Pro Text&quot;,Helvetica,sans-serif;font-weight:bold;" transform="matrix(1 0 0 1 263 322)">Weight/Scale Variations</text>
  <text style="stroke:none;fill:black;font-family:-apple-system,&quot;SF Pro Display&quot;,&quot;SF Pro Text&quot;,Helvetica,sans-serif;text-anchor:middle;" transform="matrix(1 0 0 1 559.711 322)">Ultralight</text>
  <text style="stroke:none;fill:black;font-family:-apple-system,&quot;SF Pro Display&quot;,&quot;SF Pro Text&quot;,Helvetica,sans-serif;text-anchor:middle;" transform="matrix(1 0 0 1 856.422 322)">Thin</text>
  <text style="stroke:none;fill:black;font-family:-apple-system,&quot;SF Pro Display&quot;,&quot;SF Pro Text&quot;,Helvetica,sans-serif;text-anchor:middle;" transform="matrix(1 0 0 1 1153.13 322)">Light</text>
  <text style="stroke:none;fill:black;font-family:-apple-system,&quot;SF Pro Display&quot;,&quot;SF Pro Text&quot;,Helvetica,sans-serif;text-anchor:middle;" transform="matrix(1 0 0 1 1449.84 322)">Regular</text>
  <text style="stroke:none;fill:black;font-family:-apple-system,&quot;SF Pro Display&quot;,&quot;SF Pro Text&quot;,Helvetica,sans-serif;text-anchor:middle;" transform="matrix(1 0 0 1 1746.56 322)">Medium</text>
  <text style="stroke:none;fill:black;font-family:-apple-system,&quot;SF Pro Display&quot;,&quot;SF Pro Text&quot;,Helvetica,sans-serif;text-anchor:middle;" transform="matrix(1 0 0 1 2043.27 322)">Semibold</text>
  <text style="stroke:none;fill:black;font-family:-apple-system,&quot;SF Pro Display&quot;,&quot;SF Pro Text&quot;,Helvetica,sans-serif;text-anchor:middle;" transform="matrix(1 0 0 1 2339.98 322)">Bold</text>
  <text style="stroke:none;fill:black;font-family:-apple-system,&quot;SF Pro Display&quot;,&quot;SF Pro Text&quot;,Helvetica,sans-serif;text-anchor:middle;" transform="matrix(1 0 0 1 2636.69 322)">Heavy</text>
  <text style="stroke:none;fill:black;font-family:-apple-system,&quot;SF Pro Display&quot;,&quot;SF Pro Text&quot;,Helvetica,sans-serif;text-anchor:middle;" transform="matrix(1 0 0 1 2933.4 322)">Black</text>
  <line id="" style="fill:none;stroke:black;opacity:1;stroke-width:0.5;" x1="263" x2="3036" y1="1903" y2="1903"/>
  <g id="" transform="matrix(1 0 0 1 263 1933)">
   <path d="M 9.24805 0.830078 C 13.5547 0.830078 17.1387 -2.74414 17.1387 -7.05078 C 17.1387 -11.3574 13.5449 -14.9316 9.23828 -14.9316 C 4.94141 -14.9316 1.36719 -11.3574 1.36719 -7.05078 C 1.36719 -2.74414 4.95117 0.830078 9.24805 0.830078 Z M 9.24805 -0.654297 C 5.70312 -0.654297 2.87109 -3.49609 2.87109 -7.05078 C 2.87109 -10.6055 5.69336 -13.4473 9.23828 -13.4473 C 12.793 -13.4473 15.6348 -10.6055 15.6445 -7.05078 C 15.6543 -3.49609 12.8027 -0.654297 9.24805 -0.654297 Z M 9.22852 -3.62305 C 9.69727 -3.62305 9.9707 -3.93555 9.9707 -4.45312 L 9.9707 -6.31836 L 12.002 -6.31836 C 12.5 -6.31836 12.832 -6.57227 12.832 -7.04102 C 12.832 -7.51953 12.5195 -7.7832 12.002 -7.7832 L 9.9707 -7.7832 L 9.9707 -9.81445 C 9.9707 -10.332 9.69727 -10.6543 9.22852 -10.6543 C 8.75977 -10.6543 8.50586 -10.3125 8.50586 -9.81445 L 8.50586 -7.7832 L 6.49414 -7.7832 C 5.97656 -7.7832 5.64453 -7.51953 5.64453 -7.04102 C 5.64453 -6.57227 5.99609 -6.31836 6.49414 -6.31836 L 8.50586 -6.31836 L 8.50586 -4.45312 C 8.50586 -3.95508 8.75977 -3.62305 9.22852 -3.62305 Z"/>
  </g>
  <g id="" transform="matrix(1 0 0 1 281.506 1933)">
   <path d="M 11.709 2.91016 C 17.1582 2.91016 21.6699 -1.61133 21.6699 -7.05078 C 21.6699 -12.5 17.1484 -17.0117 11.6992 -17.0117 C 6.25977 -17.0117 1.74805 -12.5 1.74805 -7.05078 C 1.74805 -1.61133 6.26953 2.91016 11.709 2.91016 Z M 11.709 1.25 C 7.09961 1.25 3.41797 -2.44141 3.41797 -7.05078 C 3.41797 -11.6602 7.08984 -15.3516 11.6992 -15.3516 C 16.3086 -15.3516 20 -11.6602 20.0098 -7.05078 C 20.0195 -2.44141 16.3184 1.25 11.709 1.25 Z M 11.6797 -2.66602 C 12.207 -2.66602 12.5098 -3.01758 12.5098 -3.59375 L 12.5098 -6.23047 L 15.3223 -6.23047 C 15.8691 -6.23047 16.25 -6.51367 16.25 -7.03125 C 16.25 -7.55859 15.8887 -7.86133 15.3223 -7.86133 L 12.5098 -7.86133 L 12.5098 -10.6836 C 12.5098 -11.25 12.207 -11.6113 11.6797 -11.6113 C 11.1621 -11.6113 10.8789 -11.2305 10.8789 -10.6836 L 10.8789 -7.86133 L 8.07617 -7.86133 C 7.50977 -7.86133 7.13867 -7.55859 7.13867 -7.03125 C 7.13867 -6.51367 7.5293 -6.23047 8.07617 -6.23047 L 10.8789 -6.23047 L 10.8789 -3.59375 C 10.8789 -3.03711 11.1621 -2.66602 11.6797 -2.66602 Z"/>
  </g>
  <g id="" transform="matrix(1 0 0 1 304.924 1933)">
   <path d="M 14.9707 5.66406 C 21.9336 5.66406 27.6953 -0.0976562 27.6953 -7.05078 C 27.6953 -14.0137 21.9238 -19.7754 14.9609 -19.7754 C 8.00781 -19.7754 2.25586 -14.0137 2.25586 -7.05078 C 2.25586 -0.0976562 8.01758 5.66406 14.9707 5.66406 Z M 14.9707 3.84766 C 8.93555 3.84766 4.08203 -1.01562 4.08203 -7.05078 C 4.08203 -13.0957 8.92578 -17.9492 14.9609 -17.9492 C 21.0059 -17.9492 25.8594 -13.0957 25.8691 -7.05078 C 25.8789 -1.01562 21.0156 3.84766 14.9707 3.84766 Z M 14.9414 -1.38672 C 15.5176 -1.38672 15.8594 -1.77734 15.8594 -2.38281 L 15.8594 -6.13281 L 19.7754 -6.13281 C 20.3711 -6.13281 20.7812 -6.46484 20.7812 -7.02148 C 20.7812 -7.59766 20.3906 -7.93945 19.7754 -7.93945 L 15.8594 -7.93945 L 15.8594 -11.8652 C 15.8594 -12.4805 15.5176 -12.8711 14.9414 -12.8711 C 14.375 -12.8711 14.0527 -12.4609 14.0527 -11.8652 L 14.0527 -7.93945 L 10.1465 -7.93945 C 9.53125 -7.93945 9.13086 -7.59766 9.13086 -7.02148 C 9.13086 -6.46484 9.55078 -6.13281 10.1465 -6.13281 L 14.0527 -6.13281 L 14.0527 -2.38281 C 14.0527 -1.79688 14.375 -1.38672 14.9414 -1.38672 Z"/>
  </g>
  <text style="stroke:none;fill:black;font-family:-apple-system,&quot;SF Pro Display&quot;,&quot;SF Pro Text&quot;,Helvetica,sans-serif;font-weight:bold;" transform="matrix(1 0 0 1 263 1953)">Design Variations</text>
  <text style="stroke:none;fill:black;font-family:-apple-system,&quot;SF Pro Display&quot;,&quot;SF Pro Text&quot;,Helvetica,sans-serif;" transform="matrix(1 0 0 1 263 1971)">Symbols are supported in up to nine weights and three scales.</text>
  <text style="stroke:none;fill:black;font-family:-apple-system,&quot;SF Pro Display&quot;,&quot;SF Pro Text&quot;,Helvetica,sans-serif;" transform="matrix(1 0 0 1 263 1989)">For optimal layout with text and other symbols, vertically align</text>
  <text style="stroke:none;fill:black;font-family:-apple-system,&quot;SF Pro Display&quot;,&quot;SF Pro Text&quot;,Helvetica,sans-serif;" transform="matrix(1 0 0 1 263 2007)">symbols with the adjacent text.</text>
  <line id="" style="fill:none;stroke:#00AEEF;stroke-width:0.5;opacity:1.0;" x1="776" x2="776" y1="1919" y2="1933"/>
  <g id="" transform="matrix(1 0 0 1 776 1933)">
   <path d="M 3.31055 0.126953 C 3.82812 0.126953 4.08203 -0.0683594 4.26758 -0.605469 L 5.52734 -4.0625 L 11.2891 -4.0625 L 12.5488 -0.605469 C 12.7344 -0.0683594 12.9883 0.126953 13.4961 0.126953 C 14.0137 0.126953 14.3457 -0.185547 14.3457 -0.673828 C 14.3457 -0.839844 14.3164 -0.986328 14.2383 -1.20117 L 9.6582 -13.3887 C 9.43359 -13.9941 9.0332 -14.2871 8.4082 -14.2871 C 7.80273 -14.2871 7.39258 -13.9941 7.17773 -13.3984 L 2.59766 -1.19141 C 2.51953 -0.976562 2.49023 -0.830078 2.49023 -0.664062 C 2.49023 -0.175781 2.80273 0.126953 3.31055 0.126953 Z M 6.00586 -5.53711 L 8.37891 -12.1094 L 8.42773 -12.1094 L 10.8008 -5.53711 Z"/>
  </g>
  <line id="" style="fill:none;stroke:#00AEEF;stroke-width:0.5;opacity:1.0;" x1="792.836" x2="792.836" y1="1919" y2="1933"/>
  <text style="stroke:none;fill:black;font-family:-apple-system,&quot;SF Pro Display&quot;,&quot;SF Pro Text&quot;,Helvetica,sans-serif;font-weight:bold;" transform="matrix(1 0 0 1 776 1953)">Margins</text>
  <text style="stroke:none;fill:black;font-family:-apple-system,&quot;SF Pro Display&quot;,&quot;SF Pro Text&quot;,Helvetica,sans-serif;" transform="matrix(1 0 0 1 776 1971)">Leading and trailing margins on the left and right side of each symbol</text>
  <text style="stroke:none;fill:black;font-family:-apple-system,&quot;SF Pro Display&quot;,&quot;SF Pro Text&quot;,Helvetica,sans-serif;" transform="matrix(1 0 0 1 776 1989)">can be adjusted by modifying the x-location of the margin guidelines.</text>
  <text style="stroke:none;fill:black;font-family:-apple-system,&quot;SF Pro Display&quot;,&quot;SF Pro Text&quot;,Helvetica,sans-serif;" transform="matrix(1 0 0 1 776 2007)">Modifications are automatically applied proportionally to all</text>
  <text style="stroke:none;fill:black;font-family:-apple-system,&quot;SF Pro Display&quot;,&quot;SF Pro Text&quot;,Helvetica,sans-serif;" transform="matrix(1 0 0 1 776 2025)">scales and weights.</text>
  <g id="" transform="matrix(1 0 0 1 1289 1933)">
   <path d="M 2.8418 1.86523 L 4.54102 3.57422 C 5.40039 4.44336 6.38672 4.38477 7.31445 3.35938 L 17.4902 -7.85156 C 17.7539 -7.76367 18.0273 -7.7832 18.3398 -7.8418 L 19.4043 -8.03711 L 20.0684 -7.36328 L 20.0293 -6.80664 C 19.9902 -6.30859 20.1172 -5.92773 20.6055 -5.44922 L 21.3672 -4.70703 C 21.8457 -4.22852 22.4609 -4.19922 22.9297 -4.66797 L 25.8398 -7.58789 C 26.3086 -8.05664 26.2891 -8.65234 25.8105 -9.13086 L 25.0391 -9.89258 C 24.5605 -10.3711 24.1895 -10.5273 23.7109 -10.4883 L 23.1348 -10.4395 L 22.4902 -11.0742 L 22.7344 -12.1973 C 22.8613 -12.7637 22.7051 -13.2031 22.1191 -13.7891 L 19.9219 -15.9766 C 16.582 -19.2969 12.1484 -19.2188 9.25781 -16.3281 C 8.83789 -15.918 8.80859 -15.3418 9.04297 -14.9512 C 9.27734 -14.5898 9.73633 -14.3555 10.3809 -14.5215 C 11.8457 -14.8633 13.3691 -14.9219 14.7949 -13.9844 L 14.209 -12.5293 C 14.0137 -12.0508 13.9844 -11.6504 14.1113 -11.2891 L 3.04688 -0.898438 C 2.06055 0.0195312 1.98242 0.996094 2.8418 1.86523 Z M 10.752 -15.957 C 13.1836 -17.7344 16.4746 -17.4316 18.7012 -15.2051 L 21.1328 -12.793 C 21.3672 -12.5586 21.4062 -12.373 21.3379 -12.0312 L 21.0156 -10.5469 L 22.5195 -9.0625 L 23.5059 -9.12109 C 23.7598 -9.13086 23.8379 -9.11133 24.0332 -8.91602 L 24.6094 -8.33984 L 22.168 -5.89844 L 21.5918 -6.47461 C 21.3965 -6.66992 21.3672 -6.74805 21.377 -7.01172 L 21.4453 -7.98828 L 19.9512 -9.47266 L 18.4277 -9.21875 C 18.1055 -9.15039 17.959 -9.17969 17.7148 -9.41406 L 15.7129 -11.416 C 15.459 -11.6504 15.4297 -11.8164 15.5859 -12.1875 L 16.4648 -14.2773 C 14.9023 -15.7324 12.8711 -16.3574 10.8398 -15.7617 C 10.6836 -15.7227 10.625 -15.8496 10.752 -15.957 Z M 5.27344 2.30469 L 4.10156 1.14258 C 3.63281 0.683594 3.74023 0.341797 4.14062 -0.0195312 L 14.9512 -10.1953 L 16.416 -8.71094 L 6.42578 2.27539 C 6.07422 2.67578 5.74219 2.77344 5.27344 2.30469 Z"/>
  </g>
  <text style="stroke:none;fill:black;font-family:-apple-system,&quot;SF Pro Display&quot;,&quot;SF Pro Text&quot;,Helvetica,sans-serif;font-weight:bold;" transform="matrix(1 0 0 1 1289 1953)">Exporting</text>
  <text style="stroke:none;fill:black;font-family:-apple-system,&quot;SF Pro Display&quot;,&quot;SF Pro Text&quot;,Helvetica,sans-serif;" transform="matrix(1 0 0 1 1289 1971)">Symbols should be outlined when exporting to ensure the</text>
  <text style="stroke:none;fill:black;font-family:-apple-system,&quot;SF Pro Display&quot;,&quot;SF Pro Text&quot;,Helvetica,sans-serif;" transform="matrix(1 0 0 1 1289 1989)">design is preserved when submitting to Xcode.</text>
  <text id="template-version" style="stroke:none;fill:black;font-family:-apple-system,&quot;SF Pro Display&quot;,&quot;SF Pro Text&quot;,Helvetica,sans-serif;text-anchor:end;" transform="matrix(1 0 0 1 3036 1933)">Template v.2.0</text>
  <text style="stroke:none;fill:black;font-family:-apple-system,&quot;SF Pro Display&quot;,&quot;SF Pro Text&quot;,Helvetica,sans-serif;text-anchor:end;" transform="matrix(1 0 0 1 3036 1951)">Requires Xcode 12 or greater</text>
  <text style="stroke:none;fill:black;font-family:-apple-system,&quot;SF Pro Display&quot;,&quot;SF Pro Text&quot;,Helvetica,sans-serif;text-anchor:end;" transform="matrix(1 0 0 1 3036 1969)">Generated from 2.circle</text>
  <text style="stroke:none;fill:black;font-family:-apple-system,&quot;SF Pro Display&quot;,&quot;SF Pro Text&quot;,Helvetica,sans-serif;text-anchor:end;" transform="matrix(1 0 0 1 3036 1987)">Typeset at 100 points</text>
  <text style="stroke:none;fill:black;font-family:-apple-system,&quot;SF Pro Display&quot;,&quot;SF Pro Text&quot;,Helvetica,sans-serif;" transform="matrix(1 0 0 1 263 726)">Small</text>
  <text style="stroke:none;fill:black;font-family:-apple-system,&quot;SF Pro Display&quot;,&quot;SF Pro Text&quot;,Helvetica,sans-serif;" transform="matrix(1 0 0 1 263 1156)">Medium</text>
  <text style="stroke:none;fill:black;font-family:-apple-system,&quot;SF Pro Display&quot;,&quot;SF Pro Text&quot;,Helvetica,sans-serif;" transform="matrix(1 0 0 1 263 1586)">Large</text>
 </g>
 <g id="Guides">
  <g id="H-reference" style="fill:#27AAE1;stroke:none;" transform="matrix(1 0 0 1 339 696)">
   <path d="M 0.976562 0 L 3.66211 0 L 12.9883 -24.4629 L 45.7031 -24.4629 L 55.0781 0 L 57.7148 0 L 30.6152 -70.459 L 28.125 -70.459 Z M 29.2969 -67.1387 L 29.3945 -67.1387 L 44.873 -26.709 L 13.8672 -26.709 Z"/>
  </g>
  <line id="Baseline-S" style="fill:none;stroke:#27AAE1;opacity:1;stroke-width:0.5;" x1="263" x2="3036" y1="696" y2="696"/>
  <line id="Capline-S" style="fill:none;stroke:#27AAE1;opacity:1;stroke-width:0.5;" x1="263" x2="3036" y1="625.541" y2="625.541"/>
  <g id="H-reference" style="fill:#27AAE1;stroke:none;" transform="matrix(1 0 0 1 339 1126)">
   <path d="M 0.976562 0 L 3.66211 0 L 12.9883 -24.4629 L 45.7031 -24.4629 L 55.0781 0 L 57.7148 0 L 30.6152 -70.459 L 28.125 -70.459 Z M 29.2969 -67.1387 L 29.3945 -67.1387 L 44.873 -26.709 L 13.8672 -26.709 Z"/>
  </g>
  <line id="Baseline-M" style="fill:none;stroke:#27AAE1;opacity:1;stroke-width:0.5;" x1="263" x2="3036" y1="1126" y2="1126"/>
  <line id="Capline-M" style="fill:none;stroke:#27AAE1;opacity:1;stroke-width:0.5;" x1="263" x2="3036" y1="1055.54" y2="1055.54"/>
  <g id="H-reference" style="fill:#27AAE1;stroke:none;" transform="matrix(1 0 0 1 339 1556)">
   <path d="M 0.976562 0 L 3.66211 0 L 12.9883 -24.4629 L 45.7031 -24.4629 L 55.0781 0 L 57.7148 0 L 30.6152 -70.459 L 28.125 -70.459 Z M 29.2969 -67.1387 L 29.3945 -67.1387 L 44.873 -26.709 L 13.8672 -26.709 Z"/>
  </g>
  <line id="Baseline-L" style="fill:none;stroke:#27AAE1;opacity:1;stroke-width:0.5;" x1="263" x2="3036" y1="1556" y2="1556"/>
  <line id="Capline-L" style="fill:none;stroke:#27AAE1;opacity:1;stroke-width:0.5;" x1="263" x2="3036" y1="1485.54" y2="1485.54"/>
  <line id="left-margin" style="fill:none;stroke:#00AEEF;stroke-width:0.5;opacity:1.0;" x1="1391.3" x2="1391.3" y1="1030.79" y2="1150.12"/>
  <line id="right-margin" style="fill:none;stroke:#00AEEF;stroke-width:0.5;opacity:1.0;" x1="1508.39" x2="1508.39" y1="1030.79" y2="1150.12"/>
 </g>
 <g id="Symbols">
  <g id="Black-L" transform="matrix(1 0 0 1 2854.05 1556)">
   <path d="M 79.3457 32.8613 C 116.748 32.8613 147.412 2.19727 147.412 -35.2051 C 147.412 -72.6074 116.748 -103.271 79.2969 -103.271 C 41.8945 -103.271 11.2793 -72.6074 11.2793 -35.2051 C 11.2793 2.19727 41.9434 32.8613 79.3457 32.8613 Z M 79.3457 12.4023 C 52.9785 12.4023 31.7383 -8.83789 31.7383 -35.2051 C 31.7383 -61.5723 52.9297 -82.8125 79.2969 -82.8125 C 105.664 -82.8125 126.953 -61.5723 126.953 -35.2051 C 127.002 -8.83789 105.713 12.4023 79.3457 12.4023 Z M 65.2344 -7.76367 L 95.8008 -7.76367 C 100.977 -7.76367 104.15 -10.5957 104.15 -15.2344 C 104.15 -19.873 101.074 -22.5586 95.8008 -22.5586 L 83.3496 -22.5586 L 83.3496 -23.1445 L 91.1621 -30.3223 C 98.3398 -36.4258 101.807 -41.3574 101.807 -47.3633 C 101.807 -57.5195 92.8223 -64.4043 79.5898 -64.4043 C 69.043 -64.4043 60.498 -59.5215 57.8613 -52.2461 C 57.4219 -51.0742 57.2266 -49.8535 57.2266 -48.584 C 57.2266 -44.0918 60.4492 -41.6992 65.2344 -41.6992 C 69.043 -41.6992 70.8496 -43.6035 72.4121 -45.5566 C 74.0234 -47.6074 75.6348 -49.8535 78.7598 -49.8535 C 81.6406 -49.8535 83.3984 -48.291 83.3984 -45.752 C 83.3984 -42.9688 81.3965 -40.3809 77.1484 -36.7676 L 61.377 -22.7051 C 58.1543 -19.9707 57.4707 -17.5293 57.4707 -14.8926 C 57.4707 -10.7422 60.6934 -7.76367 65.2344 -7.76367 Z"/>
  </g>
  <g id="Heavy-L" transform="matrix(1 0 0 1 2558.39 1556)">
   <path d="M 78.2715 31.7871 C 115.088 31.7871 145.312 1.5625 145.312 -35.2051 C 145.312 -72.0215 115.039 -102.246 78.2715 -102.246 C 41.4551 -102.246 11.2793 -72.0215 11.2793 -35.2051 C 11.2793 1.5625 41.5039 31.7871 78.2715 31.7871 Z M 78.2715 14.0137 C 51.0254 14.0137 29.0527 -7.95898 29.0527 -35.2051 C 29.0527 -62.5 50.9766 -84.4727 78.2715 -84.4727 C 105.518 -84.4727 127.49 -62.5 127.539 -35.2051 C 127.539 -7.95898 105.566 14.0137 78.2715 14.0137 Z M 64.1602 -7.51953 L 95.1172 -7.51953 C 99.5605 -7.51953 102.344 -10.0586 102.344 -14.0625 C 102.344 -18.1641 99.6582 -20.5566 95.1172 -20.5566 L 79.8828 -20.5566 L 79.8828 -21.0938 L 89.5996 -30.6152 C 96.4355 -36.7188 99.9512 -41.6504 99.9512 -47.8027 C 99.9512 -57.7637 91.3086 -64.502 78.5156 -64.502 C 68.4082 -64.502 60.0098 -59.5215 57.5684 -52.2949 C 57.1777 -51.1719 57.0312 -50.0488 57.0312 -48.9258 C 57.0312 -44.9707 59.8145 -42.8223 63.9648 -42.8223 C 67.3828 -42.8223 68.9941 -44.5801 70.3613 -46.4355 C 71.9238 -49.0723 74.0723 -51.7578 77.9785 -51.7578 C 81.6895 -51.7578 84.0332 -49.707 84.0332 -46.4355 C 84.0332 -43.2129 81.6895 -40.332 77.4902 -36.5723 L 60.5957 -20.5566 C 57.9102 -18.2617 57.2754 -16.1621 57.2754 -13.8672 C 57.2754 -10.1562 60.0586 -7.51953 64.1602 -7.51953 Z"/>
  </g>
  <g id="Bold-L" transform="matrix(1 0 0 1 2262.88 1556)">
   <path d="M 77.0996 30.5664 C 113.232 30.5664 142.92 0.878906 142.92 -35.2539 C 142.92 -71.3379 113.184 -101.074 77.0508 -101.074 C 40.9668 -101.074 11.2793 -71.3379 11.2793 -35.2539 C 11.2793 0.878906 41.0156 30.5664 77.0996 30.5664 Z M 77.0996 15.8203 C 48.8281 15.8203 26.0742 -6.98242 26.0742 -35.2539 C 26.0742 -63.5254 48.7793 -86.2793 77.0508 -86.2793 C 105.371 -86.2793 128.125 -63.5254 128.174 -35.2539 C 128.174 -6.98242 105.371 15.8203 77.0996 15.8203 Z M 62.9395 -7.27539 L 94.3359 -7.27539 C 97.998 -7.27539 100.342 -9.42383 100.342 -12.793 C 100.342 -16.2598 98.0469 -18.2617 94.3359 -18.2617 L 75.9766 -18.2617 L 75.9766 -18.7988 L 87.8418 -30.9082 C 94.2871 -37.0605 97.8516 -41.9922 97.8516 -48.291 C 97.8516 -58.1055 89.6484 -64.6484 77.3438 -64.6484 C 67.6758 -64.6484 59.4727 -59.5215 57.2266 -52.2949 C 56.9336 -51.2695 56.7871 -50.293 56.7871 -49.3164 C 56.7871 -45.9961 59.082 -44.0918 62.5488 -44.0918 C 65.4785 -44.0918 66.8945 -45.6543 68.1152 -47.4121 C 69.5801 -50.6836 72.3145 -53.9062 77.0996 -53.9062 C 81.7871 -53.9062 84.7656 -51.2695 84.7656 -47.2168 C 84.7656 -43.5059 81.9824 -40.2832 77.9297 -36.377 L 59.7656 -18.2129 C 57.666 -16.3086 57.0801 -14.5996 57.0801 -12.6953 C 57.0801 -9.47266 59.4238 -7.27539 62.9395 -7.27539 Z"/>
  </g>
  <g id="Semibold-L" transform="matrix(1 0 0 1 1966.97 1556)">
   <path d="M 76.2695 29.7363 C 111.914 29.7363 141.309 0.390625 141.309 -35.2539 C 141.309 -70.8984 111.865 -100.244 76.2695 -100.244 C 40.625 -100.244 11.2793 -70.8984 11.2793 -35.2539 C 11.2793 0.390625 40.6738 29.7363 76.2695 29.7363 Z M 76.2695 17.041 C 47.3145 17.041 24.0234 -6.25 24.0234 -35.2539 C 24.0234 -64.209 47.2656 -87.5488 76.2695 -87.5488 C 105.225 -87.5488 128.564 -64.209 128.613 -35.2539 C 128.662 -6.25 105.273 17.041 76.2695 17.041 Z M 62.0605 -7.12891 L 93.7988 -7.12891 C 96.875 -7.12891 98.9746 -8.98438 98.9746 -11.9141 C 98.9746 -14.9414 96.9238 -16.6992 93.7988 -16.6992 L 73.291 -16.6992 L 73.291 -17.1875 L 86.6211 -31.1035 C 92.8223 -37.3047 96.3867 -42.1875 96.3867 -48.6328 C 96.3867 -58.3008 88.4766 -64.7461 76.5625 -64.7461 C 67.1387 -64.7461 59.082 -59.5215 57.0312 -52.2949 C 56.7383 -51.3672 56.5918 -50.4883 56.5918 -49.5605 C 56.5918 -46.6797 58.5938 -44.9707 61.5723 -44.9707 C 64.1602 -44.9707 65.4297 -46.3867 66.5039 -48.0957 C 68.0176 -51.8066 71.0938 -55.3711 76.5137 -55.3711 C 81.7871 -55.3711 85.2539 -52.3438 85.2539 -47.7539 C 85.2539 -43.7012 82.2266 -40.2344 78.1738 -36.2305 L 59.1797 -16.6016 C 57.4707 -14.9902 56.9336 -13.5254 56.9336 -11.8652 C 56.9336 -9.0332 58.9355 -7.12891 62.0605 -7.12891 Z"/>
  </g>
  <g id="Medium-L" transform="matrix(1 0 0 1 1670.87 1556)">
   <path d="M 75.6836 29.1504 C 110.938 29.1504 140.088 0 140.088 -35.2539 C 140.088 -70.5078 110.889 -99.6582 75.6348 -99.6582 C 40.3809 -99.6582 11.2793 -70.5078 11.2793 -35.2539 C 11.2793 0 40.3809 29.1504 75.6836 29.1504 Z M 75.6836 18.0176 C 46.1426 18.0176 22.4609 -5.76172 22.4609 -35.2539 C 22.4609 -64.7461 46.1426 -88.5254 75.6348 -88.5254 C 105.127 -88.5254 128.906 -64.7461 128.906 -35.2539 C 128.955 -5.76172 105.176 18.0176 75.6836 18.0176 Z M 61.4258 -6.98242 L 93.4082 -6.98242 C 96.0938 -6.98242 97.9004 -8.64258 97.9004 -11.2793 C 97.9004 -13.9648 96.0938 -15.5273 93.4082 -15.5273 L 71.2891 -15.5273 L 71.2891 -15.9668 L 85.6934 -31.25 C 91.748 -37.5 95.2637 -42.3828 95.2637 -48.877 C 95.2637 -58.4473 87.5488 -64.7949 75.9277 -64.7949 C 66.748 -64.7949 58.7891 -59.5215 56.8359 -52.3438 C 56.5918 -51.416 56.4941 -50.5859 56.4941 -49.7559 C 56.4941 -47.168 58.252 -45.6055 60.8398 -45.6055 C 63.1836 -45.6055 64.3555 -46.9238 65.332 -48.6328 C 66.7969 -52.6367 70.166 -56.4941 76.0742 -56.4941 C 81.8359 -56.4941 85.5957 -53.1738 85.5957 -48.1445 C 85.5957 -43.8965 82.4219 -40.2344 78.418 -36.084 L 58.6914 -15.332 C 57.3242 -14.0137 56.8359 -12.6953 56.8359 -11.2305 C 56.8359 -8.69141 58.5938 -6.98242 61.4258 -6.98242 Z"/>
  </g>
  <g id="Regular-L" transform="matrix(1 0 0 1 1374.97 1556)">
   <path d="M 74.8535 28.3203 C 109.668 28.3203 138.477 -0.488281 138.477 -35.2539 C 138.477 -70.0684 109.619 -98.877 74.8047 -98.877 C 40.0391 -98.877 11.2793 -70.0684 11.2793 -35.2539 C 11.2793 -0.488281 40.0879 28.3203 74.8535 28.3203 Z M 74.8535 19.2383 C 44.6777 19.2383 20.4102 -5.07812 20.4102 -35.2539 C 20.4102 -65.4785 44.6289 -89.7461 74.8047 -89.7461 C 105.029 -89.7461 129.297 -65.4785 129.346 -35.2539 C 129.395 -5.07812 105.078 19.2383 74.8535 19.2383 Z M 60.5957 -6.83594 L 92.8711 -6.83594 C 94.9707 -6.83594 96.5332 -8.25195 96.5332 -10.4004 C 96.5332 -12.6465 94.9707 -14.0137 92.8711 -14.0137 L 68.6035 -14.0137 L 68.6035 -14.4043 L 84.4727 -31.4453 C 90.2832 -37.7441 93.8477 -42.627 93.8477 -49.2188 C 93.8477 -58.6426 86.4258 -64.8926 75.1465 -64.8926 C 66.2598 -64.8926 58.4473 -59.5215 56.6406 -52.3438 C 56.3965 -51.5137 56.2988 -50.7812 56.2988 -50 C 56.2988 -47.8516 57.7637 -46.4355 59.8633 -46.4355 C 61.9141 -46.4355 62.8906 -47.6562 63.7695 -49.3164 C 65.1855 -53.7109 68.9941 -57.9102 75.4883 -57.9102 C 81.8848 -57.9102 86.084 -54.248 86.084 -48.6816 C 86.084 -44.0918 82.6172 -40.1855 78.6621 -35.9375 L 58.1055 -13.7207 C 57.1289 -12.6953 56.6895 -11.6211 56.6895 -10.4492 C 56.6895 -8.25195 58.1543 -6.83594 60.5957 -6.83594 Z"/>
  </g>
  <g id="Light-L" transform="matrix(1 0 0 1 1079.18 1556)">
   <path d="M 73.9258 27.3926 C 108.301 27.3926 136.621 -0.927734 136.621 -35.2539 C 136.621 -69.6289 108.252 -97.9492 73.9258 -97.9492 C 39.5508 -97.9492 11.2793 -69.6289 11.2793 -35.2539 C 11.2793 -0.927734 39.5996 27.3926 73.9258 27.3926 Z M 73.9258 20.5078 C 43.1152 20.5078 18.2129 -4.44336 18.2129 -35.2539 C 18.2129 -66.1133 43.0664 -91.0156 73.9258 -91.0156 C 104.736 -91.0156 129.688 -66.1133 129.736 -35.2539 C 129.736 -4.44336 104.785 20.5078 73.9258 20.5078 Z M 59.8633 -7.03125 L 91.9922 -7.03125 C 93.6523 -7.03125 94.873 -8.20312 94.873 -9.86328 C 94.873 -11.6211 93.6523 -12.6953 91.9922 -12.6953 L 66.0156 -12.6953 L 66.0156 -13.0859 L 83.0566 -31.6895 C 89.1602 -38.3301 92.2363 -43.0664 92.2363 -49.1211 C 92.2363 -58.3496 85.2051 -64.4531 74.4141 -64.4531 C 65.625 -64.4531 57.9102 -59.1309 56.4453 -51.8066 C 56.25 -51.0742 56.2012 -50.3906 56.2012 -49.707 C 56.2012 -47.998 57.3242 -46.8262 59.0332 -46.8262 C 60.7422 -46.8262 61.5723 -47.8027 62.1582 -49.2188 C 63.2324 -54.4434 67.7246 -58.8867 74.6582 -58.8867 C 81.5918 -58.8867 86.084 -54.8828 86.084 -48.8281 C 86.084 -44.2383 83.2031 -40.332 78.9551 -35.6934 L 57.8125 -12.6465 C 57.0312 -11.7676 56.6895 -10.9863 56.6895 -10.0098 C 56.6895 -8.20312 57.8613 -7.03125 59.8633 -7.03125 Z"/>
  </g>
  <g id="Thin-L" transform="matrix(1 0 0 1 783.693 1556)">
   <path d="M 72.7051 26.1719 C 106.494 26.1719 134.18 -1.51367 134.18 -35.2539 C 134.18 -69.043 106.494 -96.7285 72.7051 -96.7285 C 38.9648 -96.7285 11.2793 -69.043 11.2793 -35.2539 C 11.2793 -1.51367 38.9648 26.1719 72.7051 26.1719 Z M 72.7051 22.168 C 41.0156 22.168 15.2832 -3.56445 15.2832 -35.2539 C 15.2832 -66.9922 41.0156 -92.7246 72.7051 -92.7246 C 104.395 -92.7246 130.176 -66.9922 130.176 -35.2539 C 130.176 -3.56445 104.443 22.168 72.7051 22.168 Z M 58.8867 -7.27539 L 90.7715 -7.27539 C 91.8945 -7.27539 92.6758 -8.10547 92.6758 -9.17969 C 92.6758 -10.3027 91.8945 -11.0352 90.7715 -11.0352 L 62.5 -11.0352 L 62.5 -11.377 L 81.1523 -31.9824 C 87.6465 -39.1602 90.1367 -43.6523 90.1367 -49.0234 C 90.1367 -57.959 83.5938 -63.8184 73.4863 -63.8184 C 64.7949 -63.8184 57.2754 -58.5938 56.2012 -51.123 C 56.1035 -50.4395 56.0059 -49.9512 56.0059 -49.3652 C 56.0059 -48.1934 56.7871 -47.3633 57.959 -47.3633 C 59.1797 -47.3633 59.8145 -47.998 60.0098 -49.1211 C 60.5957 -55.4199 66.0156 -60.1074 73.5352 -60.1074 C 81.25 -60.1074 86.1328 -55.7617 86.1328 -49.0234 C 86.1328 -44.4824 83.9844 -40.5273 79.2969 -35.3516 L 57.4219 -11.1816 C 56.8848 -10.5957 56.6895 -10.1074 56.6895 -9.375 C 56.6895 -8.10547 57.5195 -7.27539 58.8867 -7.27539 Z"/>
  </g>
  <g id="Ultralight-L" transform="matrix(1 0 0 1 487.616 1556)">
   <path d="M 72.1191 25.5371 C 105.566 25.5371 132.91 -1.80664 132.91 -35.2539 C 132.91 -68.75 105.566 -96.0938 72.1191 -96.0938 C 38.623 -96.0938 11.2793 -68.75 11.2793 -35.2539 C 11.2793 -1.80664 38.623 25.5371 72.1191 25.5371 Z M 72.1191 23.0469 C 39.9414 23.0469 13.7695 -3.125 13.7695 -35.2539 C 13.7695 -67.4316 39.9414 -93.6035 72.1191 -93.6035 C 104.248 -93.6035 130.42 -67.4316 130.42 -35.2539 C 130.42 -3.125 104.248 23.0469 72.1191 23.0469 Z M 58.3984 -7.42188 L 90.1855 -7.42188 C 91.0156 -7.42188 91.5527 -8.05664 91.5527 -8.78906 C 91.5527 -9.61914 91.0156 -10.1562 90.1855 -10.1562 L 60.7422 -10.1562 L 60.7422 -10.4492 L 80.1758 -32.1289 C 86.8652 -39.5508 89.0625 -43.9453 89.0625 -48.9746 C 89.0625 -57.7637 82.7637 -63.5254 73.0469 -63.5254 C 64.3555 -63.5254 56.9336 -58.3008 56.0547 -50.7812 C 56.0059 -50.1465 55.9082 -49.707 55.9082 -49.1699 C 55.9082 -48.2422 56.4941 -47.6074 57.373 -47.6074 C 58.3984 -47.6074 58.9355 -48.0957 58.8867 -49.0723 C 59.2773 -55.957 65.1367 -60.7422 72.998 -60.7422 C 81.0547 -60.7422 86.1328 -56.25 86.1328 -49.1699 C 86.1328 -44.5801 84.375 -40.625 79.4434 -35.2051 L 57.2266 -10.4492 C 56.8359 -9.96094 56.6895 -9.61914 56.6895 -9.08203 C 56.6895 -8.05664 57.3242 -7.42188 58.3984 -7.42188 Z"/>
  </g>
  <g id="Black-M" transform="matrix(1 0 0 1 2870.97 1126)">
   <path d="M 62.4023 18.457 C 91.9922 18.457 116.113 -5.61523 116.113 -35.2051 C 116.113 -64.7949 91.9922 -88.8672 62.4023 -88.8672 C 32.8125 -88.8672 8.74023 -64.7949 8.74023 -35.2051 C 8.74023 -5.61523 32.8125 18.457 62.4023 18.457 Z M 62.4023 0.195312 C 42.8711 0.195312 27.002 -15.625 27.002 -35.2051 C 27.002 -54.7363 42.8711 -70.6055 62.4023 -70.6055 C 81.9824 -70.6055 97.8027 -54.7363 97.8027 -35.2051 C 97.8027 -15.625 81.9824 0.195312 62.4023 0.195312 Z M 51.6113 -14.3555 L 74.707 -14.3555 C 79.4434 -14.3555 82.2754 -16.8945 82.2754 -20.9473 C 82.2754 -25.0488 79.541 -27.4414 74.707 -27.4414 L 67.8711 -27.4414 L 67.8711 -27.9297 L 72.0215 -31.2012 C 78.1738 -36.084 80.6152 -39.7949 80.6152 -43.9941 C 80.6152 -52.002 73.3398 -57.4219 62.7441 -57.4219 C 54.1016 -57.4219 47.2656 -53.8086 45.166 -48.1445 C 44.7754 -47.1191 44.5801 -46.0449 44.5801 -45.0195 C 44.5801 -40.9668 47.4609 -38.9648 51.8555 -38.9648 C 55.1758 -38.9648 56.7383 -40.5273 58.0078 -41.9922 C 59.082 -43.3105 60.0098 -44.4824 61.6211 -44.4824 C 63.0371 -44.4824 63.8184 -43.7988 63.8184 -42.5293 C 63.8184 -40.9668 62.9883 -39.4043 59.4238 -36.5234 L 48.4375 -27.7832 C 45.3125 -25.2441 44.7754 -23.0469 44.7754 -20.6543 C 44.7754 -16.9922 47.6562 -14.3555 51.6113 -14.3555 Z"/>
  </g>
  <g id="Heavy-M" transform="matrix(1 0 0 1 2575.19 1126)">
   <path d="M 61.5234 17.5293 C 90.5273 17.5293 114.258 -6.20117 114.258 -35.2051 C 114.258 -64.2578 90.5273 -87.9883 61.4746 -87.9883 C 32.4707 -87.9883 8.74023 -64.2578 8.74023 -35.2051 C 8.74023 -6.20117 32.4707 17.5293 61.5234 17.5293 Z M 61.5234 1.61133 C 41.1133 1.61133 24.6582 -14.8438 24.6582 -35.2051 C 24.6582 -55.6152 41.1133 -72.0703 61.4746 -72.0703 C 81.8848 -72.0703 98.3398 -55.6152 98.3398 -35.2051 C 98.3398 -14.8438 81.8848 1.61133 61.5234 1.61133 Z M 50.6348 -14.0625 L 74.1699 -14.0625 C 78.2227 -14.0625 80.7129 -16.2598 80.7129 -19.873 C 80.7129 -23.4863 78.3203 -25.5859 74.1699 -25.5859 L 64.7949 -25.5859 L 64.7949 -26.0254 L 70.6543 -31.4453 C 76.416 -36.2305 78.9551 -39.9902 78.9551 -44.4824 C 78.9551 -52.3438 72.0215 -57.666 61.7676 -57.666 C 53.5156 -57.666 46.875 -53.9062 44.873 -48.291 C 44.5312 -47.3633 44.3848 -46.3867 44.3848 -45.4102 C 44.3848 -41.8945 46.875 -40.0879 50.6836 -40.0879 C 53.6133 -40.0879 55.0293 -41.5039 56.2012 -43.0176 C 57.3242 -44.6777 58.6426 -46.3379 60.9863 -46.3379 C 63.1836 -46.3379 64.502 -45.166 64.502 -43.2617 C 64.502 -41.2109 63.1836 -39.3066 59.7656 -36.377 L 47.6562 -25.7324 C 45.1172 -23.584 44.5801 -21.6797 44.5801 -19.6289 C 44.5801 -16.3574 47.0703 -14.0625 50.6348 -14.0625 Z"/>
  </g>
  <g id="Bold-M" transform="matrix(1 0 0 1 2279.5 1126)">
   <path d="M 60.498 16.5039 C 88.8672 16.5039 112.207 -6.83594 112.207 -35.2051 C 112.207 -63.623 88.8672 -86.9629 60.4492 -86.9629 C 32.0312 -86.9629 8.74023 -63.623 8.74023 -35.2051 C 8.74023 -6.83594 32.0801 16.5039 60.498 16.5039 Z M 60.498 3.22266 C 39.1602 3.22266 22.0703 -13.916 22.0703 -35.2051 C 22.0703 -56.543 39.1602 -73.6816 60.4492 -73.6816 C 81.7383 -73.6816 98.9258 -56.543 98.9258 -35.2051 C 98.9746 -13.916 81.7871 3.22266 60.498 3.22266 Z M 49.5117 -13.7207 L 73.584 -13.7207 C 76.9043 -13.7207 79.0039 -15.625 79.0039 -18.6523 C 79.0039 -21.6797 76.9531 -23.4863 73.584 -23.4863 L 61.2793 -23.4863 L 61.2793 -23.877 L 69.1406 -31.6895 C 74.4141 -36.4258 77.0996 -40.2344 77.0996 -45.0684 C 77.0996 -52.7832 70.5078 -57.959 60.6934 -57.959 C 52.8809 -57.959 46.4355 -54.0527 44.5801 -48.4375 C 44.2871 -47.6074 44.1406 -46.7773 44.1406 -45.8984 C 44.1406 -42.9688 46.2402 -41.3086 49.3652 -41.3086 C 51.9043 -41.3086 53.125 -42.627 54.1504 -44.0918 C 55.3711 -46.2402 57.1289 -48.3887 60.3027 -48.3887 C 63.3301 -48.3887 65.2344 -46.6797 65.2344 -44.043 C 65.2344 -41.5039 63.3301 -39.209 60.1074 -36.2305 L 46.8262 -23.4863 C 44.8242 -21.7773 44.3359 -20.166 44.3359 -18.457 C 44.3359 -15.6738 46.4355 -13.7207 49.5117 -13.7207 Z"/>
  </g>
  <g id="Semibold-M" transform="matrix(1 0 0 1 1983.5 1126)">
   <path d="M 59.7656 15.8203 C 87.7441 15.8203 110.791 -7.27539 110.791 -35.2539 C 110.791 -63.2324 87.6953 -86.2793 59.7656 -86.2793 C 31.7871 -86.2793 8.74023 -63.2324 8.74023 -35.2539 C 8.74023 -7.27539 31.7871 15.8203 59.7656 15.8203 Z M 59.7656 4.3457 C 37.8418 4.3457 20.2637 -13.3301 20.2637 -35.2539 C 20.2637 -57.1777 37.793 -74.8047 59.7656 -74.8047 C 81.6895 -74.8047 99.3164 -57.1777 99.3652 -35.2539 C 99.3652 -13.3301 81.6895 4.3457 59.7656 4.3457 Z M 48.7305 -13.4766 L 73.1934 -13.4766 C 75.9766 -13.4766 77.832 -15.1367 77.832 -17.7734 C 77.832 -20.459 76.0254 -22.0215 73.1934 -22.0215 L 58.8867 -22.0215 L 58.8867 -22.4121 L 68.1152 -31.8848 C 72.998 -36.5723 75.8301 -40.4297 75.8301 -45.459 C 75.8301 -53.0762 69.4824 -58.1543 59.9121 -58.1543 C 52.4414 -58.1543 46.0938 -54.1504 44.3359 -48.584 C 44.0918 -47.8027 43.9941 -47.0215 43.9941 -46.2402 C 43.9941 -43.7012 45.8008 -42.1875 48.4375 -42.1875 C 50.7324 -42.1875 51.8066 -43.4082 52.7832 -44.873 C 54.0039 -47.2656 56.0547 -49.8047 59.8145 -49.8047 C 63.4277 -49.8047 65.7715 -47.7539 65.7715 -44.5801 C 65.7715 -41.6504 63.4766 -39.1113 60.4004 -36.1328 L 46.2402 -21.9238 C 44.6777 -20.5078 44.1895 -19.1406 44.1895 -17.6758 C 44.1895 -15.1855 45.9961 -13.4766 48.7305 -13.4766 Z"/>
  </g>
  <g id="Medium-M" transform="matrix(1 0 0 1 1687.3 1126)">
   <path d="M 59.2285 15.2344 C 86.9141 15.2344 109.766 -7.61719 109.766 -35.2539 C 109.766 -62.8906 86.8652 -85.7422 59.1797 -85.7422 C 31.543 -85.7422 8.74023 -62.8906 8.74023 -35.2539 C 8.74023 -7.61719 31.5918 15.2344 59.2285 15.2344 Z M 59.2285 5.17578 C 36.8164 5.17578 18.8965 -12.8418 18.8965 -35.2539 C 18.8965 -57.666 36.8164 -75.6348 59.1797 -75.6348 C 81.5918 -75.6348 99.6094 -57.666 99.6582 -35.2539 C 99.707 -12.8418 81.6406 5.17578 59.2285 5.17578 Z M 48.1445 -13.3301 L 72.9004 -13.3301 C 75.293 -13.3301 76.9043 -14.7949 76.9043 -17.1387 C 76.9043 -19.5312 75.293 -20.9473 72.9004 -20.9473 L 57.0312 -20.9473 L 57.0312 -21.2891 L 67.2852 -31.9824 C 71.9727 -36.6699 74.9023 -40.5273 74.9023 -45.752 C 74.9023 -53.2715 68.7012 -58.3008 59.375 -58.3008 C 52.1484 -58.3008 45.8984 -54.1992 44.1895 -48.6816 C 43.9453 -47.9004 43.8965 -47.2168 43.8965 -46.4844 C 43.8965 -44.2383 45.459 -42.8711 47.7539 -42.8711 C 49.8047 -42.8711 50.8301 -43.9941 51.709 -45.4102 C 52.9785 -48.0957 55.2734 -50.8789 59.4727 -50.8789 C 63.5254 -50.8789 66.1621 -48.5352 66.1621 -45.0195 C 66.1621 -41.7969 63.5742 -39.0625 60.5957 -36.0352 L 45.8008 -20.752 C 44.5312 -19.5312 44.0918 -18.3594 44.0918 -17.0898 C 44.0918 -14.8438 45.6543 -13.3301 48.1445 -13.3301 Z"/>
  </g>
  <g id="Regular-M" transform="matrix(1 0 0 1 1391.3 1126)">
   <path d="M 58.5449 14.5508 C 85.791 14.5508 108.35 -8.05664 108.35 -35.2539 C 108.35 -62.5 85.7422 -85.0586 58.4961 -85.0586 C 31.2988 -85.0586 8.74023 -62.5 8.74023 -35.2539 C 8.74023 -8.05664 31.3477 14.5508 58.5449 14.5508 Z M 58.5449 6.25 C 35.498 6.25 17.0898 -12.207 17.0898 -35.2539 C 17.0898 -58.3008 35.4492 -76.7578 58.4961 -76.7578 C 81.543 -76.7578 100 -58.3008 100.049 -35.2539 C 100.098 -12.207 81.5918 6.25 58.5449 6.25 Z M 47.3633 -13.0859 L 72.5098 -13.0859 C 74.3652 -13.0859 75.7324 -14.3555 75.7324 -16.3086 C 75.7324 -18.3105 74.3652 -19.4824 72.5098 -19.4824 L 54.6875 -19.4824 L 54.6875 -19.8242 L 66.2598 -32.1777 C 70.6055 -36.8164 73.6328 -40.6738 73.6328 -46.0938 C 73.6328 -53.5645 67.6758 -58.4961 58.6426 -58.4961 C 51.709 -58.4961 45.5566 -54.2969 43.9941 -48.7793 C 43.7988 -48.0957 43.7012 -47.4609 43.7012 -46.8262 C 43.7012 -44.9707 45.0195 -43.7012 46.875 -43.7012 C 48.6328 -43.7012 49.5117 -44.7754 50.3418 -46.1914 C 51.6602 -49.1211 54.1992 -52.2949 58.9844 -52.2949 C 63.623 -52.2949 66.6992 -49.5605 66.6992 -45.5566 C 66.6992 -41.9922 63.6719 -38.9648 60.8398 -35.9375 L 45.2148 -19.1895 C 44.3359 -18.2617 43.9453 -17.334 43.9453 -16.3086 C 43.9453 -14.3555 45.2148 -13.0859 47.3633 -13.0859 Z"/>
  </g>
  <g id="Light-M" transform="matrix(1 0 0 1 1095.42 1126)">
   <path d="M 57.7148 13.7207 C 84.5215 13.7207 106.689 -8.44727 106.689 -35.2539 C 106.689 -62.1094 84.5215 -84.2285 57.666 -84.2285 C 30.8594 -84.2285 8.74023 -62.1094 8.74023 -35.2539 C 8.74023 -8.44727 30.9082 13.7207 57.7148 13.7207 Z M 57.7148 7.37305 C 34.082 7.37305 15.0879 -11.6699 15.0879 -35.2539 C 15.0879 -58.8867 34.082 -77.9297 57.666 -77.9297 C 81.2988 -77.9297 100.342 -58.8867 100.391 -35.2539 C 100.391 -11.6699 81.3477 7.37305 57.7148 7.37305 Z M 46.7285 -13.2812 L 71.6797 -13.2812 C 73.1934 -13.2812 74.2676 -14.3066 74.2676 -15.8203 C 74.2676 -17.3828 73.1934 -18.3594 71.6797 -18.3594 L 52.2949 -18.3594 L 52.2949 -18.6523 L 64.9902 -32.373 C 69.5801 -37.3535 72.2168 -41.1133 72.2168 -46.0449 C 72.2168 -53.2715 66.5527 -58.0566 58.0078 -58.0566 C 51.123 -58.0566 45.1172 -53.9062 43.8477 -48.3398 C 43.6523 -47.7051 43.6035 -47.168 43.6035 -46.582 C 43.6035 -45.0684 44.6289 -44.043 46.1426 -44.043 C 47.6074 -44.043 48.3398 -44.9219 48.877 -46.0938 C 49.9023 -49.8047 53.0273 -53.125 58.252 -53.125 C 63.3789 -53.125 66.6992 -50.1953 66.6992 -45.7031 C 66.6992 -42.1387 64.209 -39.1113 61.084 -35.6934 L 44.9707 -18.2129 C 44.2383 -17.4805 43.9453 -16.748 43.9453 -15.8691 C 43.9453 -14.3066 44.9707 -13.2812 46.7285 -13.2812 Z"/>
  </g>
  <g id="Thin-M" transform="matrix(1 0 0 1 799.806 1126)">
   <path d="M 56.6406 12.5977 C 82.9102 12.5977 104.492 -8.98438 104.492 -35.2539 C 104.492 -61.5723 82.9102 -83.1543 56.5918 -83.1543 C 30.3223 -83.1543 8.74023 -61.5723 8.74023 -35.2539 C 8.74023 -8.98438 30.3223 12.5977 56.6406 12.5977 Z M 56.6406 8.88672 C 32.2266 8.88672 12.4512 -10.8887 12.4512 -35.2539 C 12.4512 -59.6191 32.2266 -79.4434 56.5918 -79.4434 C 81.0059 -79.4434 100.781 -59.6191 100.781 -35.2539 C 100.781 -10.8887 81.0059 8.88672 56.6406 8.88672 Z M 45.8496 -13.5254 L 70.6055 -13.5254 C 71.582 -13.5254 72.2656 -14.209 72.2656 -15.1855 C 72.2656 -16.2109 71.582 -16.8457 70.6055 -16.8457 L 49.2188 -16.8457 L 49.2188 -17.0898 L 63.2812 -32.666 C 68.2617 -38.0859 70.3125 -41.6016 70.3125 -45.9473 C 70.3125 -52.9297 65.1367 -57.5195 57.1777 -57.5195 C 50.3906 -57.5195 44.5312 -53.418 43.6035 -47.7051 C 43.5059 -47.168 43.457 -46.7285 43.457 -46.2402 C 43.457 -45.2148 44.0918 -44.5312 45.166 -44.5312 C 46.1914 -44.5312 46.7285 -45.0684 46.9727 -46.0449 C 47.5586 -50.6836 51.5137 -54.248 57.2266 -54.248 C 63.0371 -54.248 66.748 -50.9766 66.748 -45.8984 C 66.748 -42.334 64.9414 -39.3066 61.377 -35.4004 L 44.5801 -16.9434 C 44.1406 -16.4062 43.9453 -15.918 43.9453 -15.332 C 43.9453 -14.209 44.6777 -13.5254 45.8496 -13.5254 Z"/>
  </g>
  <g id="Ultralight-M" transform="matrix(1 0 0 1 503.656 1126)">
   <path d="M 56.0547 12.0605 C 82.0801 12.0605 103.369 -9.22852 103.369 -35.2539 C 103.369 -61.2793 82.0801 -82.5684 56.0547 -82.5684 C 30.0293 -82.5684 8.74023 -61.2793 8.74023 -35.2539 C 8.74023 -9.22852 30.0293 12.0605 56.0547 12.0605 Z M 56.0547 9.66797 C 31.2988 9.66797 11.1328 -10.498 11.1328 -35.2539 C 11.1328 -60.0586 31.2988 -80.1758 56.0547 -80.1758 C 80.8594 -80.1758 100.977 -60.0586 100.977 -35.2539 C 100.977 -10.498 80.8594 9.66797 56.0547 9.66797 Z M 45.4102 -13.623 L 70.0684 -13.623 C 70.8008 -13.623 71.2891 -14.209 71.2891 -14.8438 C 71.2891 -15.5762 70.8008 -16.0645 70.0684 -16.0645 L 47.6074 -16.0645 L 47.6074 -16.3086 L 62.4512 -32.7637 C 67.5781 -38.4766 69.3359 -41.8945 69.3359 -45.8984 C 69.3359 -52.7832 64.4043 -57.2266 56.7383 -57.2266 C 50 -57.2266 44.2383 -53.1738 43.5059 -47.4121 C 43.457 -46.875 43.3594 -46.5332 43.3594 -46.0938 C 43.3594 -45.3125 43.8477 -44.7754 44.6289 -44.7754 C 45.5078 -44.7754 45.9473 -45.166 45.9961 -45.9961 C 46.3379 -51.123 50.7324 -54.834 56.7383 -54.834 C 62.8906 -54.834 66.748 -51.3672 66.748 -45.9961 C 66.748 -42.4316 65.2832 -39.4043 61.5234 -35.2539 L 44.4336 -16.2598 C 44.043 -15.8203 43.9453 -15.5273 43.9453 -15.0391 C 43.9453 -14.209 44.4824 -13.623 45.4102 -13.623 Z"/>
  </g>
  <g id="Black-S" transform="matrix(1 0 0 1 2884.57 696)">
   <path d="M 48.8281 6.78711 C 71.9727 6.78711 90.8203 -12.0605 90.8203 -35.2051 C 90.8203 -58.3496 71.9727 -77.1973 48.8281 -77.1973 C 25.6836 -77.1973 6.83594 -58.3496 6.83594 -35.2051 C 6.83594 -12.0605 25.6836 6.78711 48.8281 6.78711 Z M 48.8281 -7.37305 C 33.4473 -7.37305 20.9961 -19.8242 20.9961 -35.2051 C 20.9961 -50.5859 33.4473 -63.0371 48.8281 -63.0371 C 64.209 -63.0371 76.6602 -50.5859 76.6602 -35.2051 C 76.6602 -19.8242 64.209 -7.37305 48.8281 -7.37305 Z M 40.3809 -18.8477 L 58.4961 -18.8477 C 62.1582 -18.8477 64.3555 -20.8008 64.3555 -23.9746 C 64.3555 -27.1484 62.2559 -29.0039 58.4961 -29.0039 L 52.9785 -29.0039 L 52.9785 -29.3945 L 56.3477 -32.0801 C 61.1328 -35.8887 63.0371 -38.8184 63.0371 -42.1387 C 63.0371 -48.3887 57.373 -52.6367 49.0723 -52.6367 C 42.334 -52.6367 37.0117 -49.8047 35.3516 -45.3613 C 35.0586 -44.5801 34.9121 -43.75 34.9121 -42.9199 C 34.9121 -39.7949 37.1582 -38.2324 40.5273 -38.2324 C 43.1152 -38.2324 44.3359 -39.4531 45.3125 -40.625 C 46.1914 -41.6504 46.9238 -42.627 48.2422 -42.627 C 49.4141 -42.627 50.0488 -42.041 50.0488 -41.0156 C 50.0488 -39.7461 49.3652 -38.4766 46.582 -36.2305 L 37.8906 -29.248 C 35.498 -27.2949 35.0586 -25.5859 35.0586 -23.7305 C 35.0586 -20.8984 37.3047 -18.8477 40.3809 -18.8477 Z"/>
  </g>
  <g id="Heavy-S" transform="matrix(1 0 0 1 2588.47 696)">
   <path d="M 48.2422 6.15234 C 70.9961 6.15234 89.5996 -12.4512 89.5996 -35.2051 C 89.5996 -57.959 70.9961 -76.6113 48.1934 -76.6113 C 25.4395 -76.6113 6.83594 -57.959 6.83594 -35.2051 C 6.83594 -12.4512 25.4395 6.15234 48.2422 6.15234 Z M 48.2422 -6.39648 C 32.2754 -6.39648 19.4336 -19.2871 19.4336 -35.2051 C 19.4336 -51.1719 32.2754 -64.0137 48.1934 -64.0137 C 64.1602 -64.0137 77.002 -51.1719 77.0508 -35.2051 C 77.0508 -19.2871 64.1602 -6.39648 48.2422 -6.39648 Z M 39.6973 -18.6035 L 58.2031 -18.6035 C 61.377 -18.6035 63.3301 -20.3613 63.3301 -23.1934 C 63.3301 -26.0254 61.4746 -27.6855 58.2031 -27.6855 L 50.8301 -27.6855 L 50.8301 -28.0762 L 55.4688 -32.2266 C 59.8633 -35.9863 61.9141 -38.916 61.9141 -42.5293 C 61.9141 -48.6816 56.4453 -52.8809 48.3887 -52.8809 C 41.9434 -52.8809 36.7676 -49.9512 35.1562 -45.5078 C 34.9121 -44.7754 34.7656 -44.043 34.7656 -43.2617 C 34.7656 -40.4785 36.7676 -39.0625 39.6973 -39.0625 C 42.041 -39.0625 43.1641 -40.1855 44.0918 -41.4062 C 45.0195 -42.627 45.9961 -43.9453 47.8516 -43.9453 C 49.5605 -43.9453 50.5859 -43.0176 50.5859 -41.5527 C 50.5859 -39.8926 49.4141 -38.3789 46.8262 -36.1328 L 37.3535 -27.7832 C 35.3516 -26.123 34.9121 -24.6094 34.9121 -22.998 C 34.9121 -20.4102 36.9141 -18.6035 39.6973 -18.6035 Z"/>
  </g>
  <g id="Bold-S" transform="matrix(1 0 0 1 2292.44 696)">
   <path d="M 47.5586 5.46875 C 69.873 5.46875 88.2324 -12.8906 88.2324 -35.2539 C 88.2324 -57.5684 69.873 -75.9277 47.5098 -75.9277 C 25.1953 -75.9277 6.83594 -57.5684 6.83594 -35.2539 C 6.83594 -12.8906 25.1953 5.46875 47.5586 5.46875 Z M 47.5586 -5.32227 C 30.957 -5.32227 17.6758 -18.6523 17.6758 -35.2539 C 17.6758 -51.8066 30.957 -65.1367 47.5098 -65.1367 C 64.1113 -65.1367 77.4414 -51.8066 77.4414 -35.2539 C 77.4414 -18.6523 64.1113 -5.32227 47.5586 -5.32227 Z M 38.916 -18.3105 L 57.8613 -18.3105 C 60.498 -18.3105 62.207 -19.8242 62.207 -22.3145 C 62.207 -24.8047 60.5469 -26.2207 57.8613 -26.2207 L 48.4863 -26.2207 L 48.4863 -26.5625 L 54.4434 -32.4219 C 58.4473 -36.0352 60.6934 -39.0625 60.6934 -42.9688 C 60.6934 -49.0723 55.4688 -53.125 47.6562 -53.125 C 41.5527 -53.125 36.4746 -50.0488 34.9609 -45.7031 C 34.7168 -45.0195 34.6191 -44.3359 34.6191 -43.7012 C 34.6191 -41.3086 36.2793 -39.9902 38.8184 -39.9902 C 40.8691 -39.9902 41.8457 -41.0645 42.7246 -42.2363 C 43.75 -43.75 44.9707 -45.4102 47.4121 -45.4102 C 49.707 -45.4102 51.1719 -44.0918 51.1719 -42.1387 C 51.1719 -40.0879 49.5117 -38.2812 47.0703 -36.084 L 36.7188 -26.1719 C 35.1562 -24.8047 34.7656 -23.5352 34.7656 -22.168 C 34.7656 -19.873 36.4258 -18.3105 38.916 -18.3105 Z"/>
  </g>
  <g id="Semibold-S" transform="matrix(1 0 0 1 1996.2 696)">
   <path d="M 47.0703 4.98047 C 69.0918 4.98047 87.3047 -13.1836 87.3047 -35.2539 C 87.3047 -57.2754 69.0918 -75.4883 47.0215 -75.4883 C 25 -75.4883 6.83594 -57.2754 6.83594 -35.2539 C 6.83594 -13.1836 25.0488 4.98047 47.0703 4.98047 Z M 47.0703 -4.58984 C 30.0781 -4.58984 16.4551 -18.2129 16.4551 -35.2539 C 16.4551 -52.2461 30.0293 -65.8691 47.0215 -65.8691 C 64.0625 -65.8691 77.6855 -52.2461 77.7344 -35.2539 C 77.7344 -18.2129 64.0625 -4.58984 47.0703 -4.58984 Z M 38.3789 -18.1152 L 57.6172 -18.1152 C 59.9121 -18.1152 61.4258 -19.4824 61.4258 -21.6797 C 61.4258 -23.9258 59.9121 -25.2441 57.6172 -25.2441 L 46.8262 -25.2441 L 46.8262 -25.5371 L 53.7598 -32.5195 C 57.5195 -36.1328 59.8633 -39.1602 59.8633 -43.2617 C 59.8633 -49.3164 54.7363 -53.3203 47.1191 -53.3203 C 41.2598 -53.3203 36.2793 -50.1465 34.8145 -45.8496 C 34.5703 -45.2148 34.5215 -44.5801 34.5215 -43.9453 C 34.5215 -41.8457 35.9863 -40.5762 38.1836 -40.5762 C 40.0391 -40.5762 40.9668 -41.6504 41.7969 -42.8223 C 42.8711 -44.4824 44.2871 -46.4355 47.1191 -46.4355 C 49.8047 -46.4355 51.5625 -44.873 51.5625 -42.5293 C 51.5625 -40.2344 49.5605 -38.2324 47.2168 -35.9863 L 36.2793 -25.0977 C 35.0098 -23.9258 34.6191 -22.8027 34.6191 -21.582 C 34.6191 -19.5312 36.1328 -18.1152 38.3789 -18.1152 Z"/>
  </g>
  <g id="Medium-S" transform="matrix(1 0 0 1 1699.83 696)">
   <path d="M 46.7285 4.63867 C 68.5547 4.63867 86.6211 -13.4277 86.6211 -35.2539 C 86.6211 -57.0801 68.5059 -75.1465 46.6797 -75.1465 C 24.8535 -75.1465 6.83594 -57.0801 6.83594 -35.2539 C 6.83594 -13.4277 24.9023 4.63867 46.7285 4.63867 Z M 46.7285 -4.00391 C 29.3945 -4.00391 15.5273 -17.9199 15.5273 -35.2539 C 15.5273 -52.5879 29.3457 -66.4551 46.6797 -66.4551 C 64.0137 -66.4551 77.8809 -52.5879 77.9297 -35.2539 C 77.9785 -17.9199 64.0625 -4.00391 46.7285 -4.00391 Z M 37.9883 -17.9688 L 57.4219 -17.9688 C 59.4238 -17.9688 60.8398 -19.2383 60.8398 -21.2402 C 60.8398 -23.291 59.4727 -24.4629 57.4219 -24.4629 L 45.6055 -24.4629 L 45.6055 -24.7559 L 53.2227 -32.6172 C 56.7383 -36.1816 59.2285 -39.209 59.2285 -43.5059 C 59.2285 -49.4629 54.248 -53.4668 46.7285 -53.4668 C 41.0645 -53.4668 36.1328 -50.2441 34.668 -45.9473 C 34.4727 -45.3125 34.4238 -44.7266 34.4238 -44.1895 C 34.4238 -42.2363 35.7422 -41.0645 37.6953 -41.0645 C 39.4043 -41.0645 40.2832 -42.0898 41.0645 -43.2617 C 42.1875 -45.0684 43.75 -47.168 46.875 -47.168 C 49.8535 -47.168 51.8555 -45.459 51.8555 -42.8223 C 51.8555 -40.332 49.6094 -38.1836 47.3633 -35.9375 L 35.9863 -24.2188 C 34.9121 -23.2422 34.5215 -22.2168 34.5215 -21.1426 C 34.5215 -19.2383 35.8887 -17.9688 37.9883 -17.9688 Z"/>
  </g>
  <g id="Regular-S" transform="matrix(1 0 0 1 1403.58 696)">
   <path d="M 46.2402 4.15039 C 67.7734 4.15039 85.6934 -13.7207 85.6934 -35.2539 C 85.6934 -56.7871 67.7246 -74.6582 46.1914 -74.6582 C 24.707 -74.6582 6.83594 -56.7871 6.83594 -35.2539 C 6.83594 -13.7207 24.7559 4.15039 46.2402 4.15039 Z M 46.2402 -3.27148 C 28.5156 -3.27148 14.3555 -17.4805 14.3555 -35.2539 C 14.3555 -53.0273 28.4668 -67.2363 46.1914 -67.2363 C 63.9648 -67.2363 78.1738 -53.0273 78.2227 -35.2539 C 78.2715 -17.4805 64.0137 -3.27148 46.2402 -3.27148 Z M 37.4512 -17.8223 L 57.1777 -17.8223 C 58.8379 -17.8223 60.0586 -18.8965 60.0586 -20.6055 C 60.0586 -22.4121 58.8379 -23.4375 57.1777 -23.4375 L 43.9941 -23.4375 L 43.9941 -23.7305 L 52.5391 -32.7637 C 55.8105 -36.2305 58.3496 -39.3066 58.3496 -43.7988 C 58.3496 -49.707 53.5645 -53.6621 46.2402 -53.6621 C 40.7715 -53.6621 35.9375 -50.3418 34.5215 -46.0938 C 34.375 -45.5078 34.3262 -44.9707 34.3262 -44.4336 C 34.3262 -42.7734 35.4492 -41.6992 37.1094 -41.6992 C 38.623 -41.6992 39.3555 -42.627 40.1367 -43.8477 C 41.3086 -45.8008 43.0176 -48.1934 46.582 -48.1934 C 49.9512 -48.1934 52.2461 -46.1914 52.2461 -43.2129 C 52.2461 -40.4297 49.6582 -38.0859 47.5586 -35.8887 L 35.5469 -23.1445 C 34.8145 -22.3145 34.4238 -21.4844 34.4238 -20.6055 C 34.4238 -18.8965 35.5469 -17.8223 37.4512 -17.8223 Z"/>
  </g>
  <g id="Light-S" transform="matrix(1 0 0 1 1107.6 696)">
   <path d="M 45.5078 3.41797 C 66.6992 3.41797 84.2285 -14.0625 84.2285 -35.2539 C 84.2285 -56.4453 66.6504 -73.9258 45.5078 -73.9258 C 24.3164 -73.9258 6.83594 -56.4453 6.83594 -35.2539 C 6.83594 -14.0625 24.3652 3.41797 45.5078 3.41797 Z M 45.5078 -2.29492 C 27.2461 -2.29492 12.5977 -16.9922 12.5977 -35.2539 C 12.5977 -53.5156 27.1973 -68.2129 45.5078 -68.2129 C 63.7695 -68.2129 78.4668 -53.5156 78.5156 -35.2539 C 78.5156 -16.9922 63.8184 -2.29492 45.5078 -2.29492 Z M 36.8652 -17.9688 L 56.4941 -17.9688 C 57.8125 -17.9688 58.7402 -18.8477 58.7402 -20.2148 C 58.7402 -21.6309 57.8125 -22.4609 56.4941 -22.4609 L 41.8945 -22.4609 L 41.8945 -22.7051 L 51.416 -32.9102 C 54.8828 -36.7188 57.1289 -39.6484 57.1289 -43.75 C 57.1289 -49.4629 52.5879 -53.2715 45.7031 -53.2715 C 40.2832 -53.2715 35.498 -50 34.375 -45.6543 C 34.2773 -45.166 34.2285 -44.6777 34.2285 -44.2383 C 34.2285 -42.8711 35.1074 -41.9922 36.4258 -41.9922 C 37.6953 -41.9922 38.3301 -42.7734 38.8672 -43.7988 C 39.7461 -46.3867 41.9922 -48.9258 45.8984 -48.9258 C 49.7559 -48.9258 52.2461 -46.7285 52.2461 -43.3594 C 52.2461 -40.5762 50.0977 -38.2324 47.7539 -35.6934 L 35.3027 -22.2656 C 34.7168 -21.6309 34.4238 -20.9473 34.4238 -20.2148 C 34.4238 -18.8477 35.3516 -17.9688 36.8652 -17.9688 Z"/>
  </g>
  <g id="Thin-S" transform="matrix(1 0 0 1 811.867 696)">
   <path d="M 44.5801 2.49023 C 65.2832 2.49023 82.2754 -14.5508 82.2754 -35.2539 C 82.2754 -55.957 65.2344 -72.998 44.5312 -72.998 C 23.8281 -72.998 6.83594 -55.957 6.83594 -35.2539 C 6.83594 -14.5508 23.877 2.49023 44.5801 2.49023 Z M 44.5801 -0.927734 C 25.5859 -0.927734 10.2539 -16.3086 10.2539 -35.2539 C 10.2539 -54.1992 25.5859 -69.5801 44.5312 -69.5801 C 63.5254 -69.5801 78.8574 -54.1992 78.8574 -35.2539 C 78.8574 -16.3086 63.5254 -0.927734 44.5801 -0.927734 Z M 36.084 -18.1641 L 55.5176 -18.1641 C 56.3965 -18.1641 57.0312 -18.7988 57.0312 -19.6289 C 57.0312 -20.5566 56.3965 -21.0938 55.5176 -21.0938 L 39.1602 -21.0938 L 39.1602 -21.3379 L 49.9023 -33.1543 C 53.7109 -37.3535 55.4688 -40.1367 55.4688 -43.6523 C 55.4688 -49.1699 51.3184 -52.7832 44.9707 -52.7832 C 39.6484 -52.7832 35.0098 -49.6094 34.2285 -45.1172 C 34.1309 -44.6777 34.082 -44.3359 34.082 -43.9453 C 34.082 -43.0176 34.668 -42.4316 35.5469 -42.4316 C 36.4746 -42.4316 36.9141 -42.9199 37.1582 -43.7012 C 37.6953 -47.168 40.6738 -49.9023 45.0195 -49.9023 C 49.4629 -49.9023 52.2949 -47.4121 52.2949 -43.5547 C 52.2949 -40.7715 50.7324 -38.3789 47.998 -35.4492 L 35.0098 -21.1426 C 34.6191 -20.6543 34.4238 -20.2637 34.4238 -19.7266 C 34.4238 -18.7988 35.0586 -18.1641 36.084 -18.1641 Z"/>
  </g>
  <g id="Ultralight-S" transform="matrix(1 0 0 1 515.644 696)">
   <path d="M 44.043 1.95312 C 64.502 1.95312 81.2988 -14.7949 81.2988 -35.2539 C 81.2988 -55.7129 64.502 -72.4609 44.043 -72.4609 C 23.584 -72.4609 6.83594 -55.7129 6.83594 -35.2539 C 6.83594 -14.7949 23.584 1.95312 44.043 1.95312 Z M 44.043 -0.244141 C 24.7559 -0.244141 9.08203 -15.9668 9.08203 -35.2539 C 9.08203 -54.541 24.7559 -70.2637 44.043 -70.2637 C 63.3789 -70.2637 79.0527 -54.541 79.0527 -35.2539 C 79.0527 -15.9668 63.3789 -0.244141 44.043 -0.244141 Z M 35.6934 -18.2617 L 55.0293 -18.2617 C 55.6641 -18.2617 56.1035 -18.75 56.1035 -19.3359 C 56.1035 -20.0195 55.6641 -20.4102 55.0293 -20.4102 L 37.7441 -20.4102 L 37.7441 -20.6055 L 49.1699 -33.252 C 53.125 -37.6465 54.5898 -40.3809 54.5898 -43.6035 C 54.5898 -49.0234 50.6348 -52.5391 44.5801 -52.5391 C 39.3066 -52.5391 34.7168 -49.3652 34.082 -44.8242 C 34.0332 -44.4336 33.9844 -44.1406 33.9844 -43.7988 C 33.9844 -43.1152 34.4238 -42.627 35.1074 -42.627 C 35.8398 -42.627 36.1816 -43.0176 36.2793 -43.6523 C 36.6211 -47.5586 39.9414 -50.4395 44.5801 -50.4395 C 49.3164 -50.4395 52.2949 -47.7539 52.2949 -43.6523 C 52.2949 -40.8691 51.0742 -38.4766 48.1445 -35.3027 L 34.8633 -20.5566 C 34.5215 -20.166 34.4238 -19.9219 34.4238 -19.4824 C 34.4238 -18.75 34.9121 -18.2617 35.6934 -18.2617 Z"/>
  </g>
 </g>
</svg>
