<?xml version="1.0" encoding="UTF-8"?>
<!--Generator: Apple Native CoreSVG 148-->
<!DOCTYPE svg
PUBLIC "-//W3C//DTD SVG 1.1//EN"
       "http://www.w3.org/Graphics/SVG/1.1/DTD/svg11.dtd">
<svg version="1.1" xmlns="http://www.w3.org/2000/svg" xmlns:xlink="http://www.w3.org/1999/xlink" width="3300" height="2200">
 <!--glyph: "uni10003E.medium", point size: 100.000000, font version: "Version 16.0d11e1", template writer version: "8"-->
 <g id="Notes">
  <rect height="2200" id="artboard" style="fill:white;opacity:1" width="3300" x="0" y="0"/>
  <line id="" style="fill:none;stroke:black;opacity:1;stroke-width:0.5;" x1="263" x2="3036" y1="292" y2="292"/>
  <text style="stroke:none;fill:black;font-family:-apple-system,&quot;SF Pro Display&quot;,&quot;SF Pro Text&quot;,Helvetica,sans-serif;font-weight:bold;" transform="matrix(1 0 0 1 263 322)">Weight/Scale Variations</text>
  <text style="stroke:none;fill:black;font-family:-apple-system,&quot;SF Pro Display&quot;,&quot;SF Pro Text&quot;,Helvetica,sans-serif;text-anchor:middle;" transform="matrix(1 0 0 1 559.711 322)">Ultralight</text>
  <text style="stroke:none;fill:black;font-family:-apple-system,&quot;SF Pro Display&quot;,&quot;SF Pro Text&quot;,Helvetica,sans-serif;text-anchor:middle;" transform="matrix(1 0 0 1 856.422 322)">Thin</text>
  <text style="stroke:none;fill:black;font-family:-apple-system,&quot;SF Pro Display&quot;,&quot;SF Pro Text&quot;,Helvetica,sans-serif;text-anchor:middle;" transform="matrix(1 0 0 1 1153.13 322)">Light</text>
  <text style="stroke:none;fill:black;font-family:-apple-system,&quot;SF Pro Display&quot;,&quot;SF Pro Text&quot;,Helvetica,sans-serif;text-anchor:middle;" transform="matrix(1 0 0 1 1449.84 322)">Regular</text>
  <text style="stroke:none;fill:black;font-family:-apple-system,&quot;SF Pro Display&quot;,&quot;SF Pro Text&quot;,Helvetica,sans-serif;text-anchor:middle;" transform="matrix(1 0 0 1 1746.56 322)">Medium</text>
  <text style="stroke:none;fill:black;font-family:-apple-system,&quot;SF Pro Display&quot;,&quot;SF Pro Text&quot;,Helvetica,sans-serif;text-anchor:middle;" transform="matrix(1 0 0 1 2043.27 322)">Semibold</text>
  <text style="stroke:none;fill:black;font-family:-apple-system,&quot;SF Pro Display&quot;,&quot;SF Pro Text&quot;,Helvetica,sans-serif;text-anchor:middle;" transform="matrix(1 0 0 1 2339.98 322)">Bold</text>
  <text style="stroke:none;fill:black;font-family:-apple-system,&quot;SF Pro Display&quot;,&quot;SF Pro Text&quot;,Helvetica,sans-serif;text-anchor:middle;" transform="matrix(1 0 0 1 2636.69 322)">Heavy</text>
  <text style="stroke:none;fill:black;font-family:-apple-system,&quot;SF Pro Display&quot;,&quot;SF Pro Text&quot;,Helvetica,sans-serif;text-anchor:middle;" transform="matrix(1 0 0 1 2933.4 322)">Black</text>
  <line id="" style="fill:none;stroke:black;opacity:1;stroke-width:0.5;" x1="263" x2="3036" y1="1903" y2="1903"/>
  <g id="" transform="matrix(1 0 0 1 263 1933)">
   <path d="M 9.24805 0.830078 C 13.5547 0.830078 17.1387 -2.74414 17.1387 -7.05078 C 17.1387 -11.3574 13.5449 -14.9316 9.23828 -14.9316 C 4.94141 -14.9316 1.36719 -11.3574 1.36719 -7.05078 C 1.36719 -2.74414 4.95117 0.830078 9.24805 0.830078 Z M 9.24805 -0.654297 C 5.70312 -0.654297 2.87109 -3.49609 2.87109 -7.05078 C 2.87109 -10.6055 5.69336 -13.4473 9.23828 -13.4473 C 12.793 -13.4473 15.6348 -10.6055 15.6445 -7.05078 C 15.6543 -3.49609 12.8027 -0.654297 9.24805 -0.654297 Z M 9.22852 -3.62305 C 9.69727 -3.62305 9.9707 -3.93555 9.9707 -4.45312 L 9.9707 -6.31836 L 12.002 -6.31836 C 12.5 -6.31836 12.832 -6.57227 12.832 -7.04102 C 12.832 -7.51953 12.5195 -7.7832 12.002 -7.7832 L 9.9707 -7.7832 L 9.9707 -9.81445 C 9.9707 -10.332 9.69727 -10.6543 9.22852 -10.6543 C 8.75977 -10.6543 8.50586 -10.3125 8.50586 -9.81445 L 8.50586 -7.7832 L 6.49414 -7.7832 C 5.97656 -7.7832 5.64453 -7.51953 5.64453 -7.04102 C 5.64453 -6.57227 5.99609 -6.31836 6.49414 -6.31836 L 8.50586 -6.31836 L 8.50586 -4.45312 C 8.50586 -3.95508 8.75977 -3.62305 9.22852 -3.62305 Z"/>
  </g>
  <g id="" transform="matrix(1 0 0 1 281.506 1933)">
   <path d="M 11.709 2.91016 C 17.1582 2.91016 21.6699 -1.61133 21.6699 -7.05078 C 21.6699 -12.5 17.1484 -17.0117 11.6992 -17.0117 C 6.25977 -17.0117 1.74805 -12.5 1.74805 -7.05078 C 1.74805 -1.61133 6.26953 2.91016 11.709 2.91016 Z M 11.709 1.25 C 7.09961 1.25 3.41797 -2.44141 3.41797 -7.05078 C 3.41797 -11.6602 7.08984 -15.3516 11.6992 -15.3516 C 16.3086 -15.3516 20 -11.6602 20.0098 -7.05078 C 20.0195 -2.44141 16.3184 1.25 11.709 1.25 Z M 11.6797 -2.66602 C 12.207 -2.66602 12.5098 -3.01758 12.5098 -3.59375 L 12.5098 -6.23047 L 15.3223 -6.23047 C 15.8691 -6.23047 16.25 -6.51367 16.25 -7.03125 C 16.25 -7.55859 15.8887 -7.86133 15.3223 -7.86133 L 12.5098 -7.86133 L 12.5098 -10.6836 C 12.5098 -11.25 12.207 -11.6113 11.6797 -11.6113 C 11.1621 -11.6113 10.8789 -11.2305 10.8789 -10.6836 L 10.8789 -7.86133 L 8.07617 -7.86133 C 7.50977 -7.86133 7.13867 -7.55859 7.13867 -7.03125 C 7.13867 -6.51367 7.5293 -6.23047 8.07617 -6.23047 L 10.8789 -6.23047 L 10.8789 -3.59375 C 10.8789 -3.03711 11.1621 -2.66602 11.6797 -2.66602 Z"/>
  </g>
  <g id="" transform="matrix(1 0 0 1 304.924 1933)">
   <path d="M 14.9707 5.66406 C 21.9336 5.66406 27.6953 -0.0976562 27.6953 -7.05078 C 27.6953 -14.0137 21.9238 -19.7754 14.9609 -19.7754 C 8.00781 -19.7754 2.25586 -14.0137 2.25586 -7.05078 C 2.25586 -0.0976562 8.01758 5.66406 14.9707 5.66406 Z M 14.9707 3.84766 C 8.93555 3.84766 4.08203 -1.01562 4.08203 -7.05078 C 4.08203 -13.0957 8.92578 -17.9492 14.9609 -17.9492 C 21.0059 -17.9492 25.8594 -13.0957 25.8691 -7.05078 C 25.8789 -1.01562 21.0156 3.84766 14.9707 3.84766 Z M 14.9414 -1.38672 C 15.5176 -1.38672 15.8594 -1.77734 15.8594 -2.38281 L 15.8594 -6.13281 L 19.7754 -6.13281 C 20.3711 -6.13281 20.7812 -6.46484 20.7812 -7.02148 C 20.7812 -7.59766 20.3906 -7.93945 19.7754 -7.93945 L 15.8594 -7.93945 L 15.8594 -11.8652 C 15.8594 -12.4805 15.5176 -12.8711 14.9414 -12.8711 C 14.375 -12.8711 14.0527 -12.4609 14.0527 -11.8652 L 14.0527 -7.93945 L 10.1465 -7.93945 C 9.53125 -7.93945 9.13086 -7.59766 9.13086 -7.02148 C 9.13086 -6.46484 9.55078 -6.13281 10.1465 -6.13281 L 14.0527 -6.13281 L 14.0527 -2.38281 C 14.0527 -1.79688 14.375 -1.38672 14.9414 -1.38672 Z"/>
  </g>
  <text style="stroke:none;fill:black;font-family:-apple-system,&quot;SF Pro Display&quot;,&quot;SF Pro Text&quot;,Helvetica,sans-serif;font-weight:bold;" transform="matrix(1 0 0 1 263 1953)">Design Variations</text>
  <text style="stroke:none;fill:black;font-family:-apple-system,&quot;SF Pro Display&quot;,&quot;SF Pro Text&quot;,Helvetica,sans-serif;" transform="matrix(1 0 0 1 263 1971)">Symbols are supported in up to nine weights and three scales.</text>
  <text style="stroke:none;fill:black;font-family:-apple-system,&quot;SF Pro Display&quot;,&quot;SF Pro Text&quot;,Helvetica,sans-serif;" transform="matrix(1 0 0 1 263 1989)">For optimal layout with text and other symbols, vertically align</text>
  <text style="stroke:none;fill:black;font-family:-apple-system,&quot;SF Pro Display&quot;,&quot;SF Pro Text&quot;,Helvetica,sans-serif;" transform="matrix(1 0 0 1 263 2007)">symbols with the adjacent text.</text>
  <line id="" style="fill:none;stroke:#00AEEF;stroke-width:0.5;opacity:1.0;" x1="776" x2="776" y1="1919" y2="1933"/>
  <g id="" transform="matrix(1 0 0 1 776 1933)">
   <path d="M 3.31055 0.126953 C 3.82812 0.126953 4.08203 -0.0683594 4.26758 -0.605469 L 5.52734 -4.0625 L 11.2891 -4.0625 L 12.5488 -0.605469 C 12.7344 -0.0683594 12.9883 0.126953 13.4961 0.126953 C 14.0137 0.126953 14.3457 -0.185547 14.3457 -0.673828 C 14.3457 -0.839844 14.3164 -0.986328 14.2383 -1.20117 L 9.6582 -13.3887 C 9.43359 -13.9941 9.0332 -14.2871 8.4082 -14.2871 C 7.80273 -14.2871 7.39258 -13.9941 7.17773 -13.3984 L 2.59766 -1.19141 C 2.51953 -0.976562 2.49023 -0.830078 2.49023 -0.664062 C 2.49023 -0.175781 2.80273 0.126953 3.31055 0.126953 Z M 6.00586 -5.53711 L 8.37891 -12.1094 L 8.42773 -12.1094 L 10.8008 -5.53711 Z"/>
  </g>
  <line id="" style="fill:none;stroke:#00AEEF;stroke-width:0.5;opacity:1.0;" x1="792.836" x2="792.836" y1="1919" y2="1933"/>
  <text style="stroke:none;fill:black;font-family:-apple-system,&quot;SF Pro Display&quot;,&quot;SF Pro Text&quot;,Helvetica,sans-serif;font-weight:bold;" transform="matrix(1 0 0 1 776 1953)">Margins</text>
  <text style="stroke:none;fill:black;font-family:-apple-system,&quot;SF Pro Display&quot;,&quot;SF Pro Text&quot;,Helvetica,sans-serif;" transform="matrix(1 0 0 1 776 1971)">Leading and trailing margins on the left and right side of each symbol</text>
  <text style="stroke:none;fill:black;font-family:-apple-system,&quot;SF Pro Display&quot;,&quot;SF Pro Text&quot;,Helvetica,sans-serif;" transform="matrix(1 0 0 1 776 1989)">can be adjusted by modifying the x-location of the margin guidelines.</text>
  <text style="stroke:none;fill:black;font-family:-apple-system,&quot;SF Pro Display&quot;,&quot;SF Pro Text&quot;,Helvetica,sans-serif;" transform="matrix(1 0 0 1 776 2007)">Modifications are automatically applied proportionally to all</text>
  <text style="stroke:none;fill:black;font-family:-apple-system,&quot;SF Pro Display&quot;,&quot;SF Pro Text&quot;,Helvetica,sans-serif;" transform="matrix(1 0 0 1 776 2025)">scales and weights.</text>
  <g id="" transform="matrix(1 0 0 1 1289 1933)">
   <path d="M 2.8418 1.86523 L 4.54102 3.57422 C 5.40039 4.44336 6.38672 4.38477 7.31445 3.35938 L 17.4902 -7.85156 C 17.7539 -7.76367 18.0273 -7.7832 18.3398 -7.8418 L 19.4043 -8.03711 L 20.0684 -7.36328 L 20.0293 -6.80664 C 19.9902 -6.30859 20.1172 -5.92773 20.6055 -5.44922 L 21.3672 -4.70703 C 21.8457 -4.22852 22.4609 -4.19922 22.9297 -4.66797 L 25.8398 -7.58789 C 26.3086 -8.05664 26.2891 -8.65234 25.8105 -9.13086 L 25.0391 -9.89258 C 24.5605 -10.3711 24.1895 -10.5273 23.7109 -10.4883 L 23.1348 -10.4395 L 22.4902 -11.0742 L 22.7344 -12.1973 C 22.8613 -12.7637 22.7051 -13.2031 22.1191 -13.7891 L 19.9219 -15.9766 C 16.582 -19.2969 12.1484 -19.2188 9.25781 -16.3281 C 8.83789 -15.918 8.80859 -15.3418 9.04297 -14.9512 C 9.27734 -14.5898 9.73633 -14.3555 10.3809 -14.5215 C 11.8457 -14.8633 13.3691 -14.9219 14.7949 -13.9844 L 14.209 -12.5293 C 14.0137 -12.0508 13.9844 -11.6504 14.1113 -11.2891 L 3.04688 -0.898438 C 2.06055 0.0195312 1.98242 0.996094 2.8418 1.86523 Z M 10.752 -15.957 C 13.1836 -17.7344 16.4746 -17.4316 18.7012 -15.2051 L 21.1328 -12.793 C 21.3672 -12.5586 21.4062 -12.373 21.3379 -12.0312 L 21.0156 -10.5469 L 22.5195 -9.0625 L 23.5059 -9.12109 C 23.7598 -9.13086 23.8379 -9.11133 24.0332 -8.91602 L 24.6094 -8.33984 L 22.168 -5.89844 L 21.5918 -6.47461 C 21.3965 -6.66992 21.3672 -6.74805 21.377 -7.01172 L 21.4453 -7.98828 L 19.9512 -9.47266 L 18.4277 -9.21875 C 18.1055 -9.15039 17.959 -9.17969 17.7148 -9.41406 L 15.7129 -11.416 C 15.459 -11.6504 15.4297 -11.8164 15.5859 -12.1875 L 16.4648 -14.2773 C 14.9023 -15.7324 12.8711 -16.3574 10.8398 -15.7617 C 10.6836 -15.7227 10.625 -15.8496 10.752 -15.957 Z M 5.27344 2.30469 L 4.10156 1.14258 C 3.63281 0.683594 3.74023 0.341797 4.14062 -0.0195312 L 14.9512 -10.1953 L 16.416 -8.71094 L 6.42578 2.27539 C 6.07422 2.67578 5.74219 2.77344 5.27344 2.30469 Z"/>
  </g>
  <text style="stroke:none;fill:black;font-family:-apple-system,&quot;SF Pro Display&quot;,&quot;SF Pro Text&quot;,Helvetica,sans-serif;font-weight:bold;" transform="matrix(1 0 0 1 1289 1953)">Exporting</text>
  <text style="stroke:none;fill:black;font-family:-apple-system,&quot;SF Pro Display&quot;,&quot;SF Pro Text&quot;,Helvetica,sans-serif;" transform="matrix(1 0 0 1 1289 1971)">Symbols should be outlined when exporting to ensure the</text>
  <text style="stroke:none;fill:black;font-family:-apple-system,&quot;SF Pro Display&quot;,&quot;SF Pro Text&quot;,Helvetica,sans-serif;" transform="matrix(1 0 0 1 1289 1989)">design is preserved when submitting to Xcode.</text>
  <text id="template-version" style="stroke:none;fill:black;font-family:-apple-system,&quot;SF Pro Display&quot;,&quot;SF Pro Text&quot;,Helvetica,sans-serif;text-anchor:end;" transform="matrix(1 0 0 1 3036 1933)">Template v.2.0</text>
  <text style="stroke:none;fill:black;font-family:-apple-system,&quot;SF Pro Display&quot;,&quot;SF Pro Text&quot;,Helvetica,sans-serif;text-anchor:end;" transform="matrix(1 0 0 1 3036 1951)">Requires Xcode 12 or greater</text>
  <text style="stroke:none;fill:black;font-family:-apple-system,&quot;SF Pro Display&quot;,&quot;SF Pro Text&quot;,Helvetica,sans-serif;text-anchor:end;" transform="matrix(1 0 0 1 3036 1969)">Generated from 3.circle</text>
  <text style="stroke:none;fill:black;font-family:-apple-system,&quot;SF Pro Display&quot;,&quot;SF Pro Text&quot;,Helvetica,sans-serif;text-anchor:end;" transform="matrix(1 0 0 1 3036 1987)">Typeset at 100 points</text>
  <text style="stroke:none;fill:black;font-family:-apple-system,&quot;SF Pro Display&quot;,&quot;SF Pro Text&quot;,Helvetica,sans-serif;" transform="matrix(1 0 0 1 263 726)">Small</text>
  <text style="stroke:none;fill:black;font-family:-apple-system,&quot;SF Pro Display&quot;,&quot;SF Pro Text&quot;,Helvetica,sans-serif;" transform="matrix(1 0 0 1 263 1156)">Medium</text>
  <text style="stroke:none;fill:black;font-family:-apple-system,&quot;SF Pro Display&quot;,&quot;SF Pro Text&quot;,Helvetica,sans-serif;" transform="matrix(1 0 0 1 263 1586)">Large</text>
 </g>
 <g id="Guides">
  <g id="H-reference" style="fill:#27AAE1;stroke:none;" transform="matrix(1 0 0 1 339 696)">
   <path d="M 0.976562 0 L 3.66211 0 L 12.9883 -24.4629 L 45.7031 -24.4629 L 55.0781 0 L 57.7148 0 L 30.6152 -70.459 L 28.125 -70.459 Z M 29.2969 -67.1387 L 29.3945 -67.1387 L 44.873 -26.709 L 13.8672 -26.709 Z"/>
  </g>
  <line id="Baseline-S" style="fill:none;stroke:#27AAE1;opacity:1;stroke-width:0.5;" x1="263" x2="3036" y1="696" y2="696"/>
  <line id="Capline-S" style="fill:none;stroke:#27AAE1;opacity:1;stroke-width:0.5;" x1="263" x2="3036" y1="625.541" y2="625.541"/>
  <g id="H-reference" style="fill:#27AAE1;stroke:none;" transform="matrix(1 0 0 1 339 1126)">
   <path d="M 0.976562 0 L 3.66211 0 L 12.9883 -24.4629 L 45.7031 -24.4629 L 55.0781 0 L 57.7148 0 L 30.6152 -70.459 L 28.125 -70.459 Z M 29.2969 -67.1387 L 29.3945 -67.1387 L 44.873 -26.709 L 13.8672 -26.709 Z"/>
  </g>
  <line id="Baseline-M" style="fill:none;stroke:#27AAE1;opacity:1;stroke-width:0.5;" x1="263" x2="3036" y1="1126" y2="1126"/>
  <line id="Capline-M" style="fill:none;stroke:#27AAE1;opacity:1;stroke-width:0.5;" x1="263" x2="3036" y1="1055.54" y2="1055.54"/>
  <g id="H-reference" style="fill:#27AAE1;stroke:none;" transform="matrix(1 0 0 1 339 1556)">
   <path d="M 0.976562 0 L 3.66211 0 L 12.9883 -24.4629 L 45.7031 -24.4629 L 55.0781 0 L 57.7148 0 L 30.6152 -70.459 L 28.125 -70.459 Z M 29.2969 -67.1387 L 29.3945 -67.1387 L 44.873 -26.709 L 13.8672 -26.709 Z"/>
  </g>
  <line id="Baseline-L" style="fill:none;stroke:#27AAE1;opacity:1;stroke-width:0.5;" x1="263" x2="3036" y1="1556" y2="1556"/>
  <line id="Capline-L" style="fill:none;stroke:#27AAE1;opacity:1;stroke-width:0.5;" x1="263" x2="3036" y1="1485.54" y2="1485.54"/>
  <line id="left-margin" style="fill:none;stroke:#00AEEF;stroke-width:0.5;opacity:1.0;" x1="1391.3" x2="1391.3" y1="1030.79" y2="1150.12"/>
  <line id="right-margin" style="fill:none;stroke:#00AEEF;stroke-width:0.5;opacity:1.0;" x1="1508.39" x2="1508.39" y1="1030.79" y2="1150.12"/>
 </g>
 <g id="Symbols">
  <g id="Black-L" transform="matrix(1 0 0 1 2854.05 1556)">
   <path d="M 79.3457 32.959 C 116.748 32.959 147.412 2.34375 147.412 -35.1074 C 147.412 -72.5098 116.748 -103.174 79.2969 -103.174 C 41.8945 -103.174 11.2793 -72.5098 11.2793 -35.1074 C 11.2793 2.34375 41.9434 32.959 79.3457 32.959 Z M 79.3457 12.5488 C 52.9785 12.5488 31.7383 -8.74023 31.7383 -35.1074 C 31.7383 -61.4746 52.9297 -82.7148 79.2969 -82.7148 C 105.664 -82.7148 126.953 -61.4746 126.953 -35.1074 C 127.002 -8.74023 105.713 12.5488 79.3457 12.5488 Z M 79.541 -6.05469 C 94.7754 -6.05469 104.102 -12.6953 104.102 -23.0469 C 104.102 -30.127 99.0234 -35.7422 92.1387 -36.2793 L 92.1387 -37.1582 C 97.8516 -37.9395 102.686 -43.2129 102.686 -48.877 C 102.686 -58.2031 93.6523 -64.2578 79.7363 -64.2578 C 68.4082 -64.2578 60.3027 -60.2051 57.959 -53.5156 C 57.5195 -52.3926 57.3242 -51.2695 57.3242 -50.0488 C 57.3242 -45.752 60.4004 -43.0664 65.3809 -43.0664 C 68.4082 -43.0664 70.6055 -44.1895 72.4121 -46.7285 C 74.0723 -49.4141 76.5137 -50.9277 79.5898 -50.9277 C 82.9102 -50.9277 84.9609 -49.4141 84.9609 -46.9727 C 84.9609 -44.1895 82.7637 -42.2852 79.2969 -42.2852 L 78.2227 -42.2852 C 73.3398 -42.2852 70.459 -39.7461 70.459 -35.498 C 70.459 -31.3477 73.4863 -28.6621 78.2227 -28.6621 L 79.3945 -28.6621 C 83.5449 -28.6621 85.8887 -27.002 85.8887 -24.1699 C 85.8887 -21.6309 83.4961 -19.873 79.9316 -19.873 C 76.0742 -19.873 73.6328 -21.4355 71.9238 -24.0234 C 70.1172 -26.5137 67.8711 -27.7344 64.7949 -27.7344 C 59.9121 -27.7344 56.8359 -25 56.8359 -20.7031 C 56.8359 -19.4824 57.0312 -18.3594 57.4219 -17.2363 C 59.7656 -10.6445 68.75 -6.05469 79.541 -6.05469 Z"/>
  </g>
  <g id="Heavy-L" transform="matrix(1 0 0 1 2558.39 1556)">
   <path d="M 78.2715 31.8848 C 115.088 31.8848 145.312 1.66016 145.312 -35.1562 C 145.312 -71.9238 115.039 -102.148 78.2715 -102.148 C 41.4551 -102.148 11.2793 -71.9238 11.2793 -35.1562 C 11.2793 1.66016 41.5039 31.8848 78.2715 31.8848 Z M 78.2715 14.1113 C 51.0254 14.1113 29.0527 -7.86133 29.0527 -35.1562 C 29.0527 -62.4023 50.9766 -84.375 78.2715 -84.375 C 105.518 -84.375 127.49 -62.4023 127.539 -35.1562 C 127.539 -7.86133 105.566 14.1113 78.2715 14.1113 Z M 78.3691 -5.9082 C 93.0664 -5.9082 102.148 -12.6465 102.148 -22.9004 C 102.148 -29.9805 96.9238 -35.6934 89.8438 -36.2793 L 89.8438 -37.0605 C 95.752 -37.8906 100.537 -43.3105 100.537 -49.1699 C 100.537 -58.3008 91.7969 -64.4043 78.6133 -64.4043 C 67.627 -64.4043 59.6191 -60.2051 57.4707 -53.3691 C 57.1289 -52.2949 56.9824 -51.3184 56.9824 -50.1465 C 56.9824 -46.3867 59.668 -43.9453 64.0137 -43.9453 C 66.7969 -43.9453 68.7012 -45.0684 70.2637 -47.4609 C 71.8262 -50.6836 74.6582 -52.5879 78.4668 -52.5879 C 82.5684 -52.5879 85.1074 -50.6348 85.1074 -47.4609 C 85.1074 -44.043 82.3242 -41.6504 78.2227 -41.6504 L 76.416 -41.6504 C 72.2168 -41.6504 69.6289 -39.3555 69.6289 -35.6445 C 69.6289 -32.0312 72.2656 -29.6387 76.416 -29.6387 L 78.418 -29.6387 C 83.3008 -29.6387 86.2793 -27.3438 86.2793 -23.8281 C 86.2793 -20.4102 83.252 -18.1152 78.7109 -18.1152 C 74.1211 -18.1152 71.2402 -20.1172 69.5801 -23.1934 C 68.0664 -25.5859 66.0645 -26.709 63.2812 -26.709 C 59.0332 -26.709 56.2988 -24.2676 56.2988 -20.459 C 56.2988 -19.3359 56.4453 -18.3594 56.8359 -17.2852 C 59.0332 -10.5957 67.7734 -5.9082 78.3691 -5.9082 Z"/>
  </g>
  <g id="Bold-L" transform="matrix(1 0 0 1 2262.88 1556)">
   <path d="M 77.0996 30.6641 C 113.232 30.6641 142.92 0.927734 142.92 -35.2051 C 142.92 -71.2891 113.184 -101.025 77.0508 -101.025 C 40.9668 -101.025 11.2793 -71.2891 11.2793 -35.2051 C 11.2793 0.927734 41.0156 30.6641 77.0996 30.6641 Z M 77.0996 15.8691 C 48.8281 15.8691 26.0742 -6.88477 26.0742 -35.2051 C 26.0742 -63.4766 48.7793 -86.2305 77.0508 -86.2305 C 105.371 -86.2305 128.125 -63.4766 128.174 -35.2051 C 128.174 -6.88477 105.371 15.8691 77.0996 15.8691 Z M 77.0508 -5.76172 C 91.1133 -5.76172 99.9023 -12.5977 99.9023 -22.7051 C 99.9023 -29.8828 94.5801 -35.6445 87.3047 -36.2793 L 87.3047 -36.9141 C 93.3594 -37.8418 98.1934 -43.3594 98.1934 -49.4629 C 98.1934 -58.4473 89.7461 -64.5996 77.3438 -64.5996 C 66.748 -64.5996 58.8867 -60.2051 56.9824 -53.2227 C 56.6895 -52.2461 56.543 -51.3672 56.543 -50.293 C 56.543 -47.0703 58.8379 -44.9707 62.4512 -44.9707 C 64.9414 -44.9707 66.6016 -46.0449 67.8223 -48.291 C 69.2871 -52.0996 72.6074 -54.4434 77.1973 -54.4434 C 82.1777 -54.4434 85.3027 -51.9531 85.3027 -48.0469 C 85.3027 -43.8965 81.8848 -40.918 77.002 -40.918 L 74.3652 -40.918 C 70.8984 -40.918 68.7012 -38.916 68.7012 -35.8398 C 68.7012 -32.7637 70.9473 -30.7129 74.3652 -30.7129 L 77.2461 -30.7129 C 83.0078 -30.7129 86.7676 -27.7832 86.7676 -23.3887 C 86.7676 -19.043 82.959 -16.1621 77.3438 -16.1621 C 71.9238 -16.1621 68.6035 -18.7012 66.9922 -22.3145 C 65.7227 -24.5605 64.0137 -25.5859 61.5234 -25.5859 C 58.0078 -25.5859 55.6641 -23.4375 55.6641 -20.2148 C 55.6641 -19.1895 55.8105 -18.3594 56.1035 -17.3828 C 58.2031 -10.498 66.6992 -5.76172 77.0508 -5.76172 Z"/>
  </g>
  <g id="Semibold-L" transform="matrix(1 0 0 1 1966.97 1556)">
   <path d="M 76.2695 29.7852 C 111.914 29.7852 141.309 0.439453 141.309 -35.2051 C 141.309 -70.8496 111.865 -100.244 76.2695 -100.244 C 40.625 -100.244 11.2793 -70.8496 11.2793 -35.2051 C 11.2793 0.439453 40.6738 29.7852 76.2695 29.7852 Z M 76.2695 17.0898 C 47.3145 17.0898 24.0234 -6.25 24.0234 -35.2051 C 24.0234 -64.209 47.2656 -87.5 76.2695 -87.5 C 105.225 -87.5 128.564 -64.209 128.613 -35.2051 C 128.662 -6.25 105.273 17.0898 76.2695 17.0898 Z M 76.123 -5.66406 C 89.7949 -5.66406 98.3887 -12.5977 98.3887 -22.5586 C 98.3887 -29.7852 92.9688 -35.5957 85.5957 -36.2793 L 85.5957 -36.8652 C 91.748 -37.793 96.582 -43.4082 96.582 -49.707 C 96.582 -58.5449 88.3789 -64.6973 76.4648 -64.6973 C 66.1621 -64.6973 58.3984 -60.1562 56.6406 -53.125 C 56.3965 -52.1484 56.25 -51.3672 56.25 -50.3906 C 56.25 -47.5586 58.3008 -45.7031 61.377 -45.7031 C 63.6719 -45.7031 65.1855 -46.7285 66.1621 -48.8281 C 67.5293 -53.0762 71.1914 -55.7129 76.3672 -55.7129 C 81.9336 -55.7129 85.4492 -52.8809 85.4492 -48.4375 C 85.4492 -43.7988 81.543 -40.3809 76.1719 -40.3809 L 72.9004 -40.3809 C 70.0195 -40.3809 68.1152 -38.623 68.1152 -35.9375 C 68.1152 -33.3008 70.0684 -31.4453 72.9004 -31.4453 L 76.4648 -31.4453 C 82.8125 -31.4453 87.0605 -28.0762 87.0605 -23.0957 C 87.0605 -18.1641 82.7637 -14.7949 76.3672 -14.7949 C 70.4102 -14.7949 66.748 -17.7246 65.1855 -21.6797 C 64.1113 -23.877 62.6465 -24.8535 60.3516 -24.8535 C 57.2754 -24.8535 55.2734 -22.9004 55.2734 -20.0195 C 55.2734 -19.0918 55.3711 -18.3594 55.6641 -17.4316 C 57.666 -10.4492 65.9668 -5.66406 76.123 -5.66406 Z"/>
  </g>
  <g id="Medium-L" transform="matrix(1 0 0 1 1670.87 1556)">
   <path d="M 75.6836 29.1504 C 110.938 29.1504 140.088 0.0488281 140.088 -35.2539 C 140.088 -70.5078 110.889 -99.6094 75.6348 -99.6094 C 40.3809 -99.6094 11.2793 -70.5078 11.2793 -35.2539 C 11.2793 0.0488281 40.3809 29.1504 75.6836 29.1504 Z M 75.6836 18.0176 C 46.1426 18.0176 22.4609 -5.71289 22.4609 -35.2539 C 22.4609 -64.7461 46.1426 -88.4766 75.6348 -88.4766 C 105.127 -88.4766 128.906 -64.7461 128.906 -35.2539 C 128.955 -5.71289 105.176 18.0176 75.6836 18.0176 Z M 75.4395 -5.61523 C 88.8184 -5.61523 97.2168 -12.5488 97.2168 -22.4609 C 97.2168 -29.6875 91.748 -35.5957 84.2773 -36.2793 L 84.2773 -36.7676 C 90.4785 -37.7441 95.3125 -43.457 95.3125 -49.8535 C 95.3125 -58.5938 87.3047 -64.7949 75.8301 -64.7949 C 65.7227 -64.7949 58.0078 -60.1562 56.3477 -53.0273 C 56.1523 -52.0996 56.0547 -51.416 56.0547 -50.4883 C 56.0547 -47.9004 57.8613 -46.2402 60.5469 -46.2402 C 62.6953 -46.2402 64.0625 -47.2168 64.8926 -49.2676 C 66.2109 -53.8086 70.166 -56.6895 75.6836 -56.6895 C 81.7383 -56.6895 85.498 -53.6133 85.498 -48.7305 C 85.498 -43.7012 81.2988 -39.9902 75.5371 -39.9902 L 71.8262 -39.9902 C 69.3359 -39.9902 67.627 -38.4277 67.627 -36.0352 C 67.627 -33.6426 69.3359 -31.9824 71.8262 -31.9824 L 75.8789 -31.9824 C 82.666 -31.9824 87.3047 -28.2715 87.3047 -22.9004 C 87.3047 -17.4316 82.6172 -13.8184 75.6348 -13.8184 C 69.2871 -13.8184 65.332 -16.9434 63.8672 -21.1914 C 62.9395 -23.3398 61.5723 -24.2676 59.4727 -24.2676 C 56.7871 -24.2676 54.9316 -22.4609 54.9316 -19.9219 C 54.9316 -18.9941 55.0293 -18.3594 55.2734 -17.4805 C 57.2266 -10.4004 65.3809 -5.61523 75.4395 -5.61523 Z"/>
  </g>
  <g id="Regular-L" transform="matrix(1 0 0 1 1374.97 1556)">
   <path d="M 74.8535 28.3203 C 109.668 28.3203 138.477 -0.488281 138.477 -35.2539 C 138.477 -70.0684 109.619 -98.877 74.8047 -98.877 C 40.0391 -98.877 11.2793 -70.0684 11.2793 -35.2539 C 11.2793 -0.488281 40.0879 28.3203 74.8535 28.3203 Z M 74.8535 19.2383 C 44.6777 19.2383 20.4102 -5.07812 20.4102 -35.2539 C 20.4102 -65.4785 44.6289 -89.7461 74.8047 -89.7461 C 105.029 -89.7461 129.297 -65.4785 129.346 -35.2539 C 129.395 -5.07812 105.078 19.2383 74.8535 19.2383 Z M 74.5605 -5.51758 C 87.5 -5.51758 95.752 -12.5488 95.752 -22.3145 C 95.752 -29.5898 90.1367 -35.5469 82.5195 -36.2793 L 82.5195 -36.6699 C 88.8672 -37.6953 93.7012 -43.5059 93.7012 -50.0488 C 93.7012 -58.6914 85.8887 -64.8926 74.9512 -64.8926 C 65.1367 -64.8926 57.5195 -60.1562 56.0059 -52.9297 C 55.8105 -52.0508 55.7617 -51.416 55.7617 -50.5859 C 55.7617 -48.3887 57.2754 -46.9238 59.4727 -46.9238 C 61.4746 -46.9238 62.6465 -47.9004 63.2324 -49.8047 C 64.502 -54.7852 68.75 -57.959 74.8047 -57.959 C 81.4941 -57.959 85.6445 -54.541 85.6445 -49.1211 C 85.6445 -43.6035 81.0059 -39.502 74.7559 -39.502 L 70.459 -39.502 C 68.457 -39.502 66.9922 -38.1348 66.9922 -36.1328 C 66.9922 -34.1797 68.457 -32.7148 70.459 -32.7148 L 75.0977 -32.7148 C 82.4707 -32.7148 87.5977 -28.5645 87.5977 -22.6074 C 87.5977 -16.5039 82.4219 -12.4512 74.707 -12.4512 C 67.7734 -12.4512 63.5254 -15.9668 62.0605 -20.6055 C 61.3281 -22.6074 60.2051 -23.4863 58.3008 -23.4863 C 56.0547 -23.4863 54.4922 -21.9238 54.4922 -19.7266 C 54.4922 -18.8965 54.5898 -18.3594 54.7852 -17.5293 C 56.6895 -10.3516 64.6484 -5.51758 74.5605 -5.51758 Z"/>
  </g>
  <g id="Light-L" transform="matrix(1 0 0 1 1079.18 1556)">
   <path d="M 73.9258 27.3926 C 108.301 27.3926 136.621 -0.927734 136.621 -35.2539 C 136.621 -69.6289 108.252 -97.9492 73.9258 -97.9492 C 39.5508 -97.9492 11.2793 -69.6289 11.2793 -35.2539 C 11.2793 -0.927734 39.5996 27.3926 73.9258 27.3926 Z M 73.9258 20.5078 C 43.1152 20.5078 18.2129 -4.44336 18.2129 -35.2539 C 18.2129 -66.1133 43.0664 -91.0156 73.9258 -91.0156 C 104.736 -91.0156 129.688 -66.1133 129.736 -35.2539 C 129.736 -4.44336 104.785 20.5078 73.9258 20.5078 Z M 73.877 -5.9082 C 86.0352 -5.9082 94.1406 -12.793 94.1406 -22.3633 C 94.1406 -29.541 88.4766 -35.498 80.957 -36.1816 L 80.957 -36.5723 C 87.3047 -37.6465 92.1387 -43.457 92.1387 -50 C 92.1387 -58.3984 84.5703 -64.4531 74.1211 -64.4531 C 64.8926 -64.4531 57.4219 -59.7656 56.1523 -52.7832 C 56.0547 -52.002 55.957 -51.416 55.957 -50.6836 C 55.957 -48.9258 57.1777 -47.7539 58.8867 -47.7539 C 60.5469 -47.7539 61.5234 -48.5352 61.9141 -50.1465 C 62.9395 -55.4199 67.627 -58.9355 74.0234 -58.9355 C 81.1523 -58.9355 85.7422 -55.0781 85.7422 -49.2188 C 85.7422 -43.3105 80.7129 -38.8184 74.1211 -38.8184 L 69.3848 -38.8184 C 67.7734 -38.8184 66.6504 -37.6953 66.6504 -36.084 C 66.6504 -34.5215 67.7734 -33.3984 69.3848 -33.3984 L 74.5605 -33.3984 C 82.1777 -33.3984 87.6953 -28.8086 87.6953 -22.5098 C 87.6953 -15.918 82.1777 -11.4258 73.9746 -11.4258 C 66.9922 -11.4258 62.0605 -15.1367 60.7422 -20.166 C 60.1562 -21.875 59.2285 -22.6074 57.666 -22.6074 C 55.957 -22.6074 54.6875 -21.3379 54.6875 -19.5801 C 54.6875 -18.8477 54.7852 -18.3105 54.9805 -17.5781 C 56.8848 -10.6445 64.502 -5.9082 73.877 -5.9082 Z"/>
  </g>
  <g id="Thin-L" transform="matrix(1 0 0 1 783.693 1556)">
   <path d="M 72.7051 26.1719 C 106.494 26.1719 134.18 -1.51367 134.18 -35.2539 C 134.18 -69.043 106.494 -96.7285 72.7051 -96.7285 C 38.9648 -96.7285 11.2793 -69.043 11.2793 -35.2539 C 11.2793 -1.51367 38.9648 26.1719 72.7051 26.1719 Z M 72.7051 22.168 C 41.0156 22.168 15.2832 -3.56445 15.2832 -35.2539 C 15.2832 -66.9922 41.0156 -92.7246 72.7051 -92.7246 C 104.395 -92.7246 130.176 -66.9922 130.176 -35.2539 C 130.176 -3.56445 104.443 22.168 72.7051 22.168 Z M 72.998 -6.44531 C 84.1309 -6.44531 91.9922 -13.1348 91.9922 -22.4121 C 91.9922 -29.4434 86.3281 -35.4004 78.8574 -36.084 L 78.8574 -36.4258 C 85.3027 -37.5977 89.9902 -43.3594 89.9902 -49.8535 C 89.9902 -57.959 82.8125 -63.8184 72.998 -63.8184 C 64.5996 -63.8184 57.2754 -59.2285 56.3965 -52.5879 C 56.2988 -51.9531 56.2012 -51.416 56.2012 -50.8301 C 56.2012 -49.6582 56.9824 -48.8281 58.1055 -48.8281 C 59.2773 -48.8281 60.0098 -49.4141 60.1562 -50.5859 C 60.9375 -56.25 66.1621 -60.2051 72.998 -60.2051 C 80.7129 -60.2051 85.8398 -55.8105 85.8398 -49.3652 C 85.8398 -42.9199 80.3711 -37.9395 73.291 -37.9395 L 68.0176 -37.9395 C 66.8945 -37.9395 66.1621 -37.1582 66.1621 -36.084 C 66.1621 -35.0098 66.8945 -34.2285 68.0176 -34.2285 L 73.7793 -34.2285 C 81.7871 -34.2285 87.8418 -29.1504 87.8418 -22.4121 C 87.8418 -15.0391 81.8848 -10.0586 73.0469 -10.0586 C 65.918 -10.0586 60.1562 -14.0625 58.9355 -19.6289 C 58.6426 -20.8984 58.0078 -21.4355 56.8848 -21.4355 C 55.7617 -21.4355 54.9316 -20.6055 54.9316 -19.3848 C 54.9316 -18.7988 55.0293 -18.3105 55.1758 -17.627 C 57.1289 -10.9863 64.3066 -6.44531 72.998 -6.44531 Z"/>
  </g>
  <g id="Ultralight-L" transform="matrix(1 0 0 1 487.616 1556)">
   <path d="M 72.1191 25.5371 C 105.566 25.5371 132.91 -1.80664 132.91 -35.2539 C 132.91 -68.75 105.566 -96.0938 72.1191 -96.0938 C 38.623 -96.0938 11.2793 -68.75 11.2793 -35.2539 C 11.2793 -1.80664 38.623 25.5371 72.1191 25.5371 Z M 72.1191 23.0469 C 39.9414 23.0469 13.7695 -3.125 13.7695 -35.2539 C 13.7695 -67.4316 39.9414 -93.6035 72.1191 -93.6035 C 104.248 -93.6035 130.42 -67.4316 130.42 -35.2539 C 130.42 -3.125 104.248 23.0469 72.1191 23.0469 Z M 72.5586 -6.68945 C 83.1543 -6.68945 90.918 -13.3301 90.918 -22.4121 C 90.918 -29.3945 85.2051 -35.3027 77.832 -36.0352 L 77.832 -36.377 C 84.2773 -37.5977 88.916 -43.3105 88.916 -49.8047 C 88.916 -57.7637 81.9336 -63.5254 72.4121 -63.5254 C 64.4043 -63.5254 57.2266 -58.9355 56.4941 -52.5391 C 56.4453 -51.9043 56.3477 -51.416 56.3477 -50.9277 C 56.3477 -50 56.8848 -49.3652 57.7148 -49.3652 C 58.6426 -49.3652 59.2285 -49.9023 59.2285 -50.8301 C 59.9121 -56.6895 65.4297 -60.8398 72.4609 -60.8398 C 80.4688 -60.8398 85.9375 -56.2012 85.9375 -49.4629 C 85.9375 -42.7246 80.1758 -37.4512 72.9004 -37.4512 L 67.2852 -37.4512 C 66.4551 -37.4512 65.918 -36.9141 65.918 -36.084 C 65.918 -35.2051 66.4551 -34.668 67.2852 -34.668 L 73.3887 -34.668 C 81.5918 -34.668 87.9395 -29.3457 87.9395 -22.3633 C 87.9395 -14.6484 81.6895 -9.375 72.5586 -9.375 C 65.3809 -9.375 59.1797 -13.5254 58.0078 -19.3848 C 57.8613 -20.4102 57.373 -20.8496 56.4941 -20.8496 C 55.7129 -20.8496 55.0781 -20.2148 55.0781 -19.2871 C 55.0781 -18.75 55.127 -18.3105 55.3223 -17.6758 C 57.2266 -11.1328 64.209 -6.68945 72.5586 -6.68945 Z"/>
  </g>
  <g id="Black-M" transform="matrix(1 0 0 1 2870.97 1126)">
   <path d="M 62.4023 18.6035 C 91.9922 18.6035 116.113 -5.46875 116.113 -35.0586 C 116.113 -64.6484 91.9922 -88.7207 62.4023 -88.7207 C 32.8125 -88.7207 8.74023 -64.6484 8.74023 -35.0586 C 8.74023 -5.46875 32.8125 18.6035 62.4023 18.6035 Z M 62.4023 0.341797 C 42.8711 0.341797 27.002 -15.5273 27.002 -35.0586 C 27.002 -54.6387 42.8711 -70.459 62.4023 -70.459 C 81.9824 -70.459 97.8027 -54.6387 97.8027 -35.0586 C 97.8027 -15.5273 81.9824 0.341797 62.4023 0.341797 Z M 62.8418 -12.9883 C 75 -12.9883 82.4707 -17.9688 82.4707 -26.0742 C 82.4707 -31.3965 78.7109 -35.6445 73.584 -35.9863 L 73.584 -36.8164 C 77.8809 -37.4023 81.543 -41.3086 81.543 -45.3613 C 81.543 -52.6855 74.3164 -57.2754 62.8418 -57.2754 C 53.9062 -57.2754 47.5586 -54.3945 45.6055 -49.5605 C 45.2148 -48.584 45.0684 -47.6074 45.0684 -46.582 C 45.0684 -42.8223 47.7539 -40.4785 52.2461 -40.4785 C 54.7363 -40.4785 56.6406 -41.3574 58.3496 -43.3594 C 59.6191 -44.873 61.1816 -45.6543 62.793 -45.6543 C 64.5508 -45.6543 65.6738 -44.873 65.6738 -43.7012 C 65.6738 -42.1875 64.5508 -41.2109 62.5977 -41.2109 L 62.5488 -41.2109 C 58.0566 -41.2109 55.4688 -39.0137 55.4688 -35.2539 C 55.4688 -31.543 58.2031 -29.1992 62.5488 -29.1992 L 62.5977 -29.1992 C 64.9414 -29.1992 66.0645 -28.5156 66.0645 -27.1484 C 66.0645 -25.9766 64.8926 -25.1465 63.2324 -25.1465 C 61.1328 -25.1465 59.5215 -25.8301 58.1543 -27.4414 C 56.543 -29.3457 54.5898 -30.2734 52.002 -30.2734 C 47.6074 -30.2734 44.873 -27.9785 44.873 -24.1699 C 44.873 -23.1934 45.0684 -22.168 45.459 -21.2402 C 47.4121 -16.4062 54.4922 -12.9883 62.8418 -12.9883 Z"/>
  </g>
  <g id="Heavy-M" transform="matrix(1 0 0 1 2575.19 1126)">
   <path d="M 61.5234 17.627 C 90.5273 17.627 114.258 -6.10352 114.258 -35.1074 C 114.258 -64.1602 90.5273 -87.8906 61.4746 -87.8906 C 32.4707 -87.8906 8.74023 -64.1602 8.74023 -35.1074 C 8.74023 -6.10352 32.4707 17.627 61.5234 17.627 Z M 61.5234 1.70898 C 41.1133 1.70898 24.6582 -14.7461 24.6582 -35.1074 C 24.6582 -55.5176 41.1133 -71.9727 61.4746 -71.9727 C 81.8848 -71.9727 98.3398 -55.5176 98.3398 -35.1074 C 98.3398 -14.7461 81.8848 1.70898 61.5234 1.70898 Z M 61.7676 -12.7441 C 73.4863 -12.7441 80.7617 -17.8223 80.7617 -25.8301 C 80.7617 -31.2988 76.8066 -35.5957 71.5332 -36.0352 L 71.5332 -36.7188 C 75.9766 -37.3535 79.6875 -41.4062 79.6875 -45.7031 C 79.6875 -52.8809 72.6562 -57.5684 61.8652 -57.5684 C 53.125 -57.5684 46.875 -54.4922 45.0684 -49.4141 C 44.7266 -48.5352 44.5801 -47.6562 44.5801 -46.6797 C 44.5801 -43.3594 46.9727 -41.2598 50.8789 -41.2598 C 53.1738 -41.2598 54.8828 -42.1387 56.2988 -44.043 C 57.5684 -46.0938 59.4727 -47.2168 61.7676 -47.2168 C 64.2578 -47.2168 65.8203 -46.0449 65.8203 -44.2383 C 65.8203 -42.0898 64.1602 -40.6738 61.5723 -40.6738 L 60.791 -40.6738 C 56.9824 -40.6738 54.6875 -38.7207 54.6875 -35.4004 C 54.6875 -32.1777 57.0801 -30.0781 60.791 -30.0781 L 61.6211 -30.0781 C 64.7461 -30.0781 66.5039 -28.8086 66.5039 -26.7578 C 66.5039 -24.8047 64.6973 -23.4863 62.0605 -23.4863 C 59.2285 -23.4863 57.2754 -24.6582 55.957 -26.6602 C 54.541 -28.5156 52.832 -29.4434 50.4883 -29.4434 C 46.6309 -29.4434 44.2383 -27.3438 44.2383 -23.9746 C 44.2383 -23.0469 44.3848 -22.168 44.7266 -21.2891 C 46.5332 -16.2598 53.4668 -12.7441 61.7676 -12.7441 Z"/>
  </g>
  <g id="Bold-M" transform="matrix(1 0 0 1 2279.5 1126)">
   <path d="M 60.498 16.5527 C 88.8672 16.5527 112.207 -6.73828 112.207 -35.1562 C 112.207 -63.5742 88.8672 -86.9141 60.4492 -86.9141 C 32.0312 -86.9141 8.74023 -63.5742 8.74023 -35.1562 C 8.74023 -6.73828 32.0801 16.5527 60.498 16.5527 Z M 60.498 3.27148 C 39.1602 3.27148 22.0703 -13.8672 22.0703 -35.1562 C 22.0703 -56.4453 39.1602 -73.6328 60.4492 -73.6328 C 81.7383 -73.6328 98.9258 -56.4453 98.9258 -35.1562 C 98.9746 -13.8672 81.7871 3.27148 60.498 3.27148 Z M 60.498 -12.5 C 71.7773 -12.5 78.8086 -17.7246 78.8086 -25.6348 C 78.8086 -31.1523 74.7559 -35.5957 69.2383 -36.0352 L 69.2383 -36.6211 C 73.8281 -37.2559 77.5391 -41.5039 77.5391 -46.0938 C 77.5391 -53.125 70.8008 -57.8613 60.6934 -57.8613 C 52.2949 -57.8613 46.0938 -54.5898 44.4824 -49.2676 C 44.1895 -48.4375 44.0918 -47.7051 44.0918 -46.8262 C 44.0918 -43.9941 46.0938 -42.1387 49.3164 -42.1387 C 51.4648 -42.1387 52.9297 -43.0176 54.0527 -44.873 C 55.2246 -47.4609 57.5195 -48.9746 60.5957 -48.9746 C 63.916 -48.9746 66.0156 -47.3633 66.0156 -44.8242 C 66.0156 -42.041 63.7207 -40.0879 60.4492 -40.0879 L 58.8867 -40.0879 C 55.7617 -40.0879 53.8086 -38.3789 53.8086 -35.5957 C 53.8086 -32.8613 55.8105 -31.0547 58.8867 -31.0547 L 60.5469 -31.0547 C 64.502 -31.0547 66.9434 -29.1992 66.9434 -26.3184 C 66.9434 -23.5352 64.4531 -21.6309 60.791 -21.6309 C 57.0801 -21.6309 54.7852 -23.291 53.5156 -25.7812 C 52.3438 -27.5879 50.8789 -28.4668 48.7305 -28.4668 C 45.5566 -28.4668 43.5059 -26.6113 43.5059 -23.7305 C 43.5059 -22.9004 43.6523 -22.168 43.8965 -21.3379 C 45.6055 -16.1133 52.3438 -12.5 60.498 -12.5 Z"/>
  </g>
  <g id="Semibold-M" transform="matrix(1 0 0 1 1983.5 1126)">
   <path d="M 59.7656 15.8203 C 87.7441 15.8203 110.791 -7.22656 110.791 -35.2051 C 110.791 -63.1836 87.6953 -86.2305 59.7656 -86.2305 C 31.7871 -86.2305 8.74023 -63.1836 8.74023 -35.2051 C 8.74023 -7.22656 31.7871 15.8203 59.7656 15.8203 Z M 59.7656 4.3457 C 37.8418 4.3457 20.2637 -13.2812 20.2637 -35.2051 C 20.2637 -57.1289 37.793 -74.7559 59.7656 -74.7559 C 81.6895 -74.7559 99.3164 -57.1289 99.3652 -35.2051 C 99.3652 -13.2812 81.6895 4.3457 59.7656 4.3457 Z M 59.668 -12.3047 C 70.6543 -12.3047 77.4414 -17.627 77.4414 -25.4883 C 77.4414 -31.0547 73.291 -35.5469 67.627 -36.0352 L 67.627 -36.5723 C 72.3145 -37.2559 76.0742 -41.5527 76.0742 -46.3379 C 76.0742 -53.3203 69.5312 -58.1055 59.9609 -58.1055 C 51.6602 -58.1055 45.5566 -54.6387 44.043 -49.1699 C 43.7988 -48.3887 43.7012 -47.7051 43.7012 -46.9238 C 43.7012 -44.3848 45.5078 -42.7734 48.291 -42.7734 C 50.2441 -42.7734 51.5625 -43.6035 52.4902 -45.4102 C 53.6621 -48.3887 56.2012 -50.1953 59.8145 -50.1953 C 63.7207 -50.1953 66.1133 -48.291 66.1133 -45.2148 C 66.1133 -41.9922 63.4277 -39.6484 59.668 -39.6484 L 57.5195 -39.6484 C 54.8828 -39.6484 53.2227 -38.1348 53.2227 -35.6934 C 53.2227 -33.3496 54.9316 -31.7383 57.5195 -31.7383 L 59.8145 -31.7383 C 64.3555 -31.7383 67.2852 -29.4434 67.2852 -26.0254 C 67.2852 -22.6562 64.3066 -20.3613 59.8633 -20.3613 C 55.5664 -20.3613 53.0762 -22.3633 51.8066 -25.1465 C 50.8301 -26.9531 49.5117 -27.7832 47.5586 -27.7832 C 44.8242 -27.7832 43.0176 -26.123 43.0176 -23.584 C 43.0176 -22.7539 43.1152 -22.168 43.3594 -21.3867 C 44.9707 -16.0156 51.5625 -12.3047 59.668 -12.3047 Z"/>
  </g>
  <g id="Medium-M" transform="matrix(1 0 0 1 1687.3 1126)">
   <path d="M 59.2285 15.2832 C 86.9141 15.2832 109.766 -7.56836 109.766 -35.2051 C 109.766 -62.8906 86.8652 -85.7422 59.1797 -85.7422 C 31.543 -85.7422 8.74023 -62.8906 8.74023 -35.2051 C 8.74023 -7.56836 31.5918 15.2832 59.2285 15.2832 Z M 59.2285 5.17578 C 36.8164 5.17578 18.8965 -12.793 18.8965 -35.2051 C 18.8965 -57.6172 36.8164 -75.6348 59.1797 -75.6348 C 81.5918 -75.6348 99.6094 -57.6172 99.6582 -35.2051 C 99.707 -12.793 81.6406 5.17578 59.2285 5.17578 Z M 58.9844 -12.1582 C 69.7754 -12.1582 76.416 -17.5781 76.416 -25.3418 C 76.416 -31.0059 72.2168 -35.5469 66.4062 -36.084 L 66.4062 -36.4746 C 71.1914 -37.207 75 -41.6016 75 -46.5332 C 75 -53.418 68.6035 -58.252 59.375 -58.252 C 51.2207 -58.252 45.166 -54.6875 43.75 -49.1211 C 43.5059 -48.3398 43.457 -47.7539 43.457 -46.9727 C 43.457 -44.7266 45.0684 -43.2129 47.4609 -43.2129 C 49.3652 -43.2129 50.5371 -44.043 51.3184 -45.8008 C 52.4414 -49.0723 55.2246 -51.0742 59.2285 -51.0742 C 63.5254 -51.0742 66.2109 -48.9746 66.2109 -45.5078 C 66.2109 -41.9434 63.2324 -39.3555 59.0332 -39.3555 L 56.543 -39.3555 C 54.248 -39.3555 52.7344 -37.9395 52.7344 -35.791 C 52.7344 -33.7402 54.2969 -32.2754 56.543 -32.2754 L 59.2773 -32.2754 C 64.209 -32.2754 67.5293 -29.6387 67.5293 -25.7812 C 67.5293 -21.9727 64.1602 -19.4336 59.1797 -19.4336 C 54.4434 -19.4336 51.7578 -21.6797 50.5371 -24.707 C 49.707 -26.5137 48.4863 -27.2949 46.6797 -27.2949 C 44.2383 -27.2949 42.627 -25.7324 42.627 -23.4863 C 42.627 -22.7051 42.7246 -22.168 42.9199 -21.4355 C 44.4824 -15.918 50.9766 -12.1582 58.9844 -12.1582 Z"/>
  </g>
  <g id="Regular-M" transform="matrix(1 0 0 1 1391.3 1126)">
   <path d="M 58.5449 14.5508 C 85.791 14.5508 108.35 -8.05664 108.35 -35.2539 C 108.35 -62.5 85.7422 -85.0586 58.4961 -85.0586 C 31.2988 -85.0586 8.74023 -62.5 8.74023 -35.2539 C 8.74023 -8.05664 31.3477 14.5508 58.5449 14.5508 Z M 58.5449 6.25 C 35.498 6.25 17.0898 -12.207 17.0898 -35.2539 C 17.0898 -58.3008 35.4492 -76.7578 58.4961 -76.7578 C 81.543 -76.7578 100 -58.3008 100.049 -35.2539 C 100.098 -12.207 81.5918 6.25 58.5449 6.25 Z M 58.1543 -11.9629 C 68.6035 -11.9629 75.0977 -17.4805 75.0977 -25.1953 C 75.0977 -30.9082 70.8008 -35.498 64.8438 -36.084 L 64.8438 -36.4258 C 69.7266 -37.1582 73.5352 -41.6992 73.5352 -46.7773 C 73.5352 -53.6133 67.334 -58.4961 58.5938 -58.4961 C 50.6348 -58.4961 44.6289 -54.7852 43.3105 -49.0234 C 43.1641 -48.291 43.0664 -47.8027 43.0664 -47.0703 C 43.0664 -45.1172 44.4824 -43.8477 46.4355 -43.8477 C 48.1934 -43.8477 49.2188 -44.6777 49.7559 -46.3379 C 50.8789 -50 53.9062 -52.2949 58.4473 -52.2949 C 63.3301 -52.2949 66.3086 -49.8535 66.3086 -45.9473 C 66.3086 -41.8945 62.9395 -38.916 58.252 -38.916 L 55.1758 -38.916 C 53.418 -38.916 52.1484 -37.6953 52.1484 -35.9375 C 52.1484 -34.2285 53.418 -32.9102 55.1758 -32.9102 L 58.5449 -32.9102 C 64.0625 -32.9102 67.8223 -29.8828 67.8223 -25.4883 C 67.8223 -21.0938 64.0137 -18.1641 58.3008 -18.1641 C 53.0273 -18.1641 50.0488 -20.752 48.877 -24.1211 C 48.1934 -25.8789 47.168 -26.6113 45.5078 -26.6113 C 43.5547 -26.6113 42.1387 -25.2441 42.1387 -23.291 C 42.1387 -22.5586 42.1875 -22.168 42.3828 -21.4844 C 43.8477 -15.8203 50.1953 -11.9629 58.1543 -11.9629 Z"/>
  </g>
  <g id="Light-M" transform="matrix(1 0 0 1 1095.42 1126)">
   <path d="M 57.7148 13.7207 C 84.5215 13.7207 106.689 -8.44727 106.689 -35.2539 C 106.689 -62.1094 84.5215 -84.2285 57.666 -84.2285 C 30.8594 -84.2285 8.74023 -62.1094 8.74023 -35.2539 C 8.74023 -8.44727 30.9082 13.7207 57.7148 13.7207 Z M 57.7148 7.37305 C 34.082 7.37305 15.0879 -11.6699 15.0879 -35.2539 C 15.0879 -58.8867 34.082 -77.9297 57.666 -77.9297 C 81.2988 -77.9297 100.342 -58.8867 100.391 -35.2539 C 100.391 -11.6699 81.3477 7.37305 57.7148 7.37305 Z M 57.5684 -12.3535 C 67.334 -12.3535 73.6816 -17.7246 73.6816 -25.2441 C 73.6816 -30.8594 69.2871 -35.4492 63.4277 -36.0352 L 63.4277 -36.3281 C 68.3594 -37.1094 72.1191 -41.6016 72.1191 -46.6797 C 72.1191 -53.3203 66.1621 -58.0566 57.8125 -58.0566 C 50.3906 -58.0566 44.5312 -54.3945 43.457 -48.877 C 43.3105 -48.2422 43.2617 -47.8027 43.2617 -47.168 C 43.2617 -45.6055 44.3359 -44.5801 45.8984 -44.5801 C 47.3145 -44.5801 48.1934 -45.2637 48.584 -46.6309 C 49.4629 -50.5859 52.9297 -53.1738 57.7148 -53.1738 C 63.0371 -53.1738 66.4062 -50.3906 66.4062 -46.0449 C 66.4062 -41.6504 62.6953 -38.3301 57.7148 -38.3301 L 54.248 -38.3301 C 52.832 -38.3301 51.8066 -37.3535 51.8066 -35.9375 C 51.8066 -34.5215 52.832 -33.4961 54.248 -33.4961 L 58.0078 -33.4961 C 63.8184 -33.4961 67.9199 -30.127 67.9199 -25.4395 C 67.9199 -20.5078 63.8184 -17.2363 57.666 -17.2363 C 52.2949 -17.2363 48.7793 -20.0195 47.6562 -23.7305 C 47.168 -25.1953 46.3379 -25.8301 44.9707 -25.8301 C 43.4082 -25.8301 42.2852 -24.707 42.2852 -23.1934 C 42.2852 -22.5586 42.3828 -22.1191 42.5293 -21.5332 C 43.9941 -16.0645 50.0488 -12.3535 57.5684 -12.3535 Z"/>
  </g>
  <g id="Thin-M" transform="matrix(1 0 0 1 799.806 1126)">
   <path d="M 56.6406 12.5977 C 82.9102 12.5977 104.492 -8.98438 104.492 -35.2539 C 104.492 -61.5723 82.9102 -83.1543 56.5918 -83.1543 C 30.3223 -83.1543 8.74023 -61.5723 8.74023 -35.2539 C 8.74023 -8.98438 30.3223 12.5977 56.6406 12.5977 Z M 56.6406 8.88672 C 32.2266 8.88672 12.4512 -10.8887 12.4512 -35.2539 C 12.4512 -59.6191 32.2266 -79.4434 56.5918 -79.4434 C 81.0059 -79.4434 100.781 -59.6191 100.781 -35.2539 C 100.781 -10.8887 81.0059 8.88672 56.6406 8.88672 Z M 56.7871 -12.793 C 65.625 -12.793 71.7773 -18.0176 71.7773 -25.2441 C 71.7773 -30.7617 67.334 -35.3516 61.5723 -35.9375 L 61.5723 -36.1816 C 66.5527 -37.1094 70.2148 -41.5527 70.2148 -46.582 C 70.2148 -52.9297 64.5508 -57.5195 56.8359 -57.5195 C 50.0977 -57.5195 44.4336 -53.9551 43.6523 -48.7305 C 43.5547 -48.1934 43.5059 -47.8027 43.5059 -47.2656 C 43.5059 -46.2402 44.1895 -45.5078 45.2148 -45.5078 C 46.1914 -45.5078 46.8262 -46.0449 46.9727 -47.0215 C 47.6562 -51.3672 51.6113 -54.2969 56.7871 -54.2969 C 62.6465 -54.2969 66.5039 -51.0254 66.5039 -46.1914 C 66.5039 -41.2598 62.3535 -37.5 56.9824 -37.5 L 52.9785 -37.5 C 52.0508 -37.5 51.3672 -36.8652 51.3672 -35.8887 C 51.3672 -34.9609 52.0508 -34.2773 52.9785 -34.2773 L 57.3242 -34.2773 C 63.4766 -34.2773 68.0664 -30.4199 68.0664 -25.3418 C 68.0664 -19.7754 63.5254 -16.0156 56.7871 -16.0156 C 51.3184 -16.0156 47.0703 -19.0918 46.0449 -23.291 C 45.752 -24.3164 45.2148 -24.8047 44.2871 -24.8047 C 43.2617 -24.8047 42.5293 -24.0723 42.5293 -22.998 C 42.5293 -22.5098 42.5781 -22.1191 42.7246 -21.582 C 44.1895 -16.3574 49.9023 -12.793 56.7871 -12.793 Z"/>
  </g>
  <g id="Ultralight-M" transform="matrix(1 0 0 1 503.656 1126)">
   <path d="M 56.0547 12.0605 C 82.0801 12.0605 103.369 -9.22852 103.369 -35.2539 C 103.369 -61.2793 82.0801 -82.5684 56.0547 -82.5684 C 30.0293 -82.5684 8.74023 -61.2793 8.74023 -35.2539 C 8.74023 -9.22852 30.0293 12.0605 56.0547 12.0605 Z M 56.0547 9.66797 C 31.2988 9.66797 11.1328 -10.498 11.1328 -35.2539 C 11.1328 -60.0586 31.2988 -80.1758 56.0547 -80.1758 C 80.8594 -80.1758 100.977 -60.0586 100.977 -35.2539 C 100.977 -10.498 80.8594 9.66797 56.0547 9.66797 Z M 56.3477 -13.0371 C 64.7461 -13.0371 70.8008 -18.2129 70.8008 -25.293 C 70.8008 -30.7129 66.3574 -35.3027 60.6445 -35.8887 L 60.6445 -36.1328 C 65.625 -37.0605 69.2383 -41.5039 69.2383 -46.5332 C 69.2383 -52.7344 63.7695 -57.2266 56.2988 -57.2266 C 49.9512 -57.2266 44.3848 -53.7109 43.75 -48.6328 C 43.7012 -48.1445 43.6523 -47.8027 43.6523 -47.3633 C 43.6523 -46.582 44.1406 -46.0449 44.8242 -46.0449 C 45.6543 -46.0449 46.1426 -46.4355 46.1914 -47.2656 C 46.7285 -51.7578 50.9277 -54.8828 56.2988 -54.8828 C 62.4512 -54.8828 66.5527 -51.3672 66.5527 -46.2402 C 66.5527 -41.1133 62.207 -37.1094 56.6406 -37.1094 L 52.3438 -37.1094 C 51.6113 -37.1094 51.1719 -36.6211 51.1719 -35.8887 C 51.1719 -35.1562 51.6113 -34.668 52.3438 -34.668 L 56.9824 -34.668 C 63.3301 -34.668 68.1152 -30.6152 68.1152 -25.293 C 68.1152 -19.3848 63.3789 -15.3809 56.3477 -15.3809 C 50.8301 -15.3809 46.1914 -18.6035 45.2637 -23.0469 C 45.0684 -23.877 44.6289 -24.2676 43.8965 -24.2676 C 43.1641 -24.2676 42.627 -23.6816 42.627 -22.9004 C 42.627 -22.4609 42.7246 -22.1191 42.8223 -21.6309 C 44.3359 -16.5039 49.8047 -13.0371 56.3477 -13.0371 Z"/>
  </g>
  <g id="Black-S" transform="matrix(1 0 0 1 2884.57 696)">
   <path d="M 48.8281 6.88477 C 71.9727 6.88477 90.8203 -11.9629 90.8203 -35.1074 C 90.8203 -58.252 71.9727 -77.0996 48.8281 -77.0996 C 25.6836 -77.0996 6.83594 -58.252 6.83594 -35.1074 C 6.83594 -11.9629 25.6836 6.88477 48.8281 6.88477 Z M 48.8281 -7.27539 C 33.4473 -7.27539 20.9961 -19.7266 20.9961 -35.1074 C 20.9961 -50.4883 33.4473 -62.9395 48.8281 -62.9395 C 64.209 -62.9395 76.6602 -50.4883 76.6602 -35.1074 C 76.6602 -19.7266 64.209 -7.27539 48.8281 -7.27539 Z M 49.1699 -17.7734 C 58.6426 -17.7734 64.502 -21.6797 64.502 -28.0273 C 64.502 -32.2266 61.5234 -35.5469 57.5195 -35.8398 L 57.5195 -36.4746 C 60.8887 -36.9141 63.7695 -39.9902 63.7695 -43.2129 C 63.7695 -48.9258 58.1055 -52.5391 49.1699 -52.5391 C 42.1875 -52.5391 37.207 -50.2441 35.6934 -46.4355 C 35.4004 -45.7031 35.2539 -44.9219 35.2539 -44.1406 C 35.2539 -41.2109 37.3535 -39.4043 40.8203 -39.4043 C 42.7734 -39.4043 44.2383 -40.0879 45.5566 -41.6504 C 46.582 -42.8711 47.8027 -43.5059 49.1211 -43.5059 C 50.5371 -43.5059 51.4648 -42.8711 51.4648 -41.8945 C 51.4648 -40.6738 50.5371 -39.8926 48.9746 -39.8926 L 48.877 -39.8926 C 45.4102 -39.8926 43.4082 -38.1836 43.4082 -35.2539 C 43.4082 -32.373 45.5078 -30.5664 48.877 -30.5664 L 48.9746 -30.5664 C 50.8789 -30.5664 51.8066 -29.9805 51.8066 -28.8574 C 51.8066 -27.8809 50.8301 -27.1973 49.4629 -27.1973 C 47.7539 -27.1973 46.4844 -27.7832 45.4102 -29.0527 C 44.1406 -30.5664 42.627 -31.2988 40.625 -31.2988 C 37.207 -31.2988 35.1074 -29.4922 35.1074 -26.5625 C 35.1074 -25.7812 35.2539 -25 35.5469 -24.2676 C 37.0605 -20.459 42.627 -17.7734 49.1699 -17.7734 Z"/>
  </g>
  <g id="Heavy-S" transform="matrix(1 0 0 1 2588.47 696)">
   <path d="M 48.2422 6.25 C 70.9961 6.25 89.5996 -12.4023 89.5996 -35.1562 C 89.5996 -57.9102 70.9961 -76.5137 48.1934 -76.5137 C 25.4395 -76.5137 6.83594 -57.9102 6.83594 -35.1562 C 6.83594 -12.4023 25.4395 6.25 48.2422 6.25 Z M 48.2422 -6.34766 C 32.2754 -6.34766 19.4336 -19.1895 19.4336 -35.1562 C 19.4336 -51.0742 32.2754 -63.9648 48.1934 -63.9648 C 64.1602 -63.9648 77.002 -51.0742 77.0508 -35.1562 C 77.0508 -19.1895 64.1602 -6.34766 48.2422 -6.34766 Z M 48.3887 -17.5781 C 57.6172 -17.5781 63.3301 -21.582 63.3301 -27.8809 C 63.3301 -32.1289 60.2539 -35.5469 56.1035 -35.8398 L 56.1035 -36.4258 C 59.5703 -36.8652 62.5 -40.0879 62.5 -43.457 C 62.5 -49.1211 56.9824 -52.7832 48.4863 -52.7832 C 41.6016 -52.7832 36.6699 -50.3418 35.2539 -46.3379 C 35.0098 -45.6543 34.8633 -44.9707 34.8633 -44.1895 C 34.8633 -41.5527 36.7676 -39.9414 39.8438 -39.9414 C 41.6992 -39.9414 43.0176 -40.625 44.1406 -42.1387 C 45.166 -43.75 46.582 -44.6289 48.4375 -44.6289 C 50.3418 -44.6289 51.5625 -43.7012 51.5625 -42.2852 C 51.5625 -40.6738 50.293 -39.5508 48.2422 -39.5508 L 47.6562 -39.5508 C 44.6289 -39.5508 42.8223 -37.9883 42.8223 -35.4004 C 42.8223 -32.8125 44.7266 -31.1523 47.6562 -31.1523 L 48.291 -31.1523 C 50.7324 -31.1523 52.0996 -30.2246 52.0996 -28.5645 C 52.0996 -27.0508 50.6836 -26.0254 48.6328 -26.0254 C 46.3867 -26.0254 44.9219 -26.9531 43.8477 -28.5156 C 42.7734 -30.0293 41.4062 -30.7129 39.502 -30.7129 C 36.4746 -30.7129 34.6191 -29.0527 34.6191 -26.416 C 34.6191 -25.6836 34.7168 -25 34.9609 -24.3164 C 36.377 -20.3125 41.8457 -17.5781 48.3887 -17.5781 Z"/>
  </g>
  <g id="Bold-S" transform="matrix(1 0 0 1 2292.44 696)">
   <path d="M 47.5586 5.51758 C 69.873 5.51758 88.2324 -12.8418 88.2324 -35.2051 C 88.2324 -57.5195 69.873 -75.8789 47.5098 -75.8789 C 25.1953 -75.8789 6.83594 -57.5195 6.83594 -35.2051 C 6.83594 -12.8418 25.1953 5.51758 47.5586 5.51758 Z M 47.5586 -5.27344 C 30.957 -5.27344 17.6758 -18.6035 17.6758 -35.2051 C 17.6758 -51.7578 30.957 -65.0879 47.5098 -65.0879 C 64.1113 -65.0879 77.4414 -51.7578 77.4414 -35.2051 C 77.4414 -18.6035 64.1113 -5.27344 47.5586 -5.27344 Z M 47.5098 -17.334 C 56.4941 -17.334 62.0117 -21.4355 62.0117 -27.6855 C 62.0117 -32.0312 58.8379 -35.498 54.4922 -35.8887 L 54.4922 -36.3281 C 58.1055 -36.8164 61.0352 -40.1367 61.0352 -43.75 C 61.0352 -49.3652 55.7129 -53.0762 47.7051 -53.0762 C 40.9668 -53.0762 36.084 -50.4883 34.7656 -46.2402 C 34.5703 -45.6055 34.4727 -44.9707 34.4727 -44.2871 C 34.4727 -41.9922 36.1328 -40.5273 38.7207 -40.5273 C 40.4785 -40.5273 41.6504 -41.2109 42.5781 -42.7246 C 43.5547 -44.6777 45.2637 -45.8496 47.6074 -45.8496 C 50.1465 -45.8496 51.709 -44.6777 51.709 -42.7246 C 51.709 -40.625 50 -39.1602 47.4609 -39.1602 L 46.2891 -39.1602 C 43.7988 -39.1602 42.1875 -37.7441 42.1875 -35.498 C 42.1875 -33.3008 43.8477 -31.8359 46.2891 -31.8359 L 47.5586 -31.8359 C 50.5859 -31.8359 52.4414 -30.4688 52.4414 -28.2227 C 52.4414 -26.1719 50.5371 -24.7559 47.7051 -24.7559 C 44.8242 -24.7559 43.1641 -26.0254 42.1387 -27.8809 C 41.2109 -29.3945 39.9902 -30.0781 38.2812 -30.0781 C 35.6934 -30.0781 34.0332 -28.5645 34.0332 -26.2695 C 34.0332 -25.5371 34.1309 -25 34.3262 -24.3652 C 35.6445 -20.166 41.0156 -17.334 47.5098 -17.334 Z"/>
  </g>
  <g id="Semibold-S" transform="matrix(1 0 0 1 1996.2 696)">
   <path d="M 47.0703 5.0293 C 69.0918 5.0293 87.3047 -13.1836 87.3047 -35.2051 C 87.3047 -57.2266 69.0918 -75.4395 47.0215 -75.4395 C 25 -75.4395 6.83594 -57.2266 6.83594 -35.2051 C 6.83594 -13.1836 25.0488 5.0293 47.0703 5.0293 Z M 47.0703 -4.54102 C 30.0781 -4.54102 16.4551 -18.2129 16.4551 -35.2051 C 16.4551 -52.1973 30.0293 -65.8691 47.0215 -65.8691 C 64.0625 -65.8691 77.6855 -52.1973 77.7344 -35.2051 C 77.7344 -18.2129 64.0625 -4.54102 47.0703 -4.54102 Z M 46.9238 -17.1387 C 55.7617 -17.1387 61.1328 -21.3867 61.1328 -27.5879 C 61.1328 -31.9824 57.8613 -35.498 53.418 -35.8887 L 53.418 -36.2793 C 57.0801 -36.8164 60.0586 -40.2344 60.0586 -43.9941 C 60.0586 -49.5117 54.834 -53.2715 47.168 -53.2715 C 40.5273 -53.2715 35.6934 -50.5859 34.4238 -46.1914 C 34.2773 -45.5566 34.1797 -45.0195 34.1797 -44.3359 C 34.1797 -42.2852 35.6934 -40.918 37.9883 -40.918 C 39.5996 -40.918 40.7227 -41.6016 41.4551 -43.1152 C 42.4316 -45.3613 44.3359 -46.6797 47.0703 -46.6797 C 50 -46.6797 51.7578 -45.3125 51.7578 -43.0176 C 51.7578 -40.625 49.7559 -38.916 46.875 -38.916 L 45.3613 -38.916 C 43.1641 -38.916 41.7969 -37.5977 41.7969 -35.5957 C 41.7969 -33.6914 43.2129 -32.3242 45.3613 -32.3242 L 47.0215 -32.3242 C 50.4883 -32.3242 52.6855 -30.6152 52.6855 -28.0273 C 52.6855 -25.5371 50.4395 -23.877 47.1191 -23.877 C 43.75 -23.877 41.9434 -25.3906 40.9668 -27.4414 C 40.1367 -28.9551 39.0625 -29.6387 37.4023 -29.6387 C 35.1074 -29.6387 33.6426 -28.2227 33.6426 -26.1719 C 33.6426 -25.4883 33.6914 -25 33.8867 -24.3652 C 35.1562 -20.0684 40.4297 -17.1387 46.9238 -17.1387 Z"/>
  </g>
  <g id="Medium-S" transform="matrix(1 0 0 1 1699.83 696)">
   <path d="M 46.7285 4.63867 C 68.5547 4.63867 86.6211 -13.4277 86.6211 -35.2051 C 86.6211 -57.0312 68.5059 -75.0977 46.6797 -75.0977 C 24.8535 -75.0977 6.83594 -57.0312 6.83594 -35.2051 C 6.83594 -13.4277 24.9023 4.63867 46.7285 4.63867 Z M 46.7285 -4.00391 C 29.3945 -4.00391 15.5273 -17.8711 15.5273 -35.2051 C 15.5273 -52.5879 29.3457 -66.4551 46.6797 -66.4551 C 64.0137 -66.4551 77.8809 -52.5879 77.9297 -35.2051 C 77.9785 -17.8711 64.0625 -4.00391 46.7285 -4.00391 Z M 46.4355 -17.041 C 55.1758 -17.041 60.4492 -21.2891 60.4492 -27.4902 C 60.4492 -31.9336 57.1289 -35.498 52.5879 -35.8887 L 52.5879 -36.2793 C 56.2988 -36.7676 59.3262 -40.2832 59.3262 -44.1406 C 59.3262 -49.6094 54.1992 -53.4668 46.7773 -53.4668 C 40.1855 -53.4668 35.4004 -50.6348 34.1797 -46.1426 C 34.0332 -45.5566 33.9355 -45.0195 33.9355 -44.3848 C 33.9355 -42.4805 35.3516 -41.2109 37.4023 -41.2109 C 38.9648 -41.2109 39.9902 -41.9434 40.625 -43.4082 C 41.6016 -45.8496 43.6523 -47.3633 46.6797 -47.3633 C 49.9023 -47.3633 51.8555 -45.8008 51.8555 -43.2617 C 51.8555 -40.5762 49.6094 -38.6719 46.4844 -38.6719 L 44.6289 -38.6719 C 42.7246 -38.6719 41.4551 -37.5 41.4551 -35.6934 C 41.4551 -33.9355 42.7734 -32.666 44.6289 -32.666 L 46.6309 -32.666 C 50.3906 -32.666 52.8809 -30.7617 52.8809 -27.832 C 52.8809 -25.0488 50.3418 -23.1934 46.6309 -23.1934 C 42.9199 -23.1934 41.0156 -24.9023 40.0391 -27.1484 C 39.3066 -28.6621 38.3301 -29.2969 36.7676 -29.2969 C 34.7168 -29.2969 33.3496 -27.9785 33.3496 -26.0742 C 33.3496 -25.4395 33.3984 -25 33.5449 -24.4141 C 34.7656 -20.0195 39.9902 -17.041 46.4355 -17.041 Z"/>
  </g>
  <g id="Regular-S" transform="matrix(1 0 0 1 1403.58 696)">
   <path d="M 46.2402 4.15039 C 67.7734 4.15039 85.6934 -13.7207 85.6934 -35.2539 C 85.6934 -56.7871 67.7246 -74.6582 46.1914 -74.6582 C 24.707 -74.6582 6.83594 -56.7871 6.83594 -35.2539 C 6.83594 -13.7207 24.7559 4.15039 46.2402 4.15039 Z M 46.2402 -3.27148 C 28.5156 -3.27148 14.3555 -17.4805 14.3555 -35.2539 C 14.3555 -53.0273 28.4668 -67.2363 46.1914 -67.2363 C 63.9648 -67.2363 78.1738 -53.0273 78.2227 -35.2539 C 78.2715 -17.4805 64.0137 -3.27148 46.2402 -3.27148 Z M 45.8496 -16.8457 C 54.3945 -16.8457 59.5215 -21.2402 59.5215 -27.3438 C 59.5215 -31.8848 56.1523 -35.498 51.5137 -35.9375 L 51.5137 -36.2305 C 55.3223 -36.7676 58.3008 -40.332 58.3008 -44.3359 C 58.3008 -49.7559 53.3203 -53.6621 46.2891 -53.6621 C 39.7461 -53.6621 35.0098 -50.7324 33.8379 -46.0938 C 33.7402 -45.5078 33.6914 -45.0684 33.6914 -44.4336 C 33.6914 -42.7734 34.9121 -41.6016 36.6211 -41.6016 C 38.1348 -41.6016 39.0625 -42.334 39.5508 -43.7988 C 40.5273 -46.5332 42.7246 -48.1934 46.1426 -48.1934 C 49.7559 -48.1934 51.9043 -46.4844 51.9043 -43.5547 C 51.9043 -40.5762 49.4141 -38.4277 45.8984 -38.4277 L 43.7012 -38.4277 C 42.1387 -38.4277 41.0156 -37.3535 41.0156 -35.791 C 41.0156 -34.2773 42.1387 -33.1543 43.7012 -33.1543 L 46.0938 -33.1543 C 50.293 -33.1543 53.0762 -30.957 53.0762 -27.6367 C 53.0762 -24.4141 50.2441 -22.3145 45.9961 -22.3145 C 41.8945 -22.3145 39.8438 -24.2676 38.8672 -26.709 C 38.2812 -28.2227 37.3535 -28.8574 35.8887 -28.8574 C 34.1797 -28.8574 32.959 -27.6367 32.959 -25.9766 C 32.959 -25.3418 33.0078 -25 33.1055 -24.4141 C 34.2773 -19.9219 39.4043 -16.8457 45.8496 -16.8457 Z"/>
  </g>
  <g id="Light-S" transform="matrix(1 0 0 1 1107.6 696)">
   <path d="M 45.5078 3.41797 C 66.6992 3.41797 84.2285 -14.0625 84.2285 -35.2539 C 84.2285 -56.4453 66.6504 -73.9258 45.5078 -73.9258 C 24.3164 -73.9258 6.83594 -56.4453 6.83594 -35.2539 C 6.83594 -14.0625 24.3652 3.41797 45.5078 3.41797 Z M 45.5078 -2.29492 C 27.2461 -2.29492 12.5977 -16.9922 12.5977 -35.2539 C 12.5977 -53.5156 27.1973 -68.2129 45.5078 -68.2129 C 63.7695 -68.2129 78.4668 -53.5156 78.5156 -35.2539 C 78.5156 -16.9922 63.8184 -2.29492 45.5078 -2.29492 Z M 45.3125 -17.1387 C 53.2227 -17.1387 58.252 -21.4355 58.252 -27.3926 C 58.252 -31.8359 54.8828 -35.4492 50.2441 -35.8887 L 50.2441 -36.1328 C 54.1016 -36.7188 57.0312 -40.2832 57.0312 -44.2383 C 57.0312 -49.5117 52.2949 -53.2715 45.6055 -53.2715 C 39.5508 -53.2715 34.9121 -50.3906 33.9844 -45.9961 C 33.8867 -45.459 33.8379 -45.0684 33.8379 -44.5312 C 33.8379 -43.1641 34.8145 -42.2852 36.1816 -42.2852 C 37.4023 -42.2852 38.1348 -42.8711 38.5254 -44.043 C 39.3066 -47.0215 41.8457 -48.9258 45.5078 -48.9258 C 49.5117 -48.9258 52.002 -46.9238 52.002 -43.6523 C 52.002 -40.332 49.2188 -37.8906 45.4102 -37.8906 L 42.8711 -37.8906 C 41.6016 -37.8906 40.7227 -37.0117 40.7227 -35.791 C 40.7227 -34.5703 41.6016 -33.6426 42.8711 -33.6426 L 45.6543 -33.6426 C 50.0977 -33.6426 53.1738 -31.1523 53.1738 -27.5879 C 53.1738 -23.9258 50.0488 -21.4844 45.4102 -21.4844 C 41.2109 -21.4844 38.6719 -23.584 37.793 -26.3672 C 37.3535 -27.6367 36.6211 -28.1738 35.4492 -28.1738 C 34.082 -28.1738 33.1055 -27.1973 33.1055 -25.8301 C 33.1055 -25.293 33.1543 -25 33.252 -24.4629 C 34.4238 -20.1172 39.2578 -17.1387 45.3125 -17.1387 Z"/>
  </g>
  <g id="Thin-S" transform="matrix(1 0 0 1 811.867 696)">
   <path d="M 44.5801 2.49023 C 65.2832 2.49023 82.2754 -14.5508 82.2754 -35.2539 C 82.2754 -55.957 65.2344 -72.998 44.5312 -72.998 C 23.8281 -72.998 6.83594 -55.957 6.83594 -35.2539 C 6.83594 -14.5508 23.877 2.49023 44.5801 2.49023 Z M 44.5801 -0.927734 C 25.5859 -0.927734 10.2539 -16.3086 10.2539 -35.2539 C 10.2539 -54.1992 25.5859 -69.5801 44.5312 -69.5801 C 63.5254 -69.5801 78.8574 -54.1992 78.8574 -35.2539 C 78.8574 -16.3086 63.5254 -0.927734 44.5801 -0.927734 Z M 44.6289 -17.5781 C 51.7578 -17.5781 56.5918 -21.6797 56.5918 -27.3926 C 56.5918 -31.7383 53.125 -35.3516 48.584 -35.791 L 48.584 -36.0352 C 52.4902 -36.7188 55.3711 -40.1855 55.3711 -44.1406 C 55.3711 -49.1699 50.8789 -52.7832 44.7266 -52.7832 C 39.3066 -52.7832 34.8145 -50 34.1797 -45.8496 C 34.082 -45.4102 34.0332 -45.0684 34.0332 -44.6289 C 34.0332 -43.75 34.668 -43.1152 35.5469 -43.1152 C 36.4258 -43.1152 36.9629 -43.5547 37.1094 -44.3848 C 37.6953 -47.7051 40.6738 -49.9512 44.6777 -49.9512 C 49.1699 -49.9512 52.0996 -47.4609 52.0996 -43.75 C 52.0996 -40.0391 48.9258 -37.1582 44.7754 -37.1582 L 41.748 -37.1582 C 40.918 -37.1582 40.332 -36.6211 40.332 -35.7422 C 40.332 -34.9121 40.918 -34.3262 41.748 -34.3262 L 45.0684 -34.3262 C 49.8047 -34.3262 53.2715 -31.3965 53.2715 -27.4902 C 53.2715 -23.291 49.8047 -20.4102 44.6777 -20.4102 C 40.3809 -20.4102 37.207 -22.7539 36.377 -25.9766 C 36.1328 -26.8555 35.6445 -27.2461 34.8145 -27.2461 C 33.9355 -27.2461 33.252 -26.6113 33.252 -25.6836 C 33.252 -25.293 33.3008 -24.9512 33.4473 -24.5117 C 34.5703 -20.3613 39.1113 -17.5781 44.6289 -17.5781 Z"/>
  </g>
  <g id="Ultralight-S" transform="matrix(1 0 0 1 515.644 696)">
   <path d="M 44.043 1.95312 C 64.502 1.95312 81.2988 -14.7949 81.2988 -35.2539 C 81.2988 -55.7129 64.502 -72.4609 44.043 -72.4609 C 23.584 -72.4609 6.83594 -55.7129 6.83594 -35.2539 C 6.83594 -14.7949 23.584 1.95312 44.043 1.95312 Z M 44.043 -0.244141 C 24.7559 -0.244141 9.08203 -15.9668 9.08203 -35.2539 C 9.08203 -54.541 24.7559 -70.2637 44.043 -70.2637 C 63.3789 -70.2637 79.0527 -54.541 79.0527 -35.2539 C 79.0527 -15.9668 63.3789 -0.244141 44.043 -0.244141 Z M 44.2871 -17.7734 C 50.9766 -17.7734 55.7129 -21.8262 55.7129 -27.4414 C 55.7129 -31.6895 52.2461 -35.3027 47.7539 -35.7422 L 47.7539 -35.9375 C 51.6602 -36.6699 54.4922 -40.1367 54.4922 -44.0918 C 54.4922 -49.0234 50.1465 -52.5391 44.2383 -52.5391 C 39.209 -52.5391 34.7656 -49.7559 34.2773 -45.752 C 34.1797 -45.3613 34.1309 -45.0684 34.1309 -44.7266 C 34.1309 -44.043 34.5703 -43.5547 35.2051 -43.5547 C 35.8887 -43.5547 36.3281 -43.8965 36.377 -44.5801 C 36.8652 -48.0469 40.0879 -50.4883 44.2383 -50.4883 C 48.9746 -50.4883 52.1484 -47.8027 52.1484 -43.8477 C 52.1484 -39.8926 48.7793 -36.8164 44.4824 -36.8164 L 41.2109 -36.8164 C 40.5762 -36.8164 40.1367 -36.377 40.1367 -35.7422 C 40.1367 -35.1074 40.5762 -34.668 41.2109 -34.668 L 44.7266 -34.668 C 49.6582 -34.668 53.3691 -31.543 53.3691 -27.4414 C 53.3691 -22.9492 49.707 -19.873 44.2871 -19.873 C 39.9414 -19.873 36.4258 -22.3145 35.6445 -25.7324 C 35.498 -26.4648 35.1074 -26.7578 34.4727 -26.7578 C 33.8379 -26.7578 33.3984 -26.2695 33.3984 -25.5859 C 33.3984 -25.2441 33.4473 -24.9512 33.5449 -24.5605 C 34.7168 -20.5078 39.0137 -17.7734 44.2871 -17.7734 Z"/>
  </g>
 </g>
</svg>
